<?xml version="1.0" encoding="iso-8859-1"?>
<!DOCTYPE svg PUBLIC "-//W3C//DTD SVG 1.0//EN" "http://www.w3.org/TR/2001/REC-SVG-20010904/DTD/svg10.dtd">
<!-- Creator: CorelDRAW -->
<svg xmlns="http://www.w3.org/2000/svg" xml:space="preserve" shape-rendering="geometricPrecision" text-rendering="geometricPrecision" image-rendering="optimizeQuality" fill-rule="evenodd" clip-rule="evenodd"
 viewBox="0 0 2836 2126"
 xmlns:xlink="http://www.w3.org/1999/xlink">
     <g id="Racine">
  <g>
   <path fill="#FFFFFF" d="M1 1l2835 -1 -2 2126 -2834 0 1 -2125z"/>
   <g id="Fasciculees" onclick="parent.replacechar('Fasciculees')" onmousemove="parent.showtooltip('Fasciculees','Fibrous Roots')" onmouseout="parent.hidetooltip('Fasciculees')" cursor="pointer" >
    <path fill="#625F5E" stroke="#625F5E" stroke-linejoin="bevel" d="M54 668l860 0 -860 0z"/>
    <path fill="#63A342" stroke="#625F5E" stroke-linejoin="bevel" d="M899 184c-12,82 -125,170 -214,77 -70,-47 -122,-10 -177,16 -72,43 -42,80 -143,-4 -115,-39 -149,8 -173,32 -57,29 -140,-3 -162,-58 15,-25 34,-26 46,-30 -12,-14 -17,-15 -21,-33l844 0z"/>
    <path fill="#EE971B" stroke="#1F1A17" stroke-linejoin="bevel" d="M424 721c-20,46 -52,51 -57,62 27,-12 49,-34 59,-59l-2 -3z"/>
    <path fill="#F2D046" stroke="#A8A8A7" stroke-linejoin="bevel" d="M693 184c-49,31 -36,24 -76,49 104,31 167,-3 194,-24 -53,60 -117,49 -209,37 -64,21 -108,32 -151,95 -11,96 3,98 1,351 0,1 -23,34 -23,36 0,-7 -28,-24 -28,-32 6,-119 13,-250 17,-354 -13,-45 -75,-69 -114,-75 -67,-7 -103,17 -147,22 -30,1 -63,-3 -73,-25 12,2 24,15 43,16 61,1 90,-20 155,-30 -30,-23 -75,-39 -116,-66l26 0c42,32 62,34 106,56 45,23 104,32 132,51 -5,-3 -6,-4 -11,-6l4 -101 25 0c-3,89 1,57 3,110 58,-48 136,-36 213,-110l29 0z"/>
    <path fill="#EE9719" stroke="#1F1A17" stroke-linejoin="bevel" d="M406 612c-18,15 -36,32 -53,43 -77,25 -95,4 -131,9 68,13 108,7 133,-5 26,-14 43,-38 50,-39l1 -8z"/>
    <path fill="#EE9719" stroke="#1F1A17" d="M405 624c-36,61 -139,50 -144,52 10,6 56,4 87,-4 25,-8 45,-19 56,-40l1 -8z"/>
    <path fill="#EE9719" stroke="#1F1A17" stroke-linejoin="bevel" d="M404 641c-8,12 -21,21 -34,27 -37,17 -89,11 -103,14 18,4 58,5 92,-4 18,-7 33,-15 45,-30l0 -7z"/>
    <path fill="#EE9719" stroke="#1F1A17" d="M404 653c-26,43 -119,31 -131,33 9,5 48,6 78,2 21,-3 37,-12 52,-26l1 -9z"/>
    <path fill="#EE9719" stroke="#1F1A17" stroke-linejoin="bevel" d="M403 668c-20,18 -112,32 -125,30 4,9 104,-5 125,-24l0 -6z"/>
    <path fill="#EE9719" stroke="#1F1A17" d="M403 677c-52,33 -93,24 -108,28 13,2 65,5 107,-23l1 -5z"/>
    <path fill="#EE9719" stroke="#1F1A17" stroke-linejoin="bevel" d="M401 690c-23,18 -97,33 -100,26 27,2 79,-17 101,-31l-1 5z"/>
    <path fill="#EE9719" stroke="#1F1A17" d="M401 691c-52,44 -94,29 -108,37 39,3 68,3 108,-33l0 -4z"/>
    <path fill="#EE9719" stroke="#1F1A17" stroke-linejoin="bevel" d="M401 697c-48,45 -56,29 -94,47 35,-6 61,-10 96,-43l-2 -4z"/>
    <path fill="#EE9719" stroke="#1F1A17" d="M404 702c-33,45 -69,36 -93,47 37,-4 69,-8 98,-43l-5 -4z"/>
    <path fill="#EE9719" stroke="#1F1A17" stroke-linejoin="bevel" d="M410 707c-31,40 -63,37 -82,55 38,-16 61,-21 85,-51l-3 -4z"/>
    <path fill="#EE9719" stroke="#1F1A17" d="M415 712c-29,48 -52,43 -70,60 26,-11 58,-25 74,-57l-4 -3z"/>
    <path fill="#EE9719" stroke="#1F1A17" stroke-linejoin="bevel" d="M419 716c-18,38 -52,50 -57,60 27,-14 42,-23 62,-56l-5 -4z"/>
    <path fill="#EE9719" stroke="#1F1A17" stroke-linejoin="bevel" d="M427 724c-12,23 -29,42 -40,60 17,-18 22,-28 42,-55l-2 -5z"/>
    <path fill="#EE9719" stroke="#1F1A17" d="M428 730c-11,23 -22,39 -27,56 14,-25 28,-42 30,-56l-3 0z"/>
    <path fill="#EE9719" stroke="#1F1A17" d="M430 728c-5,16 4,36 3,57 7,-22 -4,-36 1,-60l-4 3z"/>
    <path fill="#EE9719" stroke="#1F1A17" stroke-linejoin="bevel" d="M428 729c-1,20 -20,46 -12,55 2,-12 15,-49 16,-60l-4 5z"/>
    <path fill="#EE9719" stroke="#1F1A17" stroke-linejoin="bevel" d="M433 723c4,28 6,51 8,61 4,-13 -4,-33 -5,-66l-3 5z"/>
    <path fill="#EE9719" stroke="#1F1A17" d="M437 717c-3,18 10,54 21,70 -4,-18 -14,-34 -16,-71l-5 1z"/>
    <path fill="#EE9719" stroke="#1F1A17" d="M442 709c6,41 44,59 75,65 -60,-20 -67,-51 -73,-68l-2 3z"/>
    <path fill="#EE9719" stroke="#1F1A17" d="M443 707c19,40 55,38 94,45 -52,-12 -83,-20 -91,-49l-3 4z"/>
    <path fill="#EE9719" stroke="#1F1A17" stroke-linejoin="bevel" d="M446 703c10,36 62,39 106,35 -54,-5 -88,1 -104,-38l-2 3z"/>
    <path fill="#EE9719" stroke="#1F1A17" stroke-linejoin="bevel" d="M439 713c3,16 17,56 30,66 -3,-11 -19,-36 -27,-69l-3 3z"/>
    <path fill="#EE9719" stroke="#1F1A17" d="M449 699c23,39 66,36 109,31 -33,-3 -80,13 -107,-36l-2 5z"/>
    <path fill="#EE9719" stroke="#1F1A17" stroke-linejoin="bevel" d="M452 694c29,40 73,30 107,26 -60,5 -89,-5 -106,-29l-1 3z"/>
    <path fill="#EE9719" stroke="#1F1A17" d="M453 690c17,26 78,25 116,19 -48,1 -106,-2 -116,-24l0 5z"/>
    <path fill="#EE9719" stroke="#1F1A17" stroke-linejoin="bevel" d="M451 683c35,15 75,26 121,18 -60,4 -104,-11 -119,-23l-2 5z"/>
    <path fill="#EE9719" stroke="#1F1A17" stroke-linejoin="bevel" d="M453 645c45,37 96,46 128,34 -72,15 -122,-39 -128,-40l0 6z"/>
    <path fill="#EE9719" stroke="#1F1A17" stroke-linejoin="bevel" d="M453 618c10,4 23,31 39,41 48,13 109,7 121,1 -32,4 -90,7 -118,-4 -17,-8 -23,-33 -42,-45l0 7z"/>
    <path fill="#EE9719" stroke="#1F1A17" d="M453 619c29,46 64,59 151,49 -36,12 -128,14 -151,-43l0 -6z"/>
    <path fill="#EE9719" stroke="#1F1A17" d="M453 648c19,13 49,40 123,41 -48,9 -115,-26 -123,-33l0 -8z"/>
    <path fill="#EE9719" stroke="#1F1A17" d="M451 675c51,24 94,22 127,19 -57,-4 -80,2 -125,-24l-2 5z"/>
    <path fill="#EE9719" stroke="#1F1A17" stroke-linejoin="bevel" d="M453 659c25,17 57,30 114,32 -43,4 -82,-5 -114,-24l0 -8z"/>
    <path fill="#EE9719" stroke="#1F1A17" stroke-linejoin="bevel" d="M444 712c11,27 30,30 57,50 -20,-19 -44,-27 -56,-52l-1 2z"/>
   </g>
   
 
   
   <g id="Tracantes" onclick="parent.replacechar('Tracantes')" onmousemove="parent.showtooltip('Tracantes','Tracantes Roots')" onmouseout="parent.hidetooltip('Tracantes')" cursor="pointer" >
   
    <path fill="#63A342" stroke="#625F5E" stroke-linejoin="bevel" d="M1844 184c-11,82 -124,170 -213,77 -71,-47 -123,-10 -178,16 -72,43 -42,80 -143,-5 -114,-39 -149,9 -174,33 -56,29 -139,-3 -161,-58 15,-25 34,-27 46,-30 -12,-15 -17,-15 -20,-33l843 0z"/>
    <path fill="#F1D145" stroke="#A8A8A7" stroke-linejoin="bevel" d="M1396 668l-49 0c6,-130 12,-215 16,-326 -13,-45 -75,-69 -114,-75 -67,-7 -102,17 -147,22 -31,1 -62,-3 -73,-25 12,2 25,15 42,15 62,2 91,-19 156,-29 -30,-23 -74,-40 -118,-66l28 0c42,31 63,34 107,56 45,23 109,33 132,51 -5,-4 -7,-5 -11,-7l3 -100 26 0c-3,88 0,57 2,110 58,-48 136,-36 213,-110l29 0c-50,31 -36,24 -76,49 104,31 166,-3 194,-24 -53,59 -117,49 -209,36 -63,22 -107,33 -150,96 -12,97 1,70 -1,327z"/>
    <path fill="#625F5E" stroke="#625F5E" stroke-linejoin="bevel" d="M960 668l899 0 -899 0z"/>
    <path fill="#EE9719" stroke="#1F1A17" stroke-linejoin="bevel" d="M1396 668c0,2 0,5 0,4 12,9 414,124 419,130 -195,-42 -229,-60 -393,-88l-57 -8c-232,41 -126,19 -371,54 -4,-14 291,-71 353,-87 0,0 0,-5 0,-5l49 0z"/>
    <path fill="#EE9719" stroke="#1F1A17" stroke-linejoin="bevel" d="M1392 706c-204,142 -370,257 -421,288 0,-8 371,-283 382,-291l39 3z"/>
    <path fill="#EE9719" d="M1355 712l-8 -20 58 12 -19 5 -31 3z"/>
   </g>
   
   
   <g id="Echasses" onclick="parent.replacechar('Echasses')" onmousemove="parent.showtooltip('Echasses','Echasses Roots')" onmouseout="parent.hidetooltip('Echasses')" cursor="pointer" >
   
    <path fill="#625F5E" stroke="#625F5E" stroke-linejoin="bevel" d="M1928 666l858 0 -858 0z"/>
    <path fill="#EE9719" stroke="#1F1A17" stroke-linejoin="bevel" d="M2326 570c-28,42 -50,27 -67,40 -8,7 -23,13 -30,63 2,3 7,3 9,1 5,-21 8,-39 22,-48 27,-21 44,2 68,-33l-2 -23z"/>
    <path fill="#EE9719" stroke="#1F1A17" stroke-linejoin="bevel" d="M2342 442c102,130 153,116 155,224 -2,4 -7,4 -12,3 6,-114 -127,-152 -143,-167l0 -60z"/>
    <path fill="#EE9719" stroke="#1F1A17" stroke-linejoin="bevel" d="M2341 599c20,27 76,30 73,71 -2,5 -6,4 -10,2 9,-36 -48,-49 -64,-55l1 -18z"/>
    <path fill="#63A342" stroke="#625F5E" stroke-linejoin="bevel" d="M2792 182c-11,82 -125,170 -213,78 -71,-48 -123,-11 -177,15 -73,44 -42,79 -144,-5 -114,-39 -149,9 -173,33 -57,29 -140,-3 -162,-57 15,-26 34,-28 46,-31 -12,-15 -16,-15 -20,-34l843 1z"/>
    <path fill="#F1D145" stroke="#A8A8A7" stroke-linejoin="bevel" d="M2345 666l-49 -1c6,-130 11,-214 15,-325 -13,-45 -75,-68 -114,-75 -66,-8 -102,17 -147,22 -30,1 -62,-3 -72,-25 11,3 23,15 42,15 62,1 90,-20 155,-29 -30,-23 -75,-40 -117,-67l28 0c41,33 62,35 106,58 45,22 105,30 132,50 -5,-4 -6,-4 -11,-7l3 -100 26 0c-2,88 0,57 3,110 57,-48 135,-36 213,-110l28 0c-48,32 -36,24 -76,48 104,31 167,-2 194,-23 -52,59 -116,49 -209,36 -64,22 -107,33 -150,96 -12,96 2,70 0,327z"/>
    <path fill="#EE9719" stroke="#1F1A17" stroke-linejoin="bevel" d="M2313 456c-11,48 8,57 -77,126 -26,24 -32,46 -31,83 2,3 13,3 15,1 4,-34 6,-54 29,-70 20,-15 59,-43 74,-79l-10 -61z"/>
    <path fill="#EE9719" stroke="#1F1A17" stroke-linejoin="bevel" d="M2313 611c-13,24 -56,23 -62,65 3,3 4,-2 9,-1 4,-4 3,-20 24,-31 12,-7 25,-3 35,-20l-6 -13z"/>
    <path fill="#EE9719" stroke="#1F1A17" stroke-linejoin="bevel" d="M2343 551c19,32 38,30 75,46 25,13 38,41 38,71 -2,4 -7,4 -11,2 -2,-58 -50,-77 -103,-77l1 -42z"/>
    <path fill="#EE9719" stroke="#1F1A17" stroke-linejoin="bevel" d="M2328 632c9,3 53,20 51,42 -12,-19 -41,-26 -51,-31l0 -11z"/>
    <path fill="#EE9719" stroke="#1F1A17" stroke-linejoin="bevel" d="M2318 636c-13,4 -30,19 -32,33 8,2 10,-20 38,-24l-6 -9z"/>
   </g>
   
   

   <g id="Prop" onclick="parent.replacechar('Prop')" onmousemove="parent.showtooltip('Prop','Prop Roots')" onmouseout="parent.hidetooltip('Prop')" cursor="pointer" >
   
    <path fill="#63A342" stroke="#625F5E" stroke-linejoin="bevel" d="M892 1463c-11,81 -125,171 -213,77 -71,-47 -123,-10 -178,16 -72,43 -42,80 -143,-5 -114,-39 -148,9 -174,33 -56,28 -139,-3 -161,-58 15,-26 34,-27 46,-30 -12,-14 -17,-15 -21,-33l844 0z"/>
    <path fill="#F1D145" stroke="#A8A8A7" stroke-linejoin="bevel" d="M444 1946l-48 0c6,-130 11,-214 15,-324 -13,-46 -75,-69 -114,-76 -67,-8 -102,17 -147,21 -31,2 -62,-2 -73,-24 12,2 24,14 42,15 62,1 91,-20 156,-29 -30,-23 -74,-40 -117,-66l27 0c42,31 62,34 107,56 44,23 105,30 131,51 -3,-3 -4,-4 -10,-7l3 -100 25 0c-2,89 1,57 3,110 57,-48 136,-36 214,-110l28 0c-49,32 -36,24 -77,48 104,31 168,-2 195,-23 -53,59 -117,49 -209,37 -64,21 -108,32 -150,94 -12,97 1,70 -1,327z"/>
    <path fill="#625F5E" stroke="#625F5E" stroke-linejoin="bevel" d="M34 1946l852 0 -852 0z"/>
    <path fill="#EE9719" stroke="#1F1A17" stroke-linejoin="bevel" d="M402 1832c-35,72 -41,75 -54,131 1,2 4,3 5,1 22,-93 47,-102 51,-129l-2 -3z"/>
    <path fill="#EE9719" stroke="#1F1A17" stroke-linejoin="bevel" d="M400 1858c-15,51 -17,63 -26,108 2,1 4,2 7,1 9,-61 18,-79 26,-111l-7 2z"/>
    <path fill="#EE9719" stroke="#1F1A17" stroke-linejoin="bevel" d="M411 1832c-7,56 -19,72 -25,137 1,2 3,3 5,2 5,-41 13,-83 26,-140l-6 1z"/>
    <path fill="#EE9719" stroke="#1F1A17" stroke-linejoin="bevel" d="M401 1824c-12,69 -27,88 -33,132 1,3 4,3 6,0 13,-40 13,-64 36,-133l-9 1z"/>
    <path fill="#EE9719" stroke="#1F1A17" stroke-linejoin="bevel" d="M413 1844c-6,57 -14,77 -17,108 2,2 5,2 6,0 5,-46 11,-58 18,-108l-7 0z"/>
    <path fill="#EE9719" stroke="#1F1A17" stroke-linejoin="bevel" d="M421 1835c5,54 5,90 7,128 2,3 4,3 6,1 1,-76 -2,-81 -8,-130l-5 1z"/>
    <path fill="#EE9719" stroke="#1F1A17" stroke-linejoin="bevel" d="M418 1859c-5,56 -14,58 -14,100 1,1 3,1 5,0 2,-61 11,-39 13,-100l-4 0z"/>
    <path fill="#EE9719" stroke="#1F1A17" stroke-linejoin="bevel" d="M425 1828c7,15 16,152 13,148 3,3 3,6 10,2 -7,-46 -5,-91 -13,-152l-10 2z"/>
    <path fill="#EE9719" stroke="#1F1A17" stroke-linejoin="bevel" d="M439 1858c22,54 24,77 34,98 3,0 8,-2 7,-5 -20,-51 -19,-78 -41,-109l0 16z"/>
    <path fill="#EE9719" stroke="#1F1A17" stroke-linejoin="bevel" d="M438 1827c19,65 21,101 29,139 2,2 6,2 8,0 -10,-62 -14,-76 -32,-148l-5 9z"/>
    <path fill="#EE9719" stroke="#1F1A17" stroke-linejoin="bevel" d="M458 1880c15,36 27,39 32,65 -2,2 -5,1 -8,1 -7,-28 -13,-18 -20,-49l-4 -17z"/>
    <path fill="#EE9719" stroke="#1F1A17" stroke-linejoin="bevel" d="M420 1887c-1,33 1,26 -1,69 1,2 4,3 5,2 0,-34 2,-62 -2,-84l-2 13z"/>
    <path fill="#EE9719" stroke="#1F1A17" stroke-linejoin="bevel" d="M440 1881c6,34 11,41 15,81 2,2 6,3 7,1 -6,-39 -13,-81 -23,-101l1 19z"/>
   </g>
   

   <g id="Contreforts" onclick="parent.replacechar('Contreforts')" onmousemove="parent.showtooltip('Contreforts','Contreforts Roots')" onmouseout="parent.hidetooltip('Fasciculees')" cursor="pointer" >
   
    <path fill="#625F5E" stroke="#625F5E" stroke-linejoin="bevel" d="M967 1946l871 0 -871 0z"/>
    <path fill="#63A342" stroke="#625F5E" stroke-linejoin="bevel" d="M1845 1463c-12,81 -125,170 -213,77 -71,-47 -123,-11 -177,15 -73,44 -43,80 -144,-5 -114,-38 -149,9 -173,34 -57,28 -140,-4 -162,-58 15,-26 34,-27 46,-31 -12,-14 -17,-15 -20,-33l843 1z"/>
    <path fill="#F1D145" stroke="#A8A8A7" stroke-linejoin="bevel" d="M1348 1946l49 0c3,-257 -11,-230 1,-327 42,-62 86,-74 150,-96 92,14 156,24 209,-36 -28,21 -90,55 -194,24 40,-24 27,-16 76,-49l-28 0c-78,75 -156,63 -213,110 -3,-53 -6,-22 -3,-110l-26 0 -3 101c5,2 7,3 11,6 -27,-19 -88,-28 -132,-50 -44,-23 -65,-25 -107,-57l-27 0c43,27 87,43 117,67 -65,9 -94,30 -155,28 -19,0 -31,-12 -43,-14 11,22 43,25 73,24 44,-5 80,-29 147,-22 39,7 101,30 114,75 -5,111 -9,195 -16,326z"/>
    <path fill="#EE9719" stroke="#1F1A17" stroke-linejoin="bevel" d="M1396 1810c165,133 239,42 241,151 1,-2 -66,-20 -100,1 -35,-82 -91,-4 -139,-16l-2 -136z"/>
    <path fill="#EE9719" stroke="#1F1A17" stroke-linejoin="bevel" d="M1379 1837c-74,136 -140,82 -132,169 44,-6 58,7 66,-1 7,-102 53,-22 75,-71l-9 -97z"/>
    <path fill="#EE9719" stroke="#1F1A17" stroke-linejoin="bevel" d="M1357 1784c-40,97 -201,127 -200,166 28,-11 90,2 92,-1 16,-56 43,-58 103,-70l5 -95z"/>
   </g>
   
    <g id="Aeriennes" onclick="parent.replacechar('Aeriennes')" onmousemove="parent.showtooltip('Aeriennes','Aerial Roots')" onmouseout="parent.hidetooltip('Aeriennes')" cursor="pointer" >
   
    <path fill="#EE9719" stroke="#1F1A17" stroke-linejoin="bevel" d="M2637 1464c43,47 52,142 68,210 112,27 117,202 115,271 -12,-103 -14,-223 -113,-262 3,25 8,79 11,88 36,11 66,62 66,173 -6,-66 -16,-157 -67,-165 1,59 3,71 0,163 -7,-121 -7,-172 -18,-245 -29,13 -36,129 -27,245 -25,-136 0,-234 26,-257 -17,-93 -32,-165 -74,-219l13 -2z"/>
    <path fill="#EE9719" stroke="#1F1A17" stroke-linejoin="bevel" d="M2573 1472c40,69 55,136 66,286 74,22 53,137 55,188 -9,-81 4,-160 -54,-180 7,40 9,64 6,179 -11,-107 -2,-86 -10,-159 -49,4 -36,119 -44,160 -2,-50 -11,-158 42,-166 -11,-162 -36,-256 -71,-300l10 -8z"/>
    <path fill="#EE9719" stroke="#1F1A17" stroke-linejoin="bevel" d="M2493 1507c16,81 23,122 30,193 56,4 58,194 50,244 -1,-125 -13,-232 -50,-238 5,53 16,155 5,236 -5,-55 -2,-123 -6,-159 -29,31 -23,73 -27,156 -10,-104 9,-157 25,-164 -1,-18 -3,-59 -8,-82 -36,23 -41,148 -45,251 -11,-103 8,-254 45,-258 -8,-58 -15,-117 -32,-175l13 -4z"/>
    <path fill="#EE9719" stroke="#1F1A17" stroke-linejoin="bevel" d="M2156 1526c-66,119 -102,252 -99,298 -22,13 -50,74 -39,130 2,-34 10,-101 39,-119 2,48 -5,115 4,119 0,-41 0,-91 5,-139 39,23 28,98 34,139 6,-88 -6,-126 -32,-147 16,-115 51,-178 99,-277l-11 -4z"/>
    <path fill="#EE9719" stroke="#1F1A17" stroke-linejoin="bevel" d="M2203 1547c-28,32 -42,76 -49,134 -65,38 -93,268 -77,272 -8,-88 54,-262 76,-258 -16,71 -11,90 -17,141 -29,9 -33,81 -28,116 5,-26 -3,-79 29,-108 3,46 -6,76 2,112 2,3 -1,-106 14,-196 48,22 29,113 35,193 7,-94 12,-183 -33,-198 0,-25 3,-49 10,-61 64,57 55,180 71,260 -4,-137 -28,-252 -70,-266 13,-63 20,-99 48,-136l-11 -5z"/>
    <path fill="#63A342" stroke="#625F5E" stroke-linejoin="bevel" d="M2782 1462c-12,81 -125,170 -214,77 -70,-47 -122,-11 -177,16 -72,43 -42,80 -143,-5 -114,-39 -149,9 -173,34 -57,28 -140,-4 -162,-59 15,-26 34,-27 46,-30 -12,-15 -17,-15 -21,-33l844 0z"/>
    <path fill="#F1D145" stroke="#A8A8A7" stroke-linejoin="bevel" d="M2285 1945l49 0c2,-256 -11,-229 1,-326 42,-64 86,-74 150,-96 93,13 156,24 209,-36 -27,21 -91,54 -195,24 41,-25 28,-17 77,-49l-29 0c-77,74 -155,61 -212,110 -3,-53 -6,-22 -3,-110l-26 0 -3 100c4,2 6,3 10,7 -25,-21 -87,-28 -132,-50 -44,-23 -64,-26 -106,-57l-27 0c43,27 87,43 117,66 -65,9 -94,30 -155,29 -19,-1 -31,-13 -43,-15 11,22 43,25 73,24 45,-4 80,-29 147,-21 39,6 101,30 114,75 -4,111 -9,195 -16,325z"/>
    <path fill="#625F5E" stroke="#625F5E" stroke-linejoin="bevel" d="M1921 1945l900 0 -900 0z"/>
    <path fill="#EE9719" stroke="#1F1A17" stroke-linejoin="bevel" d="M1981 1553c-17,13 -23,26 -28,49 11,-10 13,-37 31,-41 6,-2 12,3 14,11 -10,15 -30,32 -29,75 11,-39 24,-63 43,-81l-31 -13z"/>
    <path fill="#EE9719" stroke="#1F1A17" stroke-linejoin="bevel" d="M2080 1477c-23,62 -43,126 -62,247 -35,28 -70,120 -63,221 6,-73 15,-173 62,-213 -5,43 -13,62 -13,101 -22,-5 -41,55 -38,112 5,-42 12,-97 37,-108 -4,37 -6,60 -1,108 5,-15 5,-152 17,-183 30,12 21,106 26,183 9,-81 3,-188 -24,-190 17,-101 31,-162 68,-268l-9 -10z"/>
    <path fill="#EE9719" stroke="#1F1A17" stroke-linejoin="bevel" d="M2680 1499c16,18 31,47 34,118 -10,-42 -24,-102 -42,-109l8 -9z"/>
    <path fill="#EE9719" stroke="#1F1A17" stroke-linejoin="bevel" d="M2333 1765c31,30 31,59 36,87 39,1 38,77 33,97 -1,-50 -9,-90 -33,-93 4,22 11,60 4,92 -4,-22 -3,-47 -5,-61 -18,12 -15,27 -17,60 -7,-41 5,-62 17,-65 -1,-7 -3,-23 -6,-33 -24,10 -27,59 -30,100 -7,-41 5,-103 29,-105 -5,-23 -11,-57 -28,-61l0 -18z"/>
    <path fill="#EE9719" stroke="#1F1A17" stroke-linejoin="bevel" d="M2302 1763c-32,30 -32,59 -36,87 -41,2 -46,75 -41,95 1,-49 17,-88 41,-90 -4,21 -11,60 -4,92 4,-23 2,-48 5,-62 18,12 15,27 17,60 7,-41 -5,-62 -17,-65 1,-7 3,-23 6,-32 24,9 27,58 30,99 7,-41 -5,-103 -29,-105 5,-23 11,-56 28,-61l0 -18z"/>
   </g>
  </g>
 </g>
</svg>
