<?xml version="1.0" encoding="iso-8859-1"?>
<!DOCTYPE svg PUBLIC "-//W3C//DTD SVG 1.0//EN" "http://www.w3.org/TR/2001/REC-SVG-20010904/DTD/svg10.dtd">
<!-- Creator: CorelDRAW -->
<svg xmlns="http://www.w3.org/2000/svg" xml:space="preserve" shape-rendering="geometricPrecision" text-rendering="geometricPrecision" image-rendering="optimizeQuality" fill-rule="evenodd" clip-rule="evenodd"
 viewBox="0 0 2836 2126"
 xmlns:xlink="http://www.w3.org/1999/xlink">
 <g id="Sommet">
  <g id="List-sommet">
   <path fill="#FFFFFF" d="M0 0l2836 0 0 2126 -2836 0 0 -2126z"/>
   <g id="Smt_Spiny"  onclick="parent.replacechar('Smt_Spiny')" onmousemove="parent.showtooltip('Smt_Spiny','Spiny apex')"  onmouseout="parent.hidetooltip('Smt_Spiny')" cursor="pointer" >
    <path fill="#009341" stroke="#221D1A" stroke-linejoin="bevel" d="M2500 1782c-2,-53 -31,-75 2,-109 -45,-4 -50,-86 -19,-152 -47,38 -82,11 -86,-2 -5,-13 -36,-58 -37,-73 -1,16 -28,65 -32,77 -5,13 -32,64 -83,28 45,127 13,125 -8,134 10,21 -7,54 -9,97 -1,0 -2,0 272,0z"/>
    <path fill="#009341" stroke="#221D1A" stroke-linejoin="bevel" d="M2365 1520l2 262 -2 -262z"/>
    <path fill="none" stroke="#221D1A" stroke-linejoin="bevel" d="M2457 1552c-9,48 -54,185 -86,199"/>
    <path fill="none" stroke="#221D1A" stroke-linejoin="bevel" d="M2269 1581c8,26 67,94 95,106"/>
    <path fill="none" stroke="#221D1A" stroke-linejoin="bevel" d="M2272 1747c7,11 9,24 22,31"/>
    <path fill="none" stroke="#221D1A" stroke-linejoin="bevel" d="M2228 1782c-2,58 47,160 108,210 24,32 10,63 6,104 10,6 17,5 26,5 17,-51 6,-68 29,-107 20,-35 103,-126 103,-211"/>
   </g>
   <g id="Smt_Pointed"  onclick="parent.replacechar('Smt_Pointed')" onmousemove="parent.showtooltip('Smt_Pointed','Pointed apex')"  onmouseout="parent.hidetooltip('Smt_Pointed')" cursor="pointer" >
    <path fill="#009341" stroke="#221D1A" stroke-linejoin="bevel" d="M1355 1791c0,-107 3,-135 52,-315 57,183 63,223 63,315 -51,0 -50,0 -115,0z"/>
    <path fill="#009341" stroke="#221D1A" stroke-linejoin="bevel" d="M1407 1487l5 303 -5 -303z"/>
    <path fill="none" stroke="#221D1A" stroke-linejoin="bevel" d="M1437 1603c4,50 -9,105 -25,153"/>
    <path fill="none" stroke="#221D1A" stroke-linejoin="bevel" d="M1371 1663c-2,50 15,88 29,126"/>
    <path fill="none" stroke="#221D1A" stroke-linejoin="bevel" d="M1455 1725c1,21 -1,42 -10,65"/>
    <path fill="none" stroke="#221D1A" stroke-linejoin="bevel" d="M1355 1792c-5,53 -4,134 44,209 8,32 12,57 8,96 9,5 16,4 25,4 -1,-67 -13,-69 7,-104 19,-33 33,-127 31,-206"/>
   </g>
   <g id="Smt_Acuminate"  onclick="parent.replacechar('Smt_Acuminate')" onmousemove="parent.showtooltip('Smt_Acuminate','Acuminate apex')"  onmouseout="parent.hidetooltip('Smt_Acuminate')" cursor="pointer" >
    <path fill="#009341" stroke="#221D1A" stroke-linejoin="bevel" d="M613 1786c-1,-52 -20,-88 -23,-97 -15,-43 -67,-82 -71,-88 -11,-4 -27,-44 -32,-57 -4,-12 -16,-74 -18,-89 0,16 -10,77 -14,89 -5,12 -21,50 -33,61 -6,9 -56,49 -68,90 -4,8 -19,49 -21,91 -1,1 -3,0 280,0z"/>
    <path fill="#009341" stroke="#221D1A" stroke-linejoin="bevel" d="M470 1536l1 239 -1 -239z"/>
    <path fill="none" stroke="#221D1A" stroke-linejoin="bevel" d="M534 1645c-8,43 -28,89 -59,101"/>
    <path fill="none" stroke="#221D1A" stroke-linejoin="bevel" d="M421 1639c8,24 21,39 47,50"/>
    <path fill="none" stroke="#221D1A" stroke-linejoin="bevel" d="M381 1743c6,9 8,22 20,29"/>
    <path fill="none" stroke="#221D1A" stroke-linejoin="bevel" d="M333 1787c-2,57 49,157 111,207 26,31 12,62 7,102 10,6 18,5 27,5 17,-50 6,-67 29,-105 22,-35 106,-126 106,-209"/>
   </g>
   <g id="Smt_Apiculate"  onclick="parent.replacechar('Smt_Apiculate')" onmousemove="parent.showtooltip('Smt_Apiculate','Apiculate apex')"  onmouseout="parent.hidetooltip('Smt_Apiculate')" cursor="pointer" >
    <path fill="#009341" stroke="#221D1A" stroke-linejoin="bevel" d="M2224 1064l280 0c-9,-64 -1,-127 -12,-178 -13,-51 -33,-60 -58,-86 -14,-11 -37,-19 -56,-29l-9 -11 -9 -26c-2,8 -2,20 -6,26 -1,7 -8,9 -15,14 -27,16 -63,43 -72,57 -9,13 -24,38 -31,54 -6,16 -5,27 -8,42l-4 137z"/>
    <path fill="#009341" stroke="#221D1A" stroke-linejoin="bevel" d="M2359 773l1 266 -1 -266z"/>
    <path fill="none" stroke="#221D1A" stroke-linejoin="bevel" d="M2289 833c13,36 40,63 70,72"/>
    <path fill="none" stroke="#221D1A" stroke-linejoin="bevel" d="M2438 886c-11,52 -38,106 -77,124"/>
    <path fill="none" stroke="#221D1A" stroke-linejoin="bevel" d="M2254 984c17,31 42,53 67,66"/>
    <path fill="none" stroke="#221D1A" stroke-linejoin="bevel" d="M2225 1065c-3,60 48,165 111,217 25,33 11,65 6,108 10,6 18,5 28,5 16,-53 6,-71 29,-111 19,-33 105,-130 105,-219"/>
   </g>
   <g id="Smt_Mucronate"  onclick="parent.replacechar('Smt_Mucronate')" onmousemove="parent.showtooltip('Smt_Mucronate','Mucronate apex')"  onmouseout="parent.hidetooltip('Smt_Mucronate')" cursor="pointer" >
    <path fill="#009341" stroke="#221D1A" stroke-linejoin="bevel" d="M1273 1052l286 0c-2,-56 -23,-200 -45,-213 -7,-10 -34,-59 -94,-60l-5 -22 -2 22c-6,1 -81,21 -95,57 -34,28 -45,216 -45,216z"/>
    <path fill="#009341" stroke="#221D1A" stroke-linejoin="bevel" d="M1420 786l-2 255 2 -255z"/>
    <path fill="none" stroke="#221D1A" stroke-linejoin="bevel" d="M1348 838c14,37 37,71 74,83"/>
    <path fill="none" stroke="#221D1A" stroke-linejoin="bevel" d="M1511 915c-18,43 -49,79 -89,97"/>
    <path fill="none" stroke="#221D1A" stroke-linejoin="bevel" d="M1306 981c11,32 30,49 52,68"/>
    <path fill="none" stroke="#221D1A" stroke-linejoin="bevel" d="M1274 1053c-3,62 49,171 112,225 25,34 11,68 6,112 11,6 18,5 28,5 17,-54 6,-73 29,-114 21,-39 110,-137 109,-228"/>
   </g>
   <g id="Smt_Acute"  onclick="parent.replacechar('Smt_Acute')" onmousemove="parent.showtooltip('Smt_Acute','Acute apex')"  onmouseout="parent.hidetooltip('Smt_Acute')" cursor="pointer" >
    <path fill="#009341" stroke="#221D1A" stroke-linejoin="bevel" d="M333 1060l287 0 -8 -162 -12 -24 -67 -68 -51 -31 -56 28 -55 41c-10,18 -24,17 -31,52 -6,36 -5,109 -7,164z"/>
    <path fill="#009341" stroke="#221D1A" stroke-linejoin="bevel" d="M484 802l2 253 -2 -253z"/>
    <path fill="none" stroke="#221D1A" stroke-linejoin="bevel" d="M423 858c6,30 23,72 59,84"/>
    <path fill="none" stroke="#221D1A" stroke-linejoin="bevel" d="M558 905c-11,47 -38,90 -72,122"/>
    <path fill="none" stroke="#221D1A" stroke-linejoin="bevel" d="M377 1002c6,20 24,44 44,57"/>
    <path fill="none" stroke="#221D1A" stroke-linejoin="bevel" d="M333 1060c-3,60 49,168 112,220 26,33 11,65 7,108 10,6 18,5 27,5 17,-52 6,-70 29,-111 22,-36 113,-134 112,-222"/>
   </g>
   <g id="Smt_Obtuse"  onclick="parent.replacechar('Smt_Obtuse')" onmousemove="parent.showtooltip('Smt_Obtuse','Obtuse apex')"  onmouseout="parent.hidetooltip('Smt_Obtuse')" cursor="pointer" >
    <path fill="#009341" stroke="#221D1A" stroke-linejoin="bevel" d="M2227 341l275 0c0,0 0,-30 -1,-40 0,-25 -29,-136 -41,-149 -6,-21 -76,-96 -87,-101 -13,6 -76,60 -83,80 -8,11 -46,62 -55,130 -2,10 -9,79 -8,80z"/>
    <path fill="#009341" stroke="#221D1A" stroke-linejoin="bevel" d="M2376 68l-7 268 7 -268z"/>
    <path fill="none" stroke="#221D1A" stroke-linejoin="bevel" d="M2320 152c5,19 26,47 52,57"/>
    <path fill="none" stroke="#221D1A" stroke-linejoin="bevel" d="M2451 209c-6,47 -47,89 -79,96"/>
    <path fill="none" stroke="#221D1A" stroke-linejoin="bevel" d="M2270 298c8,21 18,34 33,41"/>
    <path fill="none" stroke="#221D1A" stroke-linejoin="bevel" d="M2227 342c-3,59 48,165 111,217 26,33 11,65 7,108 10,6 18,5 27,5 17,-53 6,-70 29,-111 22,-36 101,-131 101,-219"/>
   </g>
   <g id="Smt_Rounded"  onclick="parent.replacechar('Smt_Rounded')" onmousemove="parent.showtooltip('Smt_Rounded','Rounded apex')"  onmouseout="parent.hidetooltip('Smt_Rounded')" cursor="pointer" >
    <path fill="#009341" stroke="#221D1A" stroke-linejoin="bevel" d="M1275 341l283 0c0,-44 -8,-201 -11,-214 -4,-60 -117,-87 -136,-81 -32,-6 -80,19 -92,31 -8,8 -37,52 -39,84 -4,20 -5,110 -5,180z"/>
    <path fill="#009341" stroke="#221D1A" stroke-linejoin="bevel" d="M1414 69l3 270 -3 -270z"/>
    <path fill="none" stroke="#221D1A" stroke-linejoin="bevel" d="M1342 99c8,39 32,70 72,93"/>
    <path fill="none" stroke="#221D1A" stroke-linejoin="bevel" d="M1500 154c-11,47 -47,103 -83,128"/>
    <path fill="none" stroke="#221D1A" stroke-linejoin="bevel" d="M1313 276c11,21 17,47 43,63"/>
    <path fill="none" stroke="#221D1A" stroke-linejoin="bevel" d="M1275 342c-3,59 49,165 112,217 25,33 11,65 6,108 10,6 18,5 28,5 17,-53 5,-71 29,-111 22,-37 108,-132 108,-219"/>
   </g>
   <g id="Smt_Emarginate"  onclick="parent.replacechar('Smt_Emarginate')" onmousemove="parent.showtooltip('Smt_Emarginate','Emarginate apex')"  onmouseout="parent.hidetooltip('Smt_Emarginate')" cursor="pointer" >
    <path fill="#009341" stroke="#221D1A" stroke-linejoin="bevel" d="M327 341l286 0c-3,-65 -19,-186 -24,-202 -6,-53 -41,-78 -57,-79 -8,-3 -49,3 -60,27 -8,-11 -45,-33 -70,-27 -20,2 -37,35 -41,42 -8,10 -30,142 -32,239 -5,0 3,0 -2,0z"/>
    <path fill="#009341" stroke="#221D1A" stroke-linejoin="bevel" d="M476 94l-2 243 2 -243z"/>
    <path fill="none" stroke="#221D1A" stroke-linejoin="bevel" d="M413 108c4,54 24,85 60,109"/>
    <path fill="none" stroke="#221D1A" stroke-linejoin="bevel" d="M564 162c-6,47 -51,113 -85,125"/>
    <path fill="none" stroke="#221D1A" stroke-linejoin="bevel" d="M371 275c-1,29 9,37 25,62"/>
    <path fill="none" stroke="#221D1A" stroke-linejoin="bevel" d="M329 342c-2,59 49,165 112,217 25,33 11,65 6,108 11,6 18,5 28,5 17,-53 6,-71 29,-111 22,-37 109,-131 109,-219"/>
   </g>
  </g>
 </g>
</svg>
