<?xml version="1.0" encoding="iso-8859-1"?>
<!DOCTYPE svg PUBLIC "-//W3C//DTD SVG 1.0//EN" "http://www.w3.org/TR/2001/REC-SVG-20010904/DTD/svg10.dtd">
<!-- Creator: CorelDRAW -->
<svg xmlns="http://www.w3.org/2000/svg" xml:space="preserve" shape-rendering="geometricPrecision" text-rendering="geometricPrecision" image-rendering="optimizeQuality" fill-rule="evenodd" clip-rule="evenodd"
 viewBox="0 0 2836 2126"
 xmlns:xlink="http://www.w3.org/1999/xlink">
 <g id="Fruit">
  <g>
   <path fill="#FFFFFF" d="M0 0l2836 0 0 2126 -2836 0 0 -2126z"/>
   
   <g id="Fr_utri"  onclick="parent.replacechar('Fr_utri')" onmousemove="parent.showtooltip('Fr_utri','Utricle')"  onmouseout="parent.hidetooltip('Fr_utri')" cursor="pointer" >
    <defs>
     <linearGradient id="id0" gradientUnits="userSpaceOnUse" x1="2680" y1="1762" x2="2440" y2="1762">
      <stop offset="0" stop-color="#B26A34"/>
      <stop offset="1" stop-color="#E3A48A"/>
     </linearGradient>
    </defs>
    <path fill="url(#id0)" stroke="#221D1A" stroke-linejoin="bevel" d="M2522 1869c-42,1 -82,-47 -82,-103 0,-56 48,-99 84,-99 36,0 147,-31 156,100 -9,122 -122,102 -158,102z"/>
    <path fill="none" stroke="#221D1A" stroke-linejoin="bevel" d="M2558 1686c-5,7 -8,10 -11,14"/>
    <path fill="none" stroke="#221D1A" stroke-linejoin="bevel" d="M2580 1679c-7,2 -12,2 -19,4"/>
    <path fill="none" stroke="#221D1A" stroke-linejoin="bevel" d="M2558 1682c-7,-4 -11,-4 -18,-9"/>
    <path fill="#839561" stroke="#221D1A" stroke-linejoin="bevel" d="M2494 1863c-36,3 -31,18 -47,37 -13,15 -6,31 -17,47 -7,11 -20,14 -24,22 38,-7 43,10 65,2 78,-23 48,-87 57,-99 -8,34 16,77 37,93 18,13 33,10 54,19 4,2 7,7 11,5 5,-10 12,-33 10,-53 -9,-42 -19,-60 -21,-67 5,39 59,91 111,82 -8,-10 -10,-11 -16,-19 -11,-16 -10,-35 -24,-48 -16,-16 -15,-30 -49,-31 -58,29 -125,13 -147,10z"/>
    <path fill="none" stroke="#221D1A" stroke-linejoin="bevel" d="M2525 1690c-74,75 -39,116 -4,159"/>
    <path fill="none" stroke="#221D1A" stroke-linejoin="bevel" d="M2590 1695c74,51 55,124 5,155"/>
    <path fill="none" stroke="#221D1A" stroke-linejoin="bevel" d="M2522 1870c-5,69 -51,92 -92,97"/>
    <path fill="none" stroke="#221D1A" stroke-linejoin="bevel" d="M2528 1874c1,80 78,70 98,113"/>
    <path fill="none" stroke="#221D1A" stroke-linejoin="bevel" d="M2626 1884c15,44 58,19 99,66"/>
    <path fill="none" stroke="#221D1A" stroke-linejoin="bevel" d="M2564 1697c-25,72 -2,95 -3,156"/>
   </g>
   
   <g id="Fr_cary"  onclick="parent.replacechar('Fr_cary')" onmousemove="parent.showtooltip('Fr_cary','Caryopsis')"  onmouseout="parent.hidetooltip('Fr_cary')" cursor="pointer" >
    <defs>
     <linearGradient id="id1" gradientUnits="userSpaceOnUse" x1="1849" y1="1750" x2="2105" y2="1878">
      <stop offset="0" stop-color="#E2B721"/>
      <stop offset="1" stop-color="#FFFB9C"/>
     </linearGradient>
    </defs>
    <path fill="url(#id1)" stroke="#221D1A" stroke-linejoin="bevel" d="M2003 1683c-49,21 -76,49 -93,100 -24,79 -23,127 15,149 10,11 24,13 39,8 52,-13 78,-52 91,-105 13,-58 1,-104 -39,-149l-13 -3z"/>
    <path fill="none" stroke="#221D1A" stroke-linejoin="bevel" d="M2008 1685c-56,96 -58,147 -65,236"/>
    <path fill="#D5843C" stroke="#221D1A" stroke-linejoin="bevel" d="M1949 1943c-13,0 -23,-7 -23,-12 0,-5 10,-6 23,-6 13,0 23,4 23,9 0,5 -10,9 -23,9z"/>
   </g>
   
   <g id="Fr_nut"  onclick="parent.replacechar('Fr_nut')" onmousemove="parent.showtooltip('Fr_nut','Nut')"  onmouseout="parent.hidetooltip('Fr_nut')" cursor="pointer" >
    <defs>
     <linearGradient id="id2" gradientUnits="userSpaceOnUse" x1="1460" y1="1959" x2="1417" y2="1673">
      <stop offset="0" stop-color="#B67126"/>
      <stop offset="1" stop-color="#FFFFFF"/>
     </linearGradient>
    </defs>
    <path fill="url(#id2)" stroke="#221D1A" stroke-linejoin="bevel" d="M1433 1687c-3,7 -4,10 -8,16 -71,19 -96,76 -94,142 5,49 30,81 74,97 12,0 18,-6 30,-6 13,-1 18,9 29,6 10,-3 17,-12 24,-18 58,-18 59,-74 48,-125 -15,-44 -44,-85 -96,-98l-7 -14z"/>
    <path fill="#F4BA7F" stroke="#221D1A" stroke-linejoin="bevel" d="M1403 1939c-17,1 -11,-12 -8,-20 3,-7 10,-7 18,-7 10,-1 15,4 25,5 7,1 12,3 19,2 8,-2 11,-11 19,-10 6,1 26,8 12,14 -14,6 -7,31 -52,11 -17,7 -33,9 -33,5z"/>
    <path fill="none" stroke="#221D1A" stroke-linejoin="bevel" d="M1421 1712c-136,87 -51,194 -32,209"/>
    <path fill="none" stroke="#221D1A" stroke-linejoin="bevel" d="M1429 1735c-108,86 -45,160 -26,175"/>
    <path fill="none" stroke="#221D1A" stroke-linejoin="bevel" d="M1441 1708c135,88 72,192 53,206"/>
    <path fill="none" stroke="#221D1A" stroke-linejoin="bevel" d="M1439 1735c135,89 31,166 12,180"/>
    <path fill="none" stroke="#221D1A" stroke-linejoin="bevel" d="M1411 1904c-11,-33 -25,-48 -21,-86"/>
    <path fill="none" stroke="#221D1A" stroke-linejoin="bevel" d="M1431 1908c-1,-24 -1,-37 -1,-60"/>
    <path fill="none" stroke="#221D1A" stroke-linejoin="bevel" d="M1445 1904c12,-35 42,-49 32,-89"/>
   </g>
   
   <g id="Fr_capcr"  onclick="parent.replacechar('Fr_capcr')" onmousemove="parent.showtooltip('Fr_capcr','Capsule with crest')"  onmouseout="parent.hidetooltip('Fr_capcr')" cursor="pointer" >
    <path fill="#E1B766" stroke="#221D1A" stroke-linejoin="bevel" d="M1085 1631c-75,-19 -112,-26 -166,10 -45,35 -41,76 -58,116 -11,14 -23,19 -34,33 0,18 4,13 9,18 12,-13 19,-26 27,-23 4,10 4,20 -2,31 -14,10 -31,13 -42,26 -3,9 7,14 12,16 9,-6 21,-27 32,-19 13,14 -4,41 -7,63 9,6 26,8 32,0 1,-30 -10,-47 1,-59 14,-7 19,23 35,23 15,0 18,-17 14,-21 -28,-18 -40,-19 -48,-44 -2,-39 -3,-66 7,-97 24,-57 63,-67 91,-67 41,-4 63,1 98,16l-1 -22z"/>
    <path fill="#EC8F2C" stroke="#221D1A" stroke-linejoin="bevel" d="M826 1789c-34,-27 -64,-35 -107,-28 -44,14 -80,27 -100,47 -6,18 -22,22 -24,36 2,9 20,5 27,9 18,12 42,17 69,16 60,-3 130,-32 145,-61 -12,-9 -8,-12 -10,-19z"/>
    <path fill="#EC8F2C" stroke="#221D1A" stroke-linejoin="bevel" d="M819 1841c-27,-7 -89,4 -130,37 -82,54 -36,66 -46,92 -6,10 -21,14 -15,23 13,8 24,-4 40,-5 29,-2 46,9 74,0 29,-10 35,-29 63,-48 19,-28 26,-47 27,-81 -4,-6 -18,-5 -13,-18z"/>
    <path fill="#EC8F2C" stroke="#221D1A" stroke-linejoin="bevel" d="M853 1902c-24,6 -60,41 -61,80 -2,41 20,88 58,99 6,6 9,26 19,26 8,0 14,-31 21,-37 24,-19 43,-28 57,-55 -2,-29 8,-24 -1,-61 -17,-23 -33,-51 -56,-55 -22,16 -20,4 -37,3z"/>
    <path fill="#EC8F2C" stroke="#221D1A" stroke-linejoin="bevel" d="M922 1866c-2,21 -11,53 52,74 31,68 70,38 100,38 14,4 24,17 35,8 1,-31 5,-43 1,-66 -13,-35 -30,-55 -64,-71 -38,-18 -85,-15 -108,-5 1,26 -10,21 -16,22z"/>
    <path fill="none" stroke="#221D1A" stroke-linejoin="bevel" d="M952 1856c101,16 90,68 147,112"/>
    <path fill="none" stroke="#221D1A" stroke-linejoin="bevel" d="M812 1872c-53,100 -92,68 -153,99"/>
    <path fill="none" stroke="#221D1A" stroke-linejoin="bevel" d="M893 1908c77,86 34,121 -5,165"/>
    <path fill="none" stroke="#221D1A" stroke-linejoin="bevel" d="M823 1797c-114,-54 -128,24 -209,38"/>
   </g>
   
   <g id="Fr_capli"  onclick="parent.replacechar('Fr_capli')" onmousemove="parent.showtooltip('Fr_capli','Linear capsule')"  onmouseout="parent.hidetooltip('Fr_capli')" cursor="pointer" >
    <path fill="#FFFA89" stroke="#221D1A" stroke-linejoin="bevel" d="M285 1516c-14,201 -8,622 3,589 9,-32 0,-313 10,-500l-13 -89z"/>
    <path fill="#B67128" stroke="#221D1A" stroke-linejoin="bevel" d="M279 1483c1,11 1,17 0,28 -26,23 -14,46 -13,62 1,16 -14,34 1,72 -1,30 -13,55 -2,74 -2,22 -12,28 -11,56 -6,20 -16,28 -20,49 -13,19 -21,13 -41,40 -17,12 -72,20 -85,13 -13,-7 -16,-11 -23,-25 -2,-20 2,-43 -19,-54 -14,112 57,101 93,102 61,-5 97,-57 124,-119 18,-92 -9,-238 4,-257 13,73 -30,264 83,261 75,1 103,-21 118,-72 11,-38 -25,-93 -46,-86 -7,10 28,37 31,49 3,12 3,19 0,31 -4,15 -25,47 -54,49 -20,5 -32,9 -53,3 -56,-15 -51,-107 -53,-135 -1,-24 7,-94 -17,-117 -1,-5 2,-20 0,-23 -5,-6 -11,-1 -17,-1z"/>
    <path fill="#221D1A" stroke="#221D1A" stroke-linejoin="bevel" d="M269 2093c-6,0 -22,-9 -22,-14 0,-6 15,-13 21,-13 6,0 16,4 13,13 3,14 -6,14 -12,14z"/>
    <path fill="#221D1A" stroke="#221D1A" stroke-linejoin="bevel" d="M267 2027c-6,0 -21,-9 -21,-15 0,-5 14,-12 20,-12 7,0 16,3 14,13 3,13 -6,14 -13,14z"/>
    <path fill="#221D1A" stroke="#221D1A" stroke-linejoin="bevel" d="M269 1945c-6,0 -22,-8 -22,-15 0,-5 15,-12 21,-12 6,0 15,4 13,13 4,13 -6,14 -12,14z"/>
    <path fill="#221D1A" stroke="#221D1A" stroke-linejoin="bevel" d="M272 1862c-6,0 -21,-9 -21,-13 0,-6 14,-14 20,-14 6,0 16,4 13,14 3,13 -6,13 -12,13z"/>
    <path fill="#221D1A" stroke="#221D1A" stroke-linejoin="bevel" d="M309 1810c6,0 21,-8 21,-14 0,-6 -14,-13 -20,-13 -6,0 -15,4 -13,13 -3,13 6,14 12,14z"/>
    <path fill="#221D1A" stroke="#221D1A" stroke-linejoin="bevel" d="M307 1897c6,0 21,-9 21,-14 0,-6 -14,-13 -20,-13 -6,0 -16,4 -13,13 -3,13 5,14 12,14z"/>
    <path fill="#221D1A" stroke="#221D1A" stroke-linejoin="bevel" d="M305 1987c5,0 21,-9 21,-14 0,-7 -15,-14 -21,-14 -6,0 -15,5 -13,14 -3,13 6,14 13,14z"/>
    <path fill="#221D1A" stroke="#221D1A" stroke-linejoin="bevel" d="M303 2075c6,0 21,-9 21,-14 0,-6 -14,-13 -20,-13 -7,0 -16,3 -14,13 -2,13 7,14 13,14z"/>
   </g>
   
   <g id="Fr_ber"  onclick="parent.replacechar('Fr_ber')" onmousemove="parent.showtooltip('Fr_ber','Berry')"  onmouseout="parent.hidetooltip('Fr_ber')" cursor="pointer" >
    <path fill="#8F712E" stroke="#221D1A" stroke-linejoin="bevel" d="M2506 1237c-14,23 -56,54 -91,58 -35,4 -69,-2 -90,-13 -9,8 -7,25 1,35 22,5 44,-2 88,13 24,-19 46,-9 71,-26 9,13 30,-36 54,-58l-33 -9z"/>
    <path fill="#8D8850" stroke="#221D1A" stroke-linejoin="bevel" d="M2643 1220c-40,-21 -156,-28 -201,-15 52,44 135,59 201,15z"/>
    <path fill="#A8A35C" stroke="#221D1A" stroke-linejoin="bevel" d="M2698 1074l-296 -63c-1,-8 -13,-22 -20,-24 -2,19 18,93 4,112 -32,16 -54,-25 -71,-58 -10,-6 -35,-27 -25,-2 17,7 17,118 108,125 12,14 -12,28 -38,45 -24,11 -46,22 -39,32 3,7 11,-1 18,-3 115,3 66,-17 128,-31 16,2 26,8 37,20 65,-31 36,87 34,97 28,2 59,-41 73,-102 6,-7 20,0 22,-2 15,9 32,26 51,39 30,4 47,60 58,44 4,-3 5,-7 -1,-15 -1,-56 -28,-99 -48,-133 13,-13 39,-18 59,-35 12,-45 47,-72 62,-82 -42,-18 -64,13 -116,36z"/>
    <path fill="#A5B64C" stroke="#221D1A" stroke-linejoin="bevel" d="M2532 1209c-81,1 -150,-85 -150,-145 11,-101 103,-82 147,-82 45,0 172,0 171,107 0,60 -57,133 -168,120z"/>
    <path fill="#A5B74C" stroke="#221D1A" stroke-linejoin="bevel" d="M2596 1028c-35,14 -55,7 -84,-19 64,-29 31,-83 36,-140 4,-1 9,0 14,2 -4,46 42,121 34,157z"/>
   </g>
   
   <g id="Fr_capcir"  onclick="parent.replacechar('Fr_capcir')" onmousemove="parent.showtooltip('Fr_capcir','Circumscissile capsule')"  onmouseout="parent.hidetooltip('Fr_capcir')" cursor="pointer" >
    <path fill="#B2A71C" stroke="#221D1A" stroke-linejoin="bevel" d="M1873 1134c-35,68 48,173 125,179 85,-20 141,-102 113,-188l-238 9z"/>
    <path fill="#FFFA89" stroke="#221D1A" stroke-linejoin="bevel" d="M1995 1159c-66,0 -122,-20 -122,-29 0,-9 58,-26 123,-26 65,0 113,8 113,18 0,9 -49,37 -114,37z"/>
    <path fill="#B2A71C" stroke="#221D1A" stroke-linejoin="bevel" d="M1875 1088c8,-47 37,-56 65,-105 33,1 94,-14 133,21l-198 84z"/>
    <path fill="#C17B39" stroke="#221D1A" stroke-linejoin="bevel" d="M1997 1328c-2,-1 -1,-6 -3,-10 -9,-3 -26,-4 -32,-18 2,-6 5,10 34,7 10,-3 11,-12 24,-15 4,3 -10,10 -6,15 5,5 16,-10 19,-3 -15,12 -19,15 -23,16 -3,14 -11,9 -13,8z"/>
    <path fill="#FFFA89" stroke="#221D1A" stroke-linejoin="bevel" d="M1991 1083c-50,19 -109,34 -116,14 -7,-19 40,-56 90,-74 50,-18 103,-37 112,-12 9,25 -36,54 -86,72z"/>
    <path fill="#E7B78B" stroke="#221D1A" stroke-linejoin="bevel" d="M1973 1159c-8,-12 -4,-95 21,-98 26,5 35,74 28,96 -19,5 -32,8 -49,2z"/>
    <path fill="#8F5444" stroke="#221D1A" stroke-linejoin="bevel" d="M2029 1142c-12,-3 -20,-11 -18,-18 2,-7 13,-9 25,-5 12,3 21,11 19,18 -2,7 -13,9 -26,5z"/>
    <path fill="#8F5444" stroke="#221D1A" stroke-linejoin="bevel" d="M2026 1108c-10,-3 -17,-10 -15,-15 1,-6 10,-9 20,-7 10,3 17,9 15,16 -1,5 -10,8 -20,6z"/>
    <path fill="#8F5444" stroke="#221D1A" stroke-linejoin="bevel" d="M1978 1160c-9,0 -20,-6 -7,-11 8,-2 16,-2 18,3 1,4 -3,7 -11,8z"/>
    <path fill="#8F5444" stroke="#221D1A" stroke-linejoin="bevel" d="M1973 1138c-11,8 -23,10 -27,4 -5,-7 1,-18 12,-26 11,-8 23,-11 28,-4 4,6 -2,18 -13,26z"/>
    <path fill="#8F5444" stroke="#221D1A" stroke-linejoin="bevel" d="M1978 1071c-13,-5 -25,-4 -27,3 -3,7 6,17 19,22 13,5 25,5 27,-4 3,-7 -6,-16 -19,-21z"/>
   </g>
   
   <g id="Fr_cap"  onclick="parent.replacechar('Fr_cap')" onmousemove="parent.showtooltip('Fr_cap','Capsule')"  onmouseout="parent.hidetooltip('Fr_cap')" cursor="pointer" >
    <path fill="#E18520" stroke="#221D1A" stroke-linejoin="bevel" d="M1437 1215c-6,-16 43,-174 57,-201 4,-25 19,-27 31,-44 3,-42 17,-24 29,-39 5,-15 25,-32 31,-35 -7,22 22,63 2,89 -2,31 -52,224 -65,236 -14,12 -79,11 -85,-6z"/>
    <path fill="#F2AF6E" stroke="#221D1A" stroke-linejoin="bevel" d="M1578 911c-30,56 -44,89 -64,149 -15,70 -36,114 -36,158 57,-42 86,-190 92,-220 6,-31 8,-50 8,-87z"/>
    <path fill="#E18520" stroke="#221D1A" stroke-linejoin="bevel" d="M1416 1254c9,-17 -23,-200 -35,-233 -2,-28 -19,-32 -30,-54 3,-46 -15,-28 -26,-46 -3,-18 -25,-40 -30,-45 4,26 -34,68 -15,100 -1,35 127,296 136,278z"/>
    <path fill="#F2AF6E" stroke="#221D1A" stroke-linejoin="bevel" d="M1301 894c30,65 43,103 60,172 11,80 32,130 28,180 -60,-51 -82,-220 -86,-255 -4,-35 -5,-56 -2,-97z"/>
    <path fill="#E18520" stroke="#221D1A" stroke-linejoin="bevel" d="M1385 1258c-12,-15 -7,-202 -1,-236 -3,-28 13,-35 20,-57 -10,-46 12,-31 19,-50 1,-19 18,-43 23,-49 0,26 44,62 31,97 6,34 13,259 2,276 -11,17 -82,35 -94,19z"/>
    <path fill="#221D1A" stroke="#221D1A" stroke-linejoin="bevel" d="M1491 1182c-7,0 -13,-6 -13,-14 0,-7 6,-13 13,-13 7,0 12,6 12,13 0,8 -5,14 -12,14z"/>
    <path fill="#221D1A" stroke="#221D1A" stroke-linejoin="bevel" d="M1506 1141c-7,0 -13,-6 -13,-13 0,-8 6,-14 13,-14 7,0 12,6 12,14 0,7 -5,13 -12,13z"/>
    <path fill="#221D1A" stroke="#221D1A" stroke-linejoin="bevel" d="M1523 1107c-7,0 -12,-6 -12,-14 0,-7 5,-13 12,-13 7,0 13,6 13,13 0,8 -6,14 -13,14z"/>
    <path fill="#221D1A" stroke="#221D1A" stroke-linejoin="bevel" d="M1536 1072c-7,0 -13,-6 -13,-13 0,-8 6,-14 13,-14 7,0 12,6 12,14 0,7 -5,13 -12,13z"/>
    <path fill="#221D1A" stroke="#221D1A" stroke-linejoin="bevel" d="M1545 1036c-7,0 -13,-6 -13,-13 0,-8 6,-14 13,-14 7,0 12,6 12,14 0,7 -5,13 -12,13z"/>
    <path fill="#221D1A" stroke="#221D1A" stroke-linejoin="bevel" d="M1553 1000c-7,0 -12,-6 -12,-13 0,-7 5,-13 12,-13 7,0 13,6 13,13 0,7 -6,13 -13,13z"/>
    <path fill="#221D1A" stroke="#221D1A" stroke-linejoin="bevel" d="M1571 963c-7,0 -12,-6 -12,-14 0,-7 5,-13 12,-13 7,0 12,6 12,13 0,8 -5,14 -12,14z"/>
    <path fill="#221D1A" stroke="#221D1A" stroke-linejoin="bevel" d="M1342 1129c-7,0 -13,-6 -13,-14 0,-7 5,-13 12,-14 7,0 13,6 13,14 0,7 -5,13 -12,14z"/>
    <path fill="#221D1A" stroke="#221D1A" stroke-linejoin="bevel" d="M1327 1075c-7,1 -12,-5 -13,-13 0,-7 5,-14 13,-14 6,0 12,5 12,13 0,7 -4,14 -12,14z"/>
    <path fill="#221D1A" stroke="#221D1A" stroke-linejoin="bevel" d="M1315 1022c-7,0 -13,-6 -13,-13 0,-7 5,-14 12,-14 7,0 13,6 13,13 0,7 -5,14 -12,14z"/>
    <path fill="#221D1A" stroke="#221D1A" stroke-linejoin="bevel" d="M1292 970c-7,0 -13,-5 -13,-13 0,-8 5,-14 12,-14 7,0 13,6 13,13 0,8 -5,14 -12,14z"/>
    <path fill="#F2AF6E" stroke="#221D1A" stroke-linejoin="bevel" d="M1443 886c-15,69 -20,109 -23,181 6,80 -3,134 10,182 49,-63 35,-233 32,-267 -4,-36 -8,-56 -19,-96z"/>
    <path fill="#B67128" stroke="#221D1A" stroke-linejoin="bevel" d="M1429 1254c39,-19 107,-183 109,-185 22,-26 5,-135 82,-167 -39,29 -28,35 -34,64 14,35 0,29 1,44 13,19 12,39 9,66 19,74 -43,144 -59,154 -20,40 -84,38 -100,61 -7,7 -4,33 -6,37 -3,5 -16,-1 -23,-1 3,-15 2,-28 -1,-44 -72,-29 -143,-73 -150,-123 -15,-39 2,-66 0,-107 -20,-79 -9,-57 -7,-94 1,-21 13,-32 9,-52 -2,-13 -14,-16 -17,-28 49,22 45,76 67,127 19,45 9,115 39,120 26,19 73,129 81,128z"/>
    <path fill="#221D1A" stroke="#221D1A" stroke-linejoin="bevel" d="M1423 951c-5,0 -10,-5 -10,-10 0,-6 5,-11 10,-11 5,0 9,5 9,11 0,5 -4,10 -9,10z"/>
    <path fill="#221D1A" stroke="#221D1A" stroke-linejoin="bevel" d="M1412 1006c-6,0 -12,-5 -12,-11 0,-7 6,-12 12,-12 7,0 13,5 13,12 0,6 -6,11 -13,11z"/>
    <path fill="#221D1A" stroke="#221D1A" stroke-linejoin="bevel" d="M1408 1053c-7,0 -12,-6 -12,-14 0,-7 5,-14 12,-14 7,0 12,7 12,14 0,8 -5,14 -12,14z"/>
    <path fill="#221D1A" stroke="#221D1A" stroke-linejoin="bevel" d="M1408 1103c-6,0 -11,-6 -11,-13 0,-7 5,-14 11,-14 8,0 13,7 13,14 0,7 -5,13 -13,13z"/>
    <path fill="#221D1A" stroke="#221D1A" stroke-linejoin="bevel" d="M1435 1116c-6,0 -12,-6 -12,-13 0,-8 6,-14 12,-14 8,0 13,6 13,14 0,7 -5,13 -13,13z"/>
    <path fill="#221D1A" stroke="#221D1A" stroke-linejoin="bevel" d="M1436 1071c-8,0 -14,-7 -14,-15 0,-9 6,-15 14,-15 8,0 14,6 14,15 0,8 -6,15 -14,15z"/>
    <path fill="#221D1A" stroke="#221D1A" stroke-linejoin="bevel" d="M1440 1024c-8,0 -14,-7 -14,-15 0,-10 6,-17 14,-17 8,0 15,7 15,17 0,8 -7,15 -15,15z"/>
    <path fill="#221D1A" stroke="#221D1A" stroke-linejoin="bevel" d="M1443 976c-7,0 -12,-6 -12,-13 0,-8 5,-14 12,-14 7,0 12,6 12,14 0,7 -5,13 -12,13z"/>
    <path fill="#221D1A" stroke="#221D1A" stroke-linejoin="bevel" d="M1436 1163c-7,0 -12,-7 -12,-14 0,-7 5,-13 12,-13 7,0 12,6 12,13 0,7 -5,14 -12,14z"/>
    <path fill="#221D1A" stroke="#221D1A" stroke-linejoin="bevel" d="M1409 1147c-7,0 -12,-6 -12,-14 0,-7 5,-13 12,-13 7,0 13,6 13,13 0,8 -6,14 -13,14z"/>
    <path fill="#221D1A" stroke="#221D1A" stroke-linejoin="bevel" d="M1436 1216c-7,0 -12,-6 -12,-13 0,-7 5,-14 12,-14 7,0 12,7 12,14 0,7 -5,13 -12,13z"/>
    <path fill="none" stroke="#221D1A" stroke-linejoin="bevel" d="M1268 974c9,39 -5,59 19,104 7,67 46,96 66,144"/>
    <path fill="#8A5F2E" stroke="#221D1A" stroke-linejoin="bevel" d="M1425 1299c15,-21 41,-34 37,-69 5,-28 -10,-35 -15,-59 14,-44 -9,-31 -15,-51 1,-19 -14,-45 -18,-51 -2,26 -49,58 -39,93 -9,34 24,129 50,137z"/>
    <path fill="#8A5F2E" stroke="#221D1A" stroke-linejoin="bevel" d="M1425 1298c6,-26 -2,-53 26,-74 18,-22 34,-17 55,-28 24,-40 29,-15 48,-24 13,-13 73,-40 80,-41 -9,8 -30,22 -40,44 -13,26 -16,60 -34,68 -18,30 -111,69 -135,55z"/>
    <path fill="#8A5F2E" stroke="#221D1A" stroke-linejoin="bevel" d="M1425 1296c-5,-26 3,-54 -26,-74 -17,-23 -33,-17 -54,-28 -24,-40 -29,-15 -48,-24 -13,-13 -92,-54 -99,-55 49,26 59,110 93,126 18,30 111,69 134,55z"/>
   </g>
   
   <g id="Fr_pro"  onclick="parent.replacechar('Fr_pro')" onmousemove="parent.showtooltip('Fr_pro','Propagule')"  onmouseout="parent.hidetooltip('Fr_pro')" cursor="pointer" >
    <path fill="#A9A55D" stroke="#221D1A" stroke-linejoin="bevel" d="M796 863c6,8 36,-1 65,-10 14,-1 33,-9 45,-17 31,-21 28,12 38,8 8,-13 -13,-21 -8,-26 5,-3 15,13 20,12 5,-10 -16,-18 -20,-24 0,-11 15,-11 8,-22 0,-4 -13,-3 -26,-3 -1,-29 -14,-6 -21,2 -6,-3 7,-23 -5,-26 -9,5 5,6 -20,26 -15,1 -25,15 -36,27 -15,6 -37,17 -52,36l12 17z"/>
    <path fill="none" stroke="#221D1A" stroke-linejoin="bevel" d="M873 783c4,22 29,29 45,46"/>
    <path fill="none" stroke="#221D1A" stroke-linejoin="bevel" d="M918 782c8,9 -27,51 16,38"/>
    <path fill="#A5B64C" stroke="#221D1A" stroke-linejoin="bevel" d="M784 846c-113,67 -95,154 -88,210 53,209 156,344 167,333 -17,-122 -151,-237 -151,-413 8,-53 38,-90 85,-111l-13 -19z"/>
   </g>
   
   <g id="Fr_capcu"  onclick="parent.replacechar('Fr_capcu')" onmousemove="parent.showtooltip('Fr_capcu','Curved capsule')"  onmouseout="parent.hidetooltip('Fr_capcu')" cursor="pointer" >
    <path fill="#A5B64C" stroke="#221D1A" stroke-linejoin="bevel" d="M99 1222c43,-11 79,-17 101,-33 21,-21 103,-43 145,-100 14,-22 9,-34 2,-67 9,-5 15,5 26,-7 8,-5 14,6 21,-7 33,100 -48,177 -157,206 -47,-3 -81,12 -128,10l-10 -2z"/>
    <path fill="#A9A55D" stroke="#221D1A" stroke-linejoin="bevel" d="M347 1023c5,-11 -29,-31 6,-57 0,-23 -44,-60 -62,-66 -3,-1 -5,1 -7,2 -3,-6 -5,-9 -4,-17 5,1 9,1 13,5 51,28 61,45 70,73 18,-5 32,18 31,44 -3,9 -15,13 -25,6 -4,15 -9,5 -22,10z"/>
    <path fill="none" stroke="#221D1A" stroke-linejoin="bevel" d="M339 984c7,30 17,15 30,28"/>
    <path fill="none" stroke="#221D1A" stroke-linejoin="bevel" d="M353 967c-5,27 28,28 41,41"/>
    <path fill="none" stroke="#221D1A" stroke-linejoin="bevel" d="M366 964c7,30 13,14 26,26"/>
   </g>
   
   <g id="Fr_fol"  onclick="parent.replacechar('Fr_fol')" onmousemove="parent.showtooltip('Fr_fol','Follicle')"  onmouseout="parent.hidetooltip('Fr_fol')" cursor="pointer" >
    <path fill="#E08422" stroke="#221D1A" stroke-linejoin="bevel" d="M2576 176l-57 4c-16,87 -19,140 -13,229 -7,108 14,219 41,223 2,14 -2,27 4,36 4,3 9,1 12,-2 3,-15 1,-22 2,-36 37,-31 30,-92 24,-137 7,-70 7,-110 3,-180 -2,-52 -7,-85 -16,-137z"/>
    <path fill="#E18520" stroke="#221D1A" stroke-linejoin="bevel" d="M2523 101c-1,0 4,9 6,16 2,4 2,10 4,17 1,15 -4,14 -7,30 -6,3 -12,-7 -16,-1 -3,25 21,15 28,28 20,179 7,387 10,441 2,4 6,2 7,1 4,2 8,1 8,-1 8,-77 -6,-257 -3,-439 8,-13 21,-17 19,-27 -3,-5 -9,2 -14,-1 -14,-17 -24,-34 -33,-50 -3,-5 -8,-14 -9,-14z"/>
    <path fill="#F2AF6E" stroke="#221D1A" stroke-linejoin="bevel" d="M2530 116c2,7 3,6 4,17 2,13 0,11 -7,33 -5,3 -12,-4 -15,-1 -2,21 22,10 28,24 10,74 13,148 14,216 4,91 2,169 1,226 4,-76 -1,-360 2,-440 7,-11 21,-15 20,-24 -2,-3 -9,3 -14,1 -16,-21 -19,-32 -33,-52z"/>
    <path fill="#221D1A" stroke="#221D1A" stroke-linejoin="bevel" d="M2555 344c-2,0 -3,-2 -3,-4 0,-3 1,-5 3,-5 1,0 2,2 2,5 0,2 -1,4 -2,4z"/>
    <path fill="#221D1A" stroke="#221D1A" stroke-linejoin="bevel" d="M2550 219c-4,0 -6,-3 -6,-6 0,-3 2,-6 6,-6 3,0 6,3 6,6 0,3 -3,6 -6,6z"/>
    <path fill="#221D1A" stroke="#221D1A" stroke-linejoin="bevel" d="M2550 242c-3,0 -5,-2 -5,-6 0,-3 2,-6 5,-6 3,0 5,3 5,6 0,4 -2,6 -5,6z"/>
    <path fill="#221D1A" stroke="#221D1A" stroke-linejoin="bevel" d="M2549 194c-4,0 -7,-3 -7,-7 0,-5 3,-9 7,-9 4,0 8,4 8,9 0,4 -4,7 -8,7z"/>
    <path fill="#221D1A" stroke="#221D1A" stroke-linejoin="bevel" d="M2553 275c-3,0 -5,-3 -5,-6 0,-2 2,-5 5,-5 2,0 2,2 2,5 0,3 0,6 -2,6z"/>
    <path fill="#221D1A" stroke="#221D1A" stroke-linejoin="bevel" d="M2554 301c-4,0 -4,-2 -4,-6 0,-4 0,-7 3,-7 2,0 2,3 2,6 0,4 1,7 -1,7z"/>
    <path fill="none" stroke="#221D1A" stroke-linejoin="bevel" d="M2529 116c1,-2 1,-2 3,-1"/>
    <path fill="#221D1A" stroke="#221D1A" stroke-linejoin="bevel" d="M2555 376c-1,0 -2,-2 -2,-4 0,-3 1,-4 2,-4 2,0 3,1 3,4 0,2 -1,4 -3,4z"/>
    <path fill="none" stroke="#221D1A" stroke-linejoin="bevel" d="M2567 597c8,-7 12,-11 20,-18"/>
    <path fill="none" stroke="#221D1A" stroke-linejoin="bevel" d="M2567 583c9,-9 14,-14 23,-22"/>
    <path fill="none" stroke="#221D1A" stroke-linejoin="bevel" d="M2569 565c9,-8 14,-13 23,-22"/>
    <path fill="none" stroke="#221D1A" stroke-linejoin="bevel" d="M2569 550c9,-8 14,-13 23,-22"/>
    <path fill="none" stroke="#221D1A" stroke-linejoin="bevel" d="M2568 536c9,-9 14,-14 23,-22"/>
    <path fill="none" stroke="#221D1A" stroke-linejoin="bevel" d="M2569 519c8,-8 12,-12 20,-20"/>
    <path fill="none" stroke="#221D1A" stroke-linejoin="bevel" d="M2567 501c9,-9 14,-14 22,-22"/>
    <path fill="none" stroke="#221D1A" stroke-linejoin="bevel" d="M2567 485c9,-9 14,-14 22,-23"/>
    <path fill="none" stroke="#221D1A" stroke-linejoin="bevel" d="M2567 468c10,-9 15,-14 26,-23"/>
    <path fill="none" stroke="#221D1A" stroke-linejoin="bevel" d="M2567 452c10,-9 15,-15 25,-25"/>
    <path fill="none" stroke="#221D1A" stroke-linejoin="bevel" d="M2565 436c11,-10 17,-16 28,-26"/>
    <path fill="none" stroke="#221D1A" stroke-linejoin="bevel" d="M2564 418c11,-9 16,-14 27,-24"/>
    <path fill="none" stroke="#221D1A" stroke-linejoin="bevel" d="M2543 599c-9,-8 -14,-13 -23,-21"/>
    <path fill="none" stroke="#221D1A" stroke-linejoin="bevel" d="M2543 584c-10,-10 -15,-15 -26,-25"/>
    <path fill="none" stroke="#221D1A" stroke-linejoin="bevel" d="M2541 564c-10,-10 -15,-15 -25,-25"/>
    <path fill="none" stroke="#221D1A" stroke-linejoin="bevel" d="M2541 547c-10,-10 -15,-16 -25,-25"/>
    <path fill="none" stroke="#221D1A" stroke-linejoin="bevel" d="M2542 530c-10,-10 -15,-15 -26,-25"/>
    <path fill="none" stroke="#221D1A" stroke-linejoin="bevel" d="M2542 511c-9,-8 -14,-13 -23,-22"/>
    <path fill="none" stroke="#221D1A" stroke-linejoin="bevel" d="M2544 491c-11,-10 -16,-16 -26,-25"/>
    <path fill="none" stroke="#221D1A" stroke-linejoin="bevel" d="M2544 472c-11,-10 -16,-15 -26,-25"/>
    <path fill="none" stroke="#221D1A" stroke-linejoin="bevel" d="M2544 454c-12,-11 -18,-17 -30,-27"/>
    <path fill="none" stroke="#221D1A" stroke-linejoin="bevel" d="M2544 436c-11,-12 -17,-18 -29,-29"/>
    <path fill="none" stroke="#221D1A" stroke-linejoin="bevel" d="M2546 417c-13,-11 -19,-18 -32,-29"/>
    <path fill="none" stroke="#221D1A" stroke-linejoin="bevel" d="M2544 399c-12,-11 -18,-17 -30,-28"/>
    <path fill="none" stroke="#221D1A" stroke-linejoin="bevel" d="M2568 386c6,-6 14,-13 20,-20"/>
    <path fill="none" stroke="#221D1A" stroke-linejoin="bevel" d="M2566 375c7,-6 14,-14 21,-20"/>
    <path fill="none" stroke="#221D1A" stroke-linejoin="bevel" d="M2566 361c7,-8 11,-11 19,-19"/>
    <path fill="none" stroke="#221D1A" stroke-linejoin="bevel" d="M2564 349c8,-8 12,-12 21,-20"/>
    <path fill="none" stroke="#221D1A" stroke-linejoin="bevel" d="M2564 336c8,-8 12,-12 20,-20"/>
    <path fill="none" stroke="#221D1A" stroke-linejoin="bevel" d="M2564 320c7,-7 11,-10 18,-17"/>
    <path fill="none" stroke="#221D1A" stroke-linejoin="bevel" d="M2562 304c9,-8 13,-12 21,-20"/>
    <path fill="none" stroke="#221D1A" stroke-linejoin="bevel" d="M2562 289c9,-7 13,-12 21,-19"/>
    <path fill="none" stroke="#221D1A" stroke-linejoin="bevel" d="M2562 275c10,-8 14,-13 24,-21"/>
    <path fill="none" stroke="#221D1A" stroke-linejoin="bevel" d="M2562 261c9,-8 13,-13 21,-20"/>
    <path fill="none" stroke="#221D1A" stroke-linejoin="bevel" d="M2561 245c7,-6 11,-9 18,-15"/>
    <path fill="none" stroke="#221D1A" stroke-linejoin="bevel" d="M2562 231c7,-6 11,-9 18,-15"/>
    <path fill="none" stroke="#221D1A" stroke-linejoin="bevel" d="M2541 377c-10,-9 -15,-15 -25,-25"/>
    <path fill="none" stroke="#221D1A" stroke-linejoin="bevel" d="M2542 362c-10,-10 -16,-15 -26,-25"/>
    <path fill="none" stroke="#221D1A" stroke-linejoin="bevel" d="M2540 342c-10,-10 -15,-15 -26,-25"/>
    <path fill="none" stroke="#221D1A" stroke-linejoin="bevel" d="M2540 325c-10,-10 -15,-15 -26,-25"/>
    <path fill="none" stroke="#221D1A" stroke-linejoin="bevel" d="M2541 308c-10,-9 -15,-15 -26,-25"/>
    <path fill="none" stroke="#221D1A" stroke-linejoin="bevel" d="M2540 289c-9,-8 -13,-13 -22,-22"/>
    <path fill="none" stroke="#221D1A" stroke-linejoin="bevel" d="M2541 268c-10,-10 -15,-16 -25,-25"/>
    <path fill="none" stroke="#221D1A" stroke-linejoin="bevel" d="M2539 248c-10,-10 -15,-15 -25,-25"/>
    <path fill="none" stroke="#221D1A" stroke-linejoin="bevel" d="M2537 226c-7,-7 -10,-11 -17,-17"/>
    <path fill="none" stroke="#221D1A" stroke-linejoin="bevel" d="M2566 401c11,-9 16,-14 27,-24"/>
   </g>
   
   <g id="Fr_leg"  onclick="parent.replacechar('Fr_leg')" onmousemove="parent.showtooltip('Fr_leg','Legume')"  onmouseout="parent.hidetooltip('Fr_leg')" cursor="pointer" >
    <defs>
     <linearGradient id="id3" gradientUnits="userSpaceOnUse" x1="1916" y1="463" x2="1864" y2="467">
      <stop offset="0" stop-color="#8C6335"/>
      <stop offset="1" stop-color="#CDC200"/>
     </linearGradient>
     <linearGradient id="id4" gradientUnits="userSpaceOnUse" x1="1950" y1="565" x2="1875" y2="571">
      <stop offset="0" stop-color="#8C6335"/>
      <stop offset="1" stop-color="#CDC200"/>
     </linearGradient>
    </defs>
    <path fill="#8A8131" stroke="#221D1A" stroke-linejoin="bevel" d="M1997 242c6,-14 23,-20 27,-38 5,-20 16,-12 23,-22 13,-14 8,-38 17,-48 7,21 19,4 26,0 7,11 -1,19 -5,30 -9,6 -14,25 -16,32 -6,8 -13,14 -18,19 -3,11 -10,19 -4,29l-50 -2z"/>
    <path fill="#ADA31A" stroke="#221D1A" stroke-linejoin="bevel" d="M1973 618l-39 -367c-49,5 -90,23 -101,77 -12,35 27,51 30,87 -40,82 -5,107 -13,110 -9,11 -28,10 -34,13 0,6 21,5 37,9 10,50 63,81 120,71z"/>
    <path fill="#CDC200" stroke="#221D1A" stroke-linejoin="bevel" d="M1967 617l-60 -356c-29,9 -65,30 -70,68 -14,26 22,45 28,83 3,3 14,3 22,3 4,9 11,4 11,6 -1,5 -5,6 -13,-2 -6,-1 -15,-1 -18,3 -20,28 -24,74 -13,97 0,23 -31,15 -32,20 7,1 24,2 33,7 17,71 102,70 112,71z"/>
    <path fill="#8A8131" stroke="#221D1A" stroke-linejoin="bevel" d="M2001 242c-54,-1 -107,3 -124,69 -12,35 33,57 36,93 -40,82 -5,106 -13,110 -9,11 -28,9 -34,12 0,7 21,5 37,10 10,50 65,98 122,87 88,-16 127,-95 132,-181 6,-88 -30,-154 -108,-197l-48 -3z"/>
    <path fill="url(#id3)" stroke="#221D1A" stroke-linejoin="bevel" d="M1901 512c-3,-22 -2,-67 10,-107 -33,38 -43,70 -34,119 7,-2 20,-1 24,-12z"/>
    <path fill="url(#id4)" stroke="#221D1A" stroke-linejoin="bevel" d="M1903 535l-26 -2c8,40 31,54 70,70 -18,-14 -37,-35 -44,-68z"/>
    <path fill="none" stroke="#221D1A" stroke-linejoin="bevel" d="M2029 200c8,20 23,-2 33,2"/>
   </g>
   
   
   <g id="Fr_capcp"  onclick="parent.replacechar('Fr_capcp')" onmousemove="parent.showtooltip('Fr_capcp','Compressed capsule')"  onmouseout="parent.hidetooltip('Fr_capcp')" cursor="pointer" >
    <path fill="#A5B64C" stroke="#221D1A" stroke-linejoin="bevel" d="M1401 569c-3,11 -13,16 -24,13 -105,-1 -120,-121 -97,-208 31,-70 107,-162 173,-199 18,7 -5,16 4,49 53,63 117,101 118,223 -23,127 -118,159 -188,141l14 -19z"/>
    <path fill="none" stroke="#221D1A" stroke-linejoin="bevel" d="M1402 572c9,0 11,-15 27,-4 106,17 126,-73 140,-106"/>
    <path fill="none" stroke="#221D1A" stroke-linejoin="bevel" d="M1373 567c-11,-2 -16,27 -34,-4 -4,-15 -4,-21 23,-21 -5,-10 -16,-24 -11,-31 9,-2 13,-1 19,3 29,-40 28,13 34,22 12,-36 16,-35 45,-19 14,33 -12,48 -17,51 -15,0 -22,-3 -22,-17 -4,13 -24,40 -30,27 -15,-12 -8,-23 -12,-35 10,-9 21,-11 33,-6 5,2 8,6 9,11"/>
    <path fill="#A9A55D" stroke="#221D1A" stroke-linejoin="bevel" d="M1384 572c-5,0 -10,-18 -10,-22 0,-5 9,-11 15,-11 6,0 16,9 16,13 0,5 -15,20 -21,20z"/>
   </g>
   
   <g id="Fr_capgl"  onclick="parent.replacechar('Fr_capgl')" onmousemove="parent.showtooltip('Fr_capgl','Globose capsule')"  onmouseout="parent.hidetooltip('Fr_capgl')" cursor="pointer" >
    <path fill="#A5B64C" stroke="#221D1A" stroke-linejoin="bevel" d="M877 649c-175,18 -280,-92 -280,-217 0,-101 71,-194 177,-217 11,6 22,6 33,17 15,-5 30,-16 47,-16 12,3 20,3 27,5 6,1 7,-12 13,-11 134,9 210,114 213,221 -2,115 -86,218 -230,218z"/>
    <path fill="none" stroke="#221D1A" stroke-linejoin="bevel" d="M794 236c-79,52 -112,128 -98,221 14,93 68,155 158,181"/>
    <path fill="none" stroke="#221D1A" stroke-linejoin="bevel" d="M899 228c96,51 133,139 118,232 -14,93 -68,155 -158,182"/>
    <path fill="#A9A55D" stroke="#221D1A" stroke-linejoin="bevel" d="M870 186c16,2 23,11 24,22 -10,6 -6,10 -13,12 -17,-3 -25,-6 -41,-3 -14,2 -19,14 -32,13 -10,-3 -16,-14 -35,-17 7,-1 6,-25 30,-26 43,16 50,4 67,-1z"/>
    <path fill="#8F712E" stroke="#221D1A" stroke-linejoin="bevel" d="M803 187c-5,-12 8,-54 11,-68 14,-11 32,-7 45,5 5,13 3,42 11,60 -14,16 -58,13 -67,3z"/>
    <path fill="none" stroke="#221D1A" stroke-linejoin="bevel" d="M815 123c21,16 27,7 42,2"/>
   </g>
   
   <g id="Fr_dru" onclick="parent.replacechar('Fr_dru')" onmousemove="parent.showtooltip('Fr_dru','Drupe')" onmouseout="parent.hidetooltip('Fr_dru')" cursor="pointer" >
    <path fill="#B2A71C" stroke="#221D1A" stroke-linejoin="bevel" d="M106 394c0,-100 77,-194 177,-194 101,0 180,95 180,196 0,101 -357,99 -357,-2z"/>
    <path fill="#FFFA89" stroke="#221D1A" stroke-linejoin="bevel" d="M281 592c-100,0 -174,-80 -174,-180 0,-90 69,-147 176,-147 101,0 180,46 180,147 0,100 -81,180 -182,180z"/>
    <path fill="#958553" stroke="#221D1A" stroke-linejoin="bevel" d="M274 143c0,24 3,87 1,101 -3,14 -8,10 -15,15 -15,10 52,10 43,0 -3,-4 -13,-2 -16,-15 -3,-12 0,-80 -1,-104l-12 3z"/>
    <path fill="#8F5444" stroke="#221D1A" stroke-linejoin="bevel" d="M292 522c42,1 63,-43 46,-97 -16,-54 -47,-95 -56,-96 -11,1 -20,40 -36,91 -17,53 5,102 46,102z"/>
   </g>
  </g>
 </g>
</svg>
