<?xml version="1.0" encoding="iso-8859-1"?>
<!DOCTYPE svg PUBLIC "-//W3C//DTD SVG 1.0//EN" "http://www.w3.org/TR/2001/REC-SVG-20010904/DTD/svg10.dtd">
<!-- Creator: CorelDRAW -->
<svg xmlns="http://www.w3.org/2000/svg" xml:space="preserve" shape-rendering="geometricPrecision" text-rendering="geometricPrecision" image-rendering="optimizeQuality" fill-rule="evenodd" clip-rule="evenodd"
 viewBox="0 0 2836 2126"
 xmlns:xlink="http://www.w3.org/1999/xlink">
 <g id="Section">
  <g>
   <path fill="#FFFFFF" d="M0 0l2836 0 0 2126 -2836 0 0 -2126z"/>
   <g id="Sct_w"  onclick="parent.replacechar('Sct_w')" onmousemove="parent.showtooltip('Sct_w','Double folded section')"  onmouseout="parent.hidetooltip('Sct_w')" cursor="pointer" >
    <path fill="#009341" stroke="#221D1A" stroke-linejoin="bevel" d="M2537 1794l-362 23 -60 116 -90 -119 -384 -58 396 -156 255 47 48 48 70 -47 210 -17 -83 163z"/>
    <path fill="#009341" stroke="#221D1A" stroke-linejoin="bevel" d="M2291 1646l-265 168 265 -168z"/>
    <path fill="#009341" stroke="#221D1A" stroke-linejoin="bevel" d="M2405 1651l-230 164 230 -164z"/>
    <path fill="#009341" stroke="#221D1A" stroke-linejoin="bevel" d="M2305 1817l-184 114 63 -104 121 -10z"/>
    <path fill="#009341" stroke="#221D1A" stroke-linejoin="bevel" d="M2065 1608l-342 157 342 -157z"/>
    <path fill="#009341" stroke="#221D1A" stroke-linejoin="bevel" d="M1810 1776l302 -159 -302 159z"/>
    <path fill="#009341" stroke="#221D1A" stroke-linejoin="bevel" d="M1956 1799l277 -160 -277 160z"/>
    <path fill="#009341" stroke="#221D1A" stroke-linejoin="bevel" d="M2171 1628l-283 161 283 -161z"/>
    <path fill="#009341" stroke="#221D1A" stroke-linejoin="bevel" d="M2258 1810l185 -163 -185 163z"/>
    <path fill="#009341" stroke="#221D1A" stroke-linejoin="bevel" d="M2342 1805l143 -160 -143 160z"/>
    <path fill="#009341" stroke="#221D1A" stroke-linejoin="bevel" d="M2425 1801l103 -160 -103 160z"/>
    <path fill="#009341" stroke="#221D1A" stroke-linejoin="bevel" d="M2492 1794l86 -159 -86 159z"/>
    <path fill="#009341" stroke="#221D1A" stroke-linejoin="bevel" d="M1642 1756l383 58 76 99 23 0 52 -96 363 -24 -352 36 -62 99 -20 0 -85 -104 -378 -68z"/>
    <path fill="#7D7432" stroke="#221D1A" stroke-linejoin="bevel" d="M2116 1936c-6,1 -13,-8 -14,-17 -1,-10 6,-3 12,-3 6,0 10,-6 11,3 2,10 0,15 -9,17z"/>
   </g>
   <g id="Sct_suc"  onclick="parent.replacechar('Sct_suc')" onmousemove="parent.showtooltip('Sct_suc','Succulent section')"  onmouseout="parent.hidetooltip('Sct_suc')" cursor="pointer" >
    <path fill="#009341" stroke="#221D1A" stroke-linejoin="bevel" d="M423 1860l276 -227c56,-31 226,-28 250,0l-178 230 -348 -3z"/>
    <path fill="#009341" stroke="#221D1A" stroke-linejoin="bevel" d="M564 1914c-98,0 -155,-34 -142,-52 12,-19 101,-34 199,-34 98,0 167,15 155,34 -13,18 -115,52 -212,52z"/>
   </g>
   <g id="Sct_waf"  onclick="parent.replacechar('Sct_waf')" onmousemove="parent.showtooltip('Sct_waf','Waffled section')"  onmouseout="parent.hidetooltip('Sct_waf')" cursor="pointer" >
    <path fill="#009341" stroke="#221D1A" stroke-linejoin="bevel" d="M1643 1180c2,-4 44,-32 59,0 22,-36 88,-17 95,0 27,-31 100,-32 119,0 40,-44 172,-22 179,29 31,-75 154,-61 162,-27 31,-44 103,-24 120,-1 11,-32 50,-35 78,-2 4,-28 45,-4 63,1 -12,2 -53,-23 -63,1 -23,-24 -53,-35 -76,3 -32,-23 -79,-40 -122,1 -46,-54 -148,-2 -159,33 -40,-76 -157,-51 -181,-33 -25,-34 -90,-31 -121,2 -28,-33 -77,-24 -94,0 -18,-27 -59,-6 -59,-7z"/>
    <path fill="#009341" stroke="#221D1A" stroke-linejoin="bevel" d="M2518 1179c-21,0 -60,-21 -64,0 -14,-20 -62,-38 -77,0 -23,-33 -105,-30 -119,0 -17,-26 -80,-38 -169,8 -61,-36 -135,-38 -173,-8 -31,-38 -97,-21 -119,0 -11,-19 -53,-29 -95,0 -31,-30 -40,0 -60,0 114,-121 202,-214 264,-247 40,-22 56,-1 95,-17 6,-2 52,3 61,16 52,-34 111,-17 133,0 27,-21 64,-24 109,8 58,-31 78,-19 104,-8 24,-17 46,-16 74,0 8,-10 88,-15 78,13 28,-30 65,-2 71,-2 2,86 -66,154 -113,237z"/>
    <path fill="#7D7432" stroke="#221D1A" stroke-linejoin="bevel" d="M2078 1187l220 -248 10 -1 -194 246 -36 3z"/>
    <path fill="#009341" stroke="#655E46" stroke-linejoin="bevel" d="M1934 1152c4,-7 16,-29 8,-44 -7,-12 -40,-14 -61,-12 -20,2 -55,20 -68,47l-15 31 136 -22z"/>
    <path fill="none" stroke="#221D1A" stroke-linejoin="bevel" d="M1925 1119c10,-3 8,6 12,9"/>
    <path fill="none" stroke="#221D1A" stroke-linejoin="bevel" d="M1923 1133c11,-1 10,7 15,11"/>
    <path fill="none" stroke="#221D1A" stroke-linejoin="bevel" d="M1919 1146c7,2 7,12 7,17"/>
    <path fill="#009341" stroke="#221D1A" stroke-linejoin="bevel" d="M1986 1053l7 4 3 4 -10 -8z"/>
    <path fill="#009341" stroke="#655E46" stroke-linejoin="bevel" d="M2102 1155c2,-6 39,-37 39,-47 0,-11 -14,-28 -39,-42 -12,-6 -41,-27 -86,0 -15,9 -44,33 -55,54l-44 57 185 -22z"/>
    <path fill="none" stroke="#221D1A" stroke-linejoin="bevel" d="M2119 1094c12,-2 8,10 11,15"/>
    <path fill="none" stroke="#221D1A" stroke-linejoin="bevel" d="M2114 1114c8,-2 6,8 9,12"/>
    <path fill="none" stroke="#221D1A" stroke-linejoin="bevel" d="M2107 1131c6,-1 3,6 5,9"/>
    <path fill="none" stroke="#221D1A" stroke-linejoin="bevel" d="M2191 1097c14,-24 51,-43 69,-44 20,-2 50,0 56,11 7,15 -4,40 -8,48 -4,6 -12,15 -18,22"/>
    <path fill="none" stroke="#221D1A" stroke-linejoin="bevel" d="M2380 936c7,3 10,10 9,14"/>
    <path fill="#009341" stroke="#221D1A" stroke-linejoin="bevel" d="M2330 1069c18,-24 52,-12 63,-8 13,6 29,3 35,26 6,19 -14,38 -11,33l-38 54 -49 -105z"/>
    <path fill="none" stroke="#221D1A" stroke-linejoin="bevel" d="M2172 937c12,0 23,9 27,13"/>
    <path fill="none" stroke="#655E46" stroke-linejoin="bevel" d="M1871 1006c17,-21 23,-22 40,-26 30,-5 31,0 49,0 15,0 82,52 80,59 -5,18 -73,42 -57,33"/>
    <path fill="#009341" stroke="#221D1A" stroke-linejoin="bevel" d="M2019 1035l9 5 -9 -5z"/>
    <path fill="#009341" stroke="#221D1A" stroke-linejoin="bevel" d="M2006 1043l5 7 -5 -7z"/>
    <path fill="none" stroke="#221D1A" stroke-linejoin="bevel" d="M2368 1043c-23,-19 37,-2 124,-31 0,0 38,13 37,37 0,16 -8,28 -21,35"/>
    <path fill="none" stroke="#221D1A" stroke-linejoin="bevel" d="M1975 985c52,47 157,79 173,117"/>
    <path fill="none" stroke="#655E46" stroke-linejoin="bevel" d="M2067 937c14,36 22,75 19,114"/>
    <path fill="none" stroke="#655E46" stroke-linejoin="bevel" d="M2219 1057c106,-41 198,-3 312,-67"/>
    <path fill="none" stroke="#655E46" stroke-linejoin="bevel" d="M2483 936c2,18 -10,57 -24,78"/>
    <path fill="none" stroke="#655E46" stroke-linejoin="bevel" d="M2406 931c-8,27 -14,84 -41,102"/>
    <path fill="none" stroke="#655E46" stroke-linejoin="bevel" d="M2326 1037c114,18 106,72 180,55"/>
    <path fill="#009341" stroke="#655E46" stroke-linejoin="bevel" d="M2291 1133l-32 41 32 -41z"/>
    <path fill="none" stroke="#655E46" stroke-linejoin="bevel" d="M1769 1113c-43,3 -43,43 -64,65"/>
    <path fill="none" stroke="#655E46" stroke-linejoin="bevel" d="M2198 937c11,24 31,59 29,79"/>
    <path fill="none" stroke="#655E46" stroke-linejoin="bevel" d="M2071 1047c-67,-3 -70,61 -233,35"/>
    <path fill="none" stroke="#221D1A" stroke-linejoin="bevel" d="M2463 933c7,2 10,9 9,14"/>
    <path fill="none" stroke="#221D1A" stroke-linejoin="bevel" d="M2260 957c7,3 9,10 8,15"/>
    <path fill="none" stroke="#221D1A" stroke-linejoin="bevel" d="M2269 945c8,3 10,10 9,15"/>
    <path fill="none" stroke="#221D1A" stroke-linejoin="bevel" d="M2254 969c7,3 9,3 8,8"/>
    <path fill="none" stroke="#221D1A" stroke-linejoin="bevel" d="M2367 987c8,3 10,10 9,14"/>
    <path fill="#544B31" stroke="#221D1A" stroke-linejoin="bevel" d="M2097 1224c-12,0 -22,-15 -21,-35 0,-19 11,-7 23,-7 13,0 22,-12 21,7 0,20 -11,35 -23,35z"/>
    <path fill="#009341" stroke="#655E46" stroke-linejoin="bevel" d="M1956 941l2 38 -2 -38z"/>
    <path fill="none" stroke="#221D1A" stroke-linejoin="bevel" d="M2043 940c10,-1 16,5 20,8"/>
    <path fill="none" stroke="#221D1A" stroke-linejoin="bevel" d="M2046 960c8,-7 18,2 22,2"/>
    <path fill="none" stroke="#221D1A" stroke-linejoin="bevel" d="M2056 985c11,-6 17,1 17,7"/>
    <path fill="none" stroke="#221D1A" stroke-linejoin="bevel" d="M2173 971c11,0 22,9 27,13"/>
    <path fill="none" stroke="#221D1A" stroke-linejoin="bevel" d="M2173 1003c11,0 22,9 27,13"/>
    <path fill="none" stroke="#221D1A" stroke-linejoin="bevel" d="M2156 1039c10,0 18,8 23,11"/>
    <path fill="none" stroke="#221D1A" stroke-linejoin="bevel" d="M2370 956c7,3 9,9 8,14"/>
    <path fill="none" stroke="#221D1A" stroke-linejoin="bevel" d="M2364 974c7,3 10,9 9,14"/>
    <path fill="none" stroke="#221D1A" stroke-linejoin="bevel" d="M2453 953c7,3 10,9 9,14"/>
    <path fill="none" stroke="#221D1A" stroke-linejoin="bevel" d="M2447 968c7,3 10,9 9,14"/>
    <path fill="none" stroke="#221D1A" stroke-linejoin="bevel" d="M2441 986c7,3 10,10 9,14"/>
    <path fill="none" stroke="#221D1A" stroke-linejoin="bevel" d="M2290 1069c7,3 9,9 8,14"/>
    <path fill="none" stroke="#221D1A" stroke-linejoin="bevel" d="M2284 1081c7,3 9,10 8,15"/>
    <path fill="none" stroke="#221D1A" stroke-linejoin="bevel" d="M2276 1098c7,3 9,10 8,15"/>
    <path fill="none" stroke="#221D1A" stroke-linejoin="bevel" d="M2266 1115c7,2 10,9 8,14"/>
    <path fill="none" stroke="#221D1A" stroke-linejoin="bevel" d="M2379 1080c7,3 10,10 9,15"/>
    <path fill="none" stroke="#221D1A" stroke-linejoin="bevel" d="M2374 1098c7,3 10,10 9,15"/>
    <path fill="none" stroke="#221D1A" stroke-linejoin="bevel" d="M2367 1114c7,3 10,10 9,15"/>
    <path fill="none" stroke="#221D1A" stroke-linejoin="bevel" d="M2403 1093c5,3 7,9 6,13"/>
    <path fill="none" stroke="#221D1A" stroke-linejoin="bevel" d="M2398 1108c5,2 7,8 6,13"/>
    <path fill="none" stroke="#221D1A" stroke-linejoin="bevel" d="M2389 1121c5,2 6,8 6,13"/>
    <path fill="#009341" stroke="#221D1A" stroke-linejoin="bevel" d="M2434 1090c14,5 65,0 66,24 -8,22 -14,21 -20,29l-26 33 -20 -86z"/>
    <path fill="none" stroke="#221D1A" stroke-linejoin="bevel" d="M2473 1109c5,2 7,8 6,13"/>
    <path fill="none" stroke="#221D1A" stroke-linejoin="bevel" d="M2464 1122c5,2 7,8 6,13"/>
    <path fill="none" stroke="#221D1A" stroke-linejoin="bevel" d="M2308 953c5,2 7,8 6,13"/>
    <path fill="none" stroke="#221D1A" stroke-linejoin="bevel" d="M2303 967c5,3 7,9 6,13"/>
    <path fill="none" stroke="#221D1A" stroke-linejoin="bevel" d="M2293 980c5,3 8,9 7,13"/>
    <path fill="#009341" stroke="#655E46" stroke-linejoin="bevel" d="M2563 949l-31 38 31 -38z"/>
   </g>
   <g id="Sct_ben"  onclick="parent.replacechar('Sct_ben')" onmousemove="parent.showtooltip('Sct_ben','Bended section')"  onmouseout="parent.hidetooltip('Sct_ben')" cursor="pointer" >
    <path fill="#009341" stroke="#221D1A" stroke-linejoin="bevel" d="M1040 1191l-438 36 -396 -128c133,-63 283,-177 398,-189 116,-13 198,75 297,113 99,-15 262,-74 285,-46 23,28 -93,143 -146,214z"/>
    <path fill="#7D7432" stroke="#221D1A" stroke-linejoin="bevel" d="M593 1223l293 -204 20 4 -279 206 -34 -6z"/>
    <path fill="#009341" stroke="#221D1A" stroke-linejoin="bevel" d="M207 1099c-2,-2 257,83 385,125l43 0c135,-11 408,-35 406,-33 -2,2 -278,33 -417,49l-24 -1c-131,-47 -392,-138 -393,-140z"/>
    <path fill="#544B31" stroke="#221D1A" stroke-linejoin="bevel" d="M612 1246c-12,0 -22,-8 -21,-18 1,-10 11,-4 23,-4 13,0 22,-7 21,3 0,11 -11,19 -23,19z"/>
    <path fill="#009341" stroke="#221D1A" stroke-linejoin="bevel" d="M1040 1191c-18,31 -38,21 -42,17 -4,-6 3,-3 4,-3l11 -10 27 -4z"/>
    <path fill="none" stroke="#221D1A" stroke-linejoin="bevel" d="M1031 1193c-4,7 -27,20 -29,13"/>
    <path fill="#009341" stroke="#221D1A" stroke-linejoin="bevel" d="M232 1108l-12 -4 -13 -5c11,34 32,28 37,24 4,-5 -2,-1 -3,-3 -2,-1 -17,-3 -9,-12z"/>
    <path fill="none" stroke="#1F1A17" stroke-linejoin="bevel" d="M668 922c-34,50 -70,166 32,218"/>
    <path fill="none" stroke="#1F1A17" stroke-linejoin="bevel" d="M507 1003c-40,58 -51,127 -40,182"/>
    <path fill="none" stroke="#1F1A17" stroke-linejoin="bevel" d="M1086 1005c-51,53 -157,151 -308,123"/>
   </g>
   <g id="Sct_v"  onclick="parent.replacechar('Sct_v')" onmousemove="parent.showtooltip('Sct_v','V-shaped section')"  onmouseout="parent.hidetooltip('Sct_v')" cursor="pointer" >
    <path fill="#009341" stroke="#221D1A" stroke-linejoin="bevel" d="M2470 457l-438 36 -396 -127 398 -190 296 113 298 -46 -158 214z"/>
    <path fill="#7D7432" stroke="#221D1A" stroke-linejoin="bevel" d="M2023 490l292 -205 20 5 -279 205 -33 -5z"/>
    <path fill="#009341" stroke="#221D1A" stroke-linejoin="bevel" d="M2357 288l-254 197 254 -197z"/>
    <path fill="#009341" stroke="#221D1A" stroke-linejoin="bevel" d="M2400 283l-227 196 227 -196z"/>
    <path fill="#009341" stroke="#221D1A" stroke-linejoin="bevel" d="M2456 273l-205 197 205 -197z"/>
    <path fill="#009341" stroke="#221D1A" stroke-linejoin="bevel" d="M2504 264l-184 203 184 -203z"/>
    <path fill="#009341" stroke="#221D1A" stroke-linejoin="bevel" d="M2554 255l-165 204 165 -204z"/>
    <path fill="#009341" stroke="#221D1A" stroke-linejoin="bevel" d="M2598 252l-150 198 150 -198z"/>
    <path fill="#009341" stroke="#221D1A" stroke-linejoin="bevel" d="M1636 365l385 125 44 1 405 -34 -416 49 -25 -1 -393 -140z"/>
    <path fill="#544B31" stroke="#1F1A17" stroke-linejoin="bevel" d="M2042 512c-13,1 -22,-7 -21,-18 0,-10 10,-3 22,-3 13,0 22,-7 21,2 0,11 -10,19 -22,19z"/>
    <path fill="none" stroke="#1F1A17" stroke-linejoin="bevel" d="M2149 232c-43,35 -100,119 -9,176"/>
    <path fill="none" stroke="#1F1A17" stroke-linejoin="bevel" d="M1988 280c-54,46 -84,108 -88,164"/>
   </g>
   <g id="Sct_flt"  onclick="parent.replacechar('Sct_flt')" onmousemove="parent.showtooltip('Sct_flt','Flat section')"  onmouseout="parent.hidetooltip('Sct_flt')" cursor="pointer" >
    <path fill="#009341" stroke="#221D1A" stroke-linejoin="bevel" d="M192 489l892 0 -439 15 -453 -15z"/>
    <path fill="#009341" stroke="#221D1A" stroke-linejoin="bevel" d="M1084 489l-891 0c149,-155 344,-235 505,-282l573 0c-29,99 -90,186 -187,282z"/>
    <path fill="#7D7432" stroke="#221D1A" stroke-linejoin="bevel" d="M627 492l334 -286 11 2 -306 286 -39 -2z"/>
    <path fill="none" stroke="#1F1A17" stroke-linejoin="bevel" d="M765 213c-33,33 -76,114 -7,168"/>
    <path fill="none" stroke="#1F1A17" stroke-linejoin="bevel" d="M566 323c-54,45 -84,108 -88,164"/>
    <path fill="none" stroke="#1F1A17" stroke-linejoin="bevel" d="M1146 212c-50,53 -156,150 -307,123"/>
    <path fill="none" stroke="#1F1A17" stroke-linejoin="bevel" d="M1100 393c-75,57 -144,74 -196,95"/>
    <path fill="#544B31" stroke="#221D1A" stroke-linejoin="bevel" d="M643 512c-13,0 -20,-8 -16,-18 4,-10 12,-3 25,-3 12,0 23,-7 19,3 -3,10 -16,18 -28,18z"/>
   </g>
  </g>
 </g>
</svg>
