<?xml version="1.0" encoding="iso-8859-1"?>
<!DOCTYPE svg PUBLIC "-//W3C//DTD SVG 1.0//EN" "http://www.w3.org/TR/2001/REC-SVG-20010904/DTD/svg10.dtd">
<!-- Creator: CorelDRAW -->
<svg xmlns="http://www.w3.org/2000/svg" xml:space="preserve" shape-rendering="geometricPrecision" text-rendering="geometricPrecision" image-rendering="optimizeQuality" fill-rule="evenodd" clip-rule="evenodd"
 viewBox="0 0 2836 2126"
 xmlns:xlink="http://www.w3.org/1999/xlink">
 <g id="Prop">
  <g>
   <path fill="#FFFFFF" d="M1 2126l0 -2126 2834 0 0 2126 -2834 0z"/>
   <g id="Prop_C" onclick="parent.replacechar('Prop_C')" onmousemove="parent.showtooltip('Prop_C','Calyx thick and short ,slightly lobed')" onmouseout="parent.hidetooltip('Prop_C')" cursor="pointer" >
    <path fill="#AFA7A6" stroke="#221D1A" stroke-linejoin="bevel" d="M2662 609c191,617 -104,993 -318,1181 -219,198 -289,283 -366,236 1,-94 420,-427 529,-595 21,-55 222,-370 62,-794l93 -28z"/>
    <path fill="none" stroke="#221D1A" stroke-linejoin="bevel" d="M2026 2024c582,-386 810,-854 631,-1382"/>
    <path fill="none" stroke="#221D1A" stroke-linejoin="bevel" d="M2008 2018c529,-366 798,-838 618,-1367"/>
    <path fill="none" stroke="#221D1A" stroke-linejoin="bevel" d="M2009 2011c449,-400 782,-711 579,-1358"/>
    <path fill="none" stroke="#221D1A" stroke-linejoin="bevel" d="M2610 334c-60,45 -135,13 -214,21"/>
    <path fill="#B77835" stroke="#221D1A" stroke-linejoin="bevel" d="M2606 308c-1,-40 -140,-130 -172,-125 -43,14 -3,48 -28,77 -24,5 -56,-47 -76,-21 -11,14 38,31 42,51 7,5 32,47 27,62l207 -44z"/>
    <path fill="#DDB42D" stroke="#221D1A" stroke-linejoin="bevel" d="M2508 344c14,-69 -25,-221 -49,-270 -22,-8 -30,-1 -43,11 9,66 58,227 58,258l34 1z"/>
    <path fill="#B77835" stroke="#221D1A" stroke-linejoin="bevel" d="M2374 296c-12,12 -66,-3 -72,42 15,30 80,-60 109,62 14,43 42,102 73,136 52,83 52,97 112,103l67 -20c14,-83 -3,-93 -23,-140 0,-52 4,-110 -28,-143 35,-58 60,-31 72,-67 -36,-6 -98,21 -120,16 3,-34 18,-139 -58,-56 -22,26 -60,143 -126,70l-6 -3z"/>
    <path fill="none" stroke="#221D1A" stroke-linejoin="bevel" d="M2614 338c-101,68 -133,12 -217,19"/>
   </g>
   
   <g id="Prop_B" onclick="parent.replacechar('Prop_B')" onmousemove="parent.showtooltip('Prop_B','Calyx thin and long, deeply lobed')" onmouseout="parent.hidetooltip('Prop_B')" cursor="pointer" >
    <path fill="#AFA7A6" stroke="#221D1A" stroke-linejoin="bevel" d="M1343 587c-127,395 -45,1301 -8,1376 20,58 57,105 81,127 26,-43 53,-63 74,-128 70,-160 58,-880 27,-1375l-174 0z"/>
    <path fill="#D36955" stroke="#221D1A" stroke-linejoin="bevel" d="M1583 435c-21,-86 -57,-145 -123,-191l-10 -173 -26 0 -11 173c-74,40 -110,119 -123,189 -14,71 -10,45 -40,107 -34,73 -84,271 -71,305 17,-88 105,-281 128,-265 -23,28 -58,245 -38,270 17,-42 79,-258 109,-263 15,23 12,225 40,256 14,-100 32,-242 58,-243 22,18 73,212 65,246 32,-48 -1,-255 12,-270 21,-4 65,97 117,283 10,-56 -24,-223 -44,-276 -13,-62 -28,-61 -43,-148z"/>
    <path fill="none" stroke="#221D1A" stroke-linejoin="bevel" d="M1423 248c15,14 19,7 28,0"/>
    <path fill="none" stroke="#221D1A" stroke-linejoin="bevel" d="M1369 615c-19,450 -99,858 42,1430"/>
    <path fill="none" stroke="#221D1A" stroke-linejoin="bevel" d="M1468 633c-10,464 31,1239 -48,1407"/>
    <path fill="none" stroke="#221D1A" stroke-linejoin="bevel" d="M1396 1342c9,269 6,281 19,684"/>
    <path fill="none" stroke="#221D1A" stroke-linejoin="bevel" d="M1409 2071c-26,-47 -57,-93 -75,-157"/>
    <path fill="none" stroke="#221D1A" stroke-linejoin="bevel" d="M1415 2072c27,-48 57,-94 75,-158"/>
   </g>
   <g id="Prop_A" onclick="parent.replacechar('Prop_A')" onmousemove="parent.showtooltip('Prop_A','Calyx Recurved')" onmouseout="parent.hidetooltip('Prop_A')" cursor="pointer" >
    <path fill="#AFA7A6" stroke="#221D1A" stroke-linejoin="bevel" d="M444 838c-84,305 -80,409 -89,464 7,82 -24,458 55,404 37,-208 44,-399 51,-478 5,-106 43,-248 73,-391l-90 1z"/>
    <path fill="none" stroke="#221D1A" stroke-linejoin="bevel" d="M469 842c-9,27 -76,237 -91,486"/>
    <path fill="none" stroke="#221D1A" stroke-linejoin="bevel" d="M376 1421c-1,79 -16,154 16,279"/>
    <path fill="none" stroke="#221D1A" stroke-linejoin="bevel" d="M506 843c-11,132 -81,351 -82,551"/>
    <path fill="none" stroke="#221D1A" stroke-linejoin="bevel" d="M422 1433c2,79 -8,165 -21,264"/>
    <path fill="none" stroke="#221D1A" stroke-linejoin="bevel" d="M484 841c-45,272 -117,563 -88,856"/>
    <path fill="#E2DB6E" stroke="#221D1A" stroke-linejoin="bevel" d="M522 838c73,11 110,-94 78,-178 -32,-84 -36,-121 -102,-167l0 -71 -26 0 -1 70c-73,40 -91,122 -105,192 -14,71 -18,133 80,154l76 0z"/>
    <path fill="#C8C23E" stroke="#221D1A" stroke-linejoin="bevel" d="M436 849c-56,-4 -107,-101 -146,-99 30,-51 119,81 142,67 -4,-27 -32,-102 -26,-111 6,-8 50,102 68,105 15,-24 13,-92 24,-117 15,30 0,111 27,114 21,-19 43,-91 62,-108 7,30 -41,94 -29,109 20,14 93,-73 115,-46 -37,3 -93,101 -144,88 -30,0 -61,-13 -93,-2z"/>
    <path fill="none" stroke="#221D1A" stroke-linejoin="bevel" d="M471 496c15,14 19,6 28,0"/>
   </g>
  </g>
 </g>
</svg>
