<?xml version="1.0" encoding="iso-8859-1"?>
<!DOCTYPE svg PUBLIC "-//W3C//DTD SVG 1.0//EN" "http://www.w3.org/TR/2001/REC-SVG-20010904/DTD/svg10.dtd">
<!-- Creator: CorelDRAW -->
<svg xmlns="http://www.w3.org/2000/svg" xml:space="preserve" shape-rendering="geometricPrecision" text-rendering="geometricPrecision" image-rendering="optimizeQuality" fill-rule="evenodd" clip-rule="evenodd"
 viewBox="0 0 2836 2126"
 xmlns:xlink="http://www.w3.org/1999/xlink">
 <g id="Inflo">
  <g>
   <path fill="#FFFFFF" d="M0 0l2836 0 0 2126 -2836 0 0 -2126z"/>
   <g id="Flr_pan"  onclick="parent.replacechar('Flr_pan')" onmousemove="parent.showtooltip('Flr_pan','Panicle')"  onmouseout="parent.hidetooltip('Flr_pan')" cursor="pointer" >
    <path fill="#009341" stroke="#1F1A17" d="M2538 1310l0 543 0 -543z"/>
    <path fill="none" stroke="#1F1A17" d="M2538 1310l0 543"/>
    <path fill="#DB281E" stroke="#1F1A17" d="M2612 1379l-76 79 76 -79z"/>
    <path fill="#DB281E" stroke="#1F1A17" d="M2612 1379l-76 79 76 -79z"/>
    <path fill="#DB281E" stroke="#1F1A17" d="M2632 1412l-50 0 50 0z"/>
    <path fill="#DB281E" stroke="#1F1A17" d="M2632 1412l-50 0 50 0z"/>
    <path fill="#DB281E" stroke="#1F1A17" d="M2674 1529l-136 118 136 -118z"/>
    <path fill="#DB281E" stroke="#1F1A17" d="M2674 1529l-136 118 136 -118z"/>
    <path fill="#DB281E" stroke="#1F1A17" d="M2678 1585l-60 -7 60 7z"/>
    <path fill="#DB281E" stroke="#1F1A17" d="M2678 1585l-60 -7 60 7z"/>
    <path fill="#DB281E" stroke="#1F1A17" d="M2590 1601l28 -93 -28 93z"/>
    <path fill="#DB281E" stroke="#1F1A17" d="M2590 1601l28 -93 -28 93z"/>
    <path fill="#009341" stroke="#1F1A17" d="M2444 1703l50 -24 -50 24z"/>
    <path fill="none" stroke="#1F1A17" d="M2444 1703l50 -24"/>
    <path fill="#009341" stroke="#1F1A17" d="M2432 1465l108 87 -108 -87z"/>
    <path fill="none" stroke="#1F1A17" d="M2432 1465l108 87"/>
    <path fill="#DB281E" stroke="#1F1A17" d="M2424 1506l57 0 -57 0z"/>
    <path fill="#DB281E" stroke="#1F1A17" d="M2424 1506l57 0 -57 0z"/>
    <path fill="#DB281E" stroke="#1F1A17" d="M2486 1358l52 56 -52 -56z"/>
    <path fill="#DB281E" stroke="#1F1A17" d="M2486 1358l52 56 -52 -56z"/>
    <path fill="#DB281E" stroke="#1F1A17" d="M2516 1358l0 30 0 -30z"/>
    <path fill="#DB281E" stroke="#1F1A17" d="M2516 1358l0 30 0 -30z"/>
    <path fill="#DB281E" stroke="#1F1A17" d="M2560 1335l-22 21 22 -21z"/>
    <path fill="#DB281E" stroke="#1F1A17" d="M2560 1335l-22 21 22 -21z"/>
    <path fill="#DB281E" stroke="#1F1A17" d="M2632 1536l-26 21 26 -21z"/>
    <path fill="#DB281E" stroke="#1F1A17" d="M2570 1397l-4 30 4 -30z"/>
    <path fill="#DB281E" stroke="#1F1A17" d="M2570 1397l-4 30 4 -30z"/>
    <path fill="#DB281E" stroke="#1F1A17" d="M2486 1430l24 97 -24 -97z"/>
    <path fill="#DB281E" stroke="#1F1A17" d="M2486 1430l24 97 -24 -97z"/>
    <path fill="#DB281E" stroke="#1F1A17" d="M2592 1520l16 12 -16 -12z"/>
    <path fill="#DB281E" stroke="#1F1A17" d="M2478 1458l16 9 -16 -9z"/>
    <path fill="#DB281E" stroke="#1F1A17" d="M2384 1638l56 0 -56 0z"/>
    <path fill="#DB281E" stroke="#1F1A17" d="M2384 1638l56 0 -56 0z"/>
    <path fill="#DB281E" stroke="#1F1A17" d="M2444 1559l24 100 -24 -100z"/>
    <path fill="#DB281E" stroke="#1F1A17" d="M2444 1559l24 100 -24 -100z"/>
    <path fill="#DB281E" stroke="#1F1A17" d="M2442 1608l16 12 -16 -12z"/>
    <path fill="#009341" stroke="#1F1A17" d="M2388 1596l150 118 -150 -118z"/>
    <path fill="none" stroke="#1F1A17" d="M2388 1596l150 118"/>
    <path fill="#DB281E" stroke="#1F1A17" d="M2720 1721l-56 0 56 0z"/>
    <path fill="#DB281E" stroke="#1F1A17" d="M2720 1721l-56 0 56 0z"/>
    <path fill="#009341" stroke="#1F1A17" d="M2660 1643l-22 97 22 -97z"/>
    <path fill="none" stroke="#1F1A17" d="M2660 1643l-22 97"/>
    <path fill="#DB281E" stroke="#1F1A17" d="M2640 1663l10 16 -10 -16z"/>
    <path fill="#009341" stroke="#1F1A17" d="M2716 1679l-178 139 178 -139z"/>
    <path fill="none" stroke="#1F1A17" d="M2716 1679l-178 139"/>
    <path fill="#009341" stroke="#1F1A17" d="M2706 1767l-96 -2 96 2z"/>
    <path fill="none" stroke="#1F1A17" d="M2706 1767l-96 -2"/>
    <path fill="#009341" stroke="#1F1A17" d="M2584 1693l-18 104 18 -104z"/>
    <path fill="none" stroke="#1F1A17" d="M2584 1693l-18 104"/>
    <path fill="#009341" stroke="#1F1A17" d="M2658 1751l-26 14 26 -14z"/>
    <path fill="#DB281E" stroke="#1F1A17" d="M2422 1712l18 10 -18 -10z"/>
    <path fill="#DB281E" stroke="#1F1A17" d="M2512 1624l0 67 0 2 0 -69z"/>
    <path fill="#DB281E" stroke="#1F1A17" d="M2512 1624l0 67 0 2 0 -69z"/>
    <path fill="#FFF500" stroke="#1F1A17" d="M2551 1298c0,7 -5,11 -12,11 -7,0 -12,-4 -12,-11 0,-6 5,-11 12,-11 7,0 12,5 12,11z"/>
    <path fill="#DB281E" stroke="#1F1A17" d="M2753 1721c0,8 -7,15 -16,15 -9,0 -15,-7 -15,-15 0,-8 6,-15 15,-15 9,0 16,7 16,15z"/>
    <path fill="#FFF500" stroke="#1F1A17" d="M2584 1327c0,6 -5,11 -12,11 -7,0 -12,-5 -12,-11 0,-7 5,-12 12,-12 7,0 12,5 12,12z"/>
    <path fill="#FFF500" stroke="#1F1A17" d="M2527 1347c0,6 -5,11 -12,11 -7,0 -12,-5 -12,-11 0,-7 5,-12 12,-12 7,0 12,5 12,12z"/>
    <path fill="#FFF500" stroke="#1F1A17" d="M2492 1349c0,7 -5,11 -12,11 -7,0 -11,-4 -11,-11 0,-6 4,-11 11,-11 7,0 12,5 12,11z"/>
    <path fill="#FFF500" stroke="#1F1A17" d="M2582 1386c0,6 -5,11 -12,11 -6,0 -11,-5 -11,-11 0,-7 5,-12 11,-12 7,0 12,5 12,12z"/>
    <path fill="#FFF500" stroke="#1F1A17" d="M2631 1372c0,6 -5,11 -12,11 -6,0 -11,-5 -11,-11 0,-7 5,-12 11,-12 7,0 12,5 12,12z"/>
    <path fill="#B2A71C" stroke="#1F1A17" d="M2656 1410c0,6 -5,11 -12,11 -7,0 -12,-5 -12,-11 0,-7 5,-12 12,-12 7,0 12,5 12,12z"/>
    <path fill="#FFF500" stroke="#1F1A17" d="M2497 1421c0,7 -5,11 -12,11 -7,0 -12,-4 -12,-11 0,-6 5,-11 12,-11 7,0 12,5 12,11z"/>
    <path fill="#DB281E" stroke="#1F1A17" d="M2435 1456c0,6 -5,11 -11,11 -7,0 -12,-5 -12,-11 0,-7 5,-11 12,-11 6,0 11,4 11,11z"/>
    <path fill="#B2A71C" stroke="#1F1A17" d="M2425 1505c0,7 -5,11 -12,11 -7,0 -12,-4 -12,-11 0,-6 5,-11 12,-11 7,0 12,5 12,11z"/>
    <path fill="#B2A71C" stroke="#1F1A17" d="M2452 1549c0,6 -5,11 -12,11 -6,0 -11,-5 -11,-11 0,-7 5,-11 11,-11 7,0 12,4 12,11z"/>
    <path fill="#B2A71C" stroke="#1F1A17" d="M2389 1592c0,6 -5,11 -12,11 -6,0 -11,-5 -11,-11 0,-7 5,-12 11,-12 7,0 12,5 12,12z"/>
    <path fill="#B2A71C" stroke="#1F1A17" d="M2384 1637c0,6 -5,11 -12,11 -6,0 -11,-5 -11,-11 0,-7 5,-12 11,-12 7,0 12,5 12,12z"/>
    <path fill="#FFF500" stroke="#1F1A17" d="M2631 1498c0,6 -5,11 -12,11 -7,0 -12,-5 -12,-11 0,-7 5,-12 12,-12 7,0 12,5 12,12z"/>
    <path fill="#DB281E" stroke="#1F1A17" d="M2697 1525c0,6 -5,11 -12,11 -6,0 -11,-5 -11,-11 0,-7 5,-12 11,-12 7,0 12,5 12,12z"/>
    <path fill="#B2A71C" stroke="#1F1A17" d="M2701 1586c0,6 -5,11 -11,11 -7,0 -12,-5 -12,-11 0,-7 5,-12 12,-12 6,0 11,5 11,12z"/>
    <path fill="#DB281E" stroke="#1F1A17" d="M2601 1692c0,8 -7,14 -16,14 -9,0 -15,-6 -15,-14 0,-9 6,-15 15,-15 9,0 16,6 16,15z"/>
    <path fill="#DB281E" stroke="#1F1A17" d="M2675 1636c0,8 -7,15 -16,15 -8,0 -15,-7 -15,-15 0,-9 7,-15 15,-15 9,0 16,6 16,15z"/>
    <path fill="#B2A71C" stroke="#1F1A17" d="M2746 1673c0,9 -7,15 -16,15 -8,0 -15,-6 -15,-15 0,-8 7,-15 15,-15 9,0 16,7 16,15z"/>
    <path fill="#DB281E" stroke="#1F1A17" d="M2738 1766c0,9 -7,15 -16,15 -8,0 -15,-6 -15,-15 0,-8 7,-15 15,-15 9,0 16,7 16,15z"/>
    <path fill="#DB281E" stroke="#1F1A17" d="M2445 1706c0,8 -7,15 -16,15 -9,0 -15,-7 -15,-15 0,-9 6,-15 15,-15 9,0 16,6 16,15z"/>
    <path fill="#DB281E" stroke="#1F1A17" d="M2526 1611c0,8 -6,15 -15,15 -9,0 -16,-7 -16,-15 0,-9 7,-15 16,-15 9,0 15,6 15,15z"/>
    <path fill="#009341" stroke="#1F1A17" d="M2540 1649c-2,4 -1,4 -2,6 0,0 10,2 17,1 1,-1 21,-5 28,-15 -6,5 -15,8 -27,10 -15,-2 -16,-2 -16,-2z"/>
    <path fill="#009341" stroke="#1F1A17" d="M2540 1457c-2,3 -1,3 -2,5 0,0 8,1 13,0 1,0 16,-3 21,-11 -4,4 -11,6 -20,7 -12,-1 -12,-1 -12,-1z"/>
    <path fill="#009341" stroke="#1F1A17" d="M2536 1414c2,3 1,3 2,5 0,0 -8,1 -12,0 -1,0 -15,-3 -20,-10 4,4 10,6 19,7 10,-1 11,-2 11,-2z"/>
    <path fill="#009341" stroke="#1F1A17" d="M2535 1552c3,4 2,4 2,6 0,0 -10,1 -16,1 -2,-1 -21,-5 -27,-15 5,5 14,8 26,10 15,-2 15,-2 15,-2z"/>
    <path fill="#009341" stroke="#1F1A17" d="M2536 1716c3,6 2,6 2,8 0,0 -13,2 -21,1 -2,-1 -28,-6 -36,-19 7,6 19,11 34,13 20,-2 20,-3 21,-3z"/>
    <path fill="#009341" stroke="#1F1A17" d="M2540 1820c-2,6 -1,6 -2,8 0,0 13,2 21,1 3,0 28,-5 36,-19 -7,6 -18,11 -34,13 -20,-2 -20,-3 -21,-3z"/>
   </g>
   <g id="Flr_cor"  onclick="parent.replacechar('Flr_cor')" onmousemove="parent.showtooltip('Flr_cor','Corymb')"  onmouseout="parent.hidetooltip('Flr_cor')" cursor="pointer" >
    <path fill="none" stroke="#1F1A17" stroke-linejoin="bevel" d="M1992 1585l0 268"/>
    <path fill="none" stroke="#1F1A17" stroke-linejoin="bevel" d="M1992 1331l0 279"/>
    <path fill="#FFF500" stroke="#1F1A17" d="M1992 1329c-10,0 -18,-12 -18,-26 0,-14 8,-26 18,-26 9,0 17,12 17,26 0,14 -8,26 -17,26z"/>
    <path fill="none" stroke="#1F1A17" stroke-linejoin="bevel" d="M2053 1329l-58 92"/>
    <path fill="#B2A71C" stroke="#1F1A17" d="M2050 1330c-8,-6 -8,-22 0,-33 9,-13 23,-18 32,-10 9,6 8,22 0,35 -9,11 -24,15 -32,8z"/>
    <path fill="none" stroke="#1F1A17" stroke-linejoin="bevel" d="M2163 1320l-171 218"/>
    <path fill="#DB281E" stroke="#1F1A17" d="M2150 1335c-11,-8 -13,-26 -4,-39 10,-14 25,-17 37,-10 10,9 14,27 3,40 -8,14 -24,18 -36,9z"/>
    <path fill="none" stroke="#1F1A17" stroke-linejoin="bevel" d="M1813 1336l179 239"/>
    <path fill="#DB281E" stroke="#1F1A17" d="M1815 1336c11,-9 12,-28 2,-41 -11,-14 -27,-17 -40,-8 -10,10 -12,28 0,42 9,14 26,17 38,7z"/>
    <path fill="#009341" stroke="#1F1A17" d="M1992 1539c0,8 2,13 2,14 15,0 43,-12 46,-34 -4,10 -13,17 -27,22l-19 0c0,0 0,-2 -2,-2z"/>
    <path fill="#009341" stroke="#1F1A17" d="M1992 1577c0,8 -3,14 -4,14 -8,5 -43,-12 -47,-35 4,11 14,18 29,23l19 0c0,-1 0,-2 3,-2z"/>
    <path fill="none" stroke="#1F1A17" stroke-linejoin="bevel" d="M1903 1329l88 155"/>
    <path fill="#B2A71C" stroke="#1F1A17" d="M1909 1333c10,-5 12,-20 5,-32 -9,-13 -23,-19 -34,-13 -10,6 -12,21 -4,34 8,12 23,17 33,11z"/>
    <path fill="#009341" stroke="#1F1A17" d="M1993 1425c0,7 2,12 2,12 13,0 37,-11 40,-30 -4,8 -12,15 -24,19l-16 0c0,0 0,-1 -2,-1z"/>
    <path fill="#009341" stroke="#1F1A17" d="M1991 1489c0,7 -2,11 -2,12 -13,0 -37,-10 -40,-28 3,8 12,14 24,18l16 0c0,0 0,-2 2,-2z"/>
   </g>
   <g id="Flr_umb"  onclick="parent.replacechar('Flr_umb')" onmousemove="parent.showtooltip('Flr_umb','Umbel')"  onmouseout="parent.hidetooltip('Flr_umb')" cursor="pointer" >
    <path fill="none" stroke="#1F1A17" stroke-linejoin="bevel" d="M1413 1585l0 271"/>
    <path fill="none" stroke="#1F1A17" stroke-linejoin="bevel" d="M1413 1338l0 283"/>
    <path fill="#FFF500" stroke="#1F1A17" d="M1413 1340c-8,0 -14,-12 -14,-26 0,-15 6,-27 14,-27 8,0 14,12 14,27 0,14 -6,26 -14,26z"/>
    <path fill="none" stroke="#1F1A17" stroke-linejoin="bevel" d="M1515 1340l-101 242"/>
    <path fill="#B2A71C" stroke="#1F1A17" d="M1512 1341c-6,-5 -7,-20 -2,-32 5,-13 14,-19 21,-13 7,6 8,21 3,34 -5,12 -16,17 -22,11z"/>
    <path fill="none" stroke="#1F1A17" stroke-linejoin="bevel" d="M1611 1339l-200 243"/>
    <path fill="#DB281E" stroke="#1F1A17" d="M1605 1342c-5,-13 1,-30 13,-39 14,-9 28,-6 33,7 5,13 0,30 -14,39 -12,9 -26,6 -32,-7z"/>
    <path fill="none" stroke="#1F1A17" stroke-linejoin="bevel" d="M1315 1348l101 242"/>
    <path fill="#B2A71C" stroke="#1F1A17" d="M1316 1345c6,-6 7,-21 3,-33 -6,-13 -15,-18 -22,-13 -7,6 -8,22 -3,34 5,12 16,18 22,12z"/>
    <path fill="none" stroke="#1F1A17" stroke-linejoin="bevel" d="M1235 1361l178 221"/>
    <path fill="#DB281E" stroke="#1F1A17" d="M1239 1349c5,-13 -1,-31 -12,-40 -13,-10 -26,-6 -31,7 -4,13 0,32 13,41 12,9 25,7 30,-8z"/>
    <path fill="#009341" stroke="#1F1A17" d="M1413 1582c0,8 2,14 2,15 14,0 37,-13 40,-36 -3,10 -11,17 -24,23l-16 0c0,0 0,-2 -2,-2z"/>
    <path fill="#009341" stroke="#1F1A17" d="M1413 1582c0,8 -2,14 -3,14 -7,5 -36,-12 -39,-35 4,10 12,17 23,23l17 0c0,-1 0,-2 2,-2z"/>
   </g>
   <g id="Flr_cyc"  onclick="parent.replacechar('Flr_cyc')" onmousemove="parent.showtooltip('Flr_cyc','Compound cyme')"  onmouseout="parent.hidetooltip('Flr_cyc')" cursor="pointer" >
    <path fill="#DB281E" stroke="#1F1A17" stroke-linejoin="bevel" d="M840 1407l0 446 0 -446z"/>
    <path fill="#DB281E" stroke="#1F1A17" d="M839 1407c-17,0 -30,-13 -30,-28 0,-15 13,-27 30,-27 16,0 30,12 30,27 0,15 -14,28 -30,28z"/>
    <path fill="#009341" stroke="#1F1A17" d="M839 1522c0,10 5,17 5,17 3,1 47,-8 53,-41 -5,11 -16,21 -32,27l-21 0c-2,0 -1,-3 -5,-3z"/>
    <path fill="#DB281E" stroke="#1F1A17" stroke-linejoin="bevel" d="M839 1525l212 -196 -212 196z"/>
    <path fill="#DB281E" stroke="#1F1A17" stroke-linejoin="bevel" d="M998 1379l-41 -74 41 74z"/>
    <path fill="#DB281E" stroke="#1F1A17" stroke-linejoin="bevel" d="M999 1379l76 41 -76 -41z"/>
    <path fill="#B2A71C" stroke="#1F1A17" d="M1070 1442c-10,-5 -13,-16 -8,-25 4,-9 15,-14 23,-9 10,5 13,16 9,25 -5,10 -16,13 -24,9z"/>
    <path fill="#B2A71C" stroke="#1F1A17" d="M946 1310c-8,-4 -12,-15 -8,-25 5,-9 15,-13 25,-8 9,4 13,14 8,24 -4,9 -15,14 -25,9z"/>
    <path fill="#FFF500" stroke="#1F1A17" d="M1045 1353c-13,0 -21,-8 -21,-18 0,-9 8,-19 21,-19 11,0 20,10 20,19 0,10 -9,18 -20,18z"/>
    <path fill="#009341" stroke="#1F1A17" d="M840 1522c0,10 -5,17 -5,17 -3,1 -47,-8 -53,-41 6,11 17,21 32,27l21 0c2,0 2,-3 5,-3z"/>
    <path fill="#DB281E" stroke="#1F1A17" stroke-linejoin="bevel" d="M840 1525l-212 -196 212 196z"/>
    <path fill="#DB281E" stroke="#1F1A17" stroke-linejoin="bevel" d="M694 1389l41 -74 -41 74z"/>
    <path fill="#DB281E" stroke="#1F1A17" stroke-linejoin="bevel" d="M692 1389l-76 41 76 -41z"/>
    <path fill="#B2A71C" stroke="#1F1A17" d="M621 1451c10,-4 13,-15 8,-25 -4,-8 -15,-13 -23,-8 -9,5 -13,15 -9,24 5,11 16,14 24,9z"/>
    <path fill="#B2A71C" stroke="#1F1A17" d="M745 1320c9,-4 12,-16 8,-25 -4,-10 -15,-13 -25,-9 -9,4 -12,15 -8,24 5,10 15,14 25,10z"/>
    <path fill="#FFF500" stroke="#1F1A17" d="M646 1363c12,0 22,-8 22,-19 0,-10 -10,-20 -22,-20 -12,0 -22,10 -22,20 0,11 10,19 22,19z"/>
    <path fill="#009341" stroke="#1F1A17" d="M692 1392c7,4 10,8 10,8 -1,3 -5,8 -9,13 -1,0 -15,15 -33,9 27,0 31,-27 32,-30z"/>
    <path fill="#009341" stroke="#1F1A17" d="M696 1389c3,7 7,10 7,10 4,-1 9,-5 13,-9 0,-1 14,-16 8,-33 1,26 -26,32 -28,32z"/>
    <path fill="#009341" stroke="#1F1A17" d="M997 1383c-6,3 -9,7 -9,7 0,3 5,8 8,13 1,1 15,15 33,10 -26,0 -31,-28 -32,-30z"/>
    <path fill="#009341" stroke="#1F1A17" d="M993 1380c-3,6 -7,9 -7,9 -3,0 -8,-5 -13,-9 0,-1 -14,-15 -8,-33 -1,26 26,32 28,33z"/>
   </g>
   <g id="Flr_cys"  onclick="parent.replacechar('Flr_cys')" onmousemove="parent.showtooltip('Flr_cys','Simple cyme')"  onmouseout="parent.hidetooltip('Flr_cys')" cursor="pointer" >
    <path fill="none" stroke="#1F1A17" stroke-linejoin="bevel" d="M253 1378l1 472"/>
    <path fill="#DB281E" stroke="#1F1A17" d="M254 1383c-19,0 -33,-15 -33,-33 0,-18 14,-34 33,-34 17,0 33,16 33,34 0,18 -16,33 -33,33z"/>
    <path fill="#009341" stroke="#1F1A17" d="M249 1460c4,11 2,21 2,21 -4,3 -16,4 -28,5 -1,-1 -36,-1 -52,-30 32,33 74,6 78,4z"/>
    <path fill="none" stroke="#1F1A17" stroke-linejoin="bevel" d="M250 1457l-153 -128"/>
    <path fill="#B2A71C" stroke="#1F1A17" d="M99 1328c-9,12 -29,10 -44,-5 -15,-14 -19,-37 -10,-47 10,-13 31,-10 44,4 16,14 20,36 10,48z"/>
    <path fill="#009341" stroke="#1F1A17" d="M257 1461c-4,11 -2,21 -2,21 4,3 16,4 28,5 1,-1 36,-1 52,-30 -32,33 -74,6 -78,4z"/>
    <path fill="none" stroke="#1F1A17" stroke-linejoin="bevel" d="M256 1458l153 -129"/>
    <path fill="#B2A71C" stroke="#1F1A17" d="M407 1329c9,12 29,10 44,-5 15,-14 19,-36 10,-48 -10,-12 -30,-9 -44,5 -16,14 -20,36 -10,48z"/>
    <path fill="none" stroke="#1F1A17" stroke-linejoin="bevel" d="M410 1616l1 237"/>
    <path fill="#009341" stroke="#1F1A17" d="M408 1634c2,7 1,12 1,12 -2,2 -9,2 -15,3 -1,0 -21,0 -29,-17 18,19 41,3 43,2z"/>
    <path fill="none" stroke="#1F1A17" stroke-linejoin="bevel" d="M409 1633l-86 -72"/>
    <path fill="#DB281E" stroke="#1F1A17" d="M324 1560c-5,7 -16,6 -25,-2 -8,-8 -11,-21 -5,-27 5,-7 17,-5 25,3 8,8 11,20 5,26z"/>
    <path fill="#009341" stroke="#1F1A17" d="M413 1635c-3,6 -2,12 -2,12 3,2 10,2 16,3 1,-1 20,-1 29,-18 -18,19 -41,4 -43,3z"/>
    <path fill="none" stroke="#1F1A17" stroke-linejoin="bevel" d="M412 1633l85 -72"/>
    <path fill="#DB281E" stroke="#1F1A17" d="M496 1561c6,7 17,5 26,-3 7,-8 10,-20 5,-26 -6,-7 -17,-5 -25,2 -9,8 -11,20 -6,27z"/>
    <path fill="#221D1A" stroke="#1F1A17" stroke-linejoin="bevel" d="M397 1578l25 16 -25 -16z"/>
    <path fill="#221D1A" stroke="#1F1A17" stroke-linejoin="bevel" d="M396 1593l25 -15 -25 15z"/>
   </g>
   <g id="Flr_rac"  onclick="parent.replacechar('Flr_rac')" onmousemove="parent.showtooltip('Flr_rac','Raceme')"  onmouseout="parent.hidetooltip('Flr_rac')" cursor="pointer" >
    <path fill="none" stroke="#1F1A17" d="M2529 308l10 15"/>
    <path fill="none" stroke="#1F1A17" d="M2562 353l-21 12"/>
    <path fill="none" stroke="#1F1A17" d="M2620 697l-79 47"/>
    <path fill="none" stroke="#1F1A17" d="M2479 622l60 41"/>
    <path fill="none" stroke="#1F1A17" d="M2581 434l-40 31"/>
    <path fill="#FFF500" stroke="#1F1A17" d="M2516 316c-10,0 -18,-8 -18,-17 0,-9 8,-18 18,-18 10,0 18,9 18,18 0,9 -8,17 -18,17z"/>
    <path fill="#FFF500" stroke="#1F1A17" d="M2570 360c-11,0 -18,-8 -18,-17 0,-10 7,-18 18,-18 9,0 17,8 17,18 0,9 -8,17 -17,17z"/>
    <path fill="#009341" stroke="#1F1A17" d="M2541 368c-2,4 -1,4 -1,6 0,0 9,1 15,1 2,-1 20,-4 26,-14 -5,5 -13,8 -25,9 -14,-1 -14,-2 -15,-2z"/>
    <path fill="#009341" stroke="#1F1A17" d="M2537 323c2,5 1,5 2,7 0,0 -9,1 -15,1 -2,-1 -19,-5 -24,-17 5,5 12,9 23,11 13,-2 14,-2 14,-2z"/>
    <path fill="none" stroke="#1F1A17" d="M2516 397l21 13"/>
    <path fill="#B2A71C" stroke="#1F1A17" d="M2509 405c10,0 18,-8 18,-18 0,-9 -8,-18 -18,-18 -10,0 -17,9 -17,18 0,10 7,18 17,18z"/>
    <path fill="#009341" stroke="#1F1A17" d="M2537 413c2,4 1,4 2,6 0,0 -10,1 -16,0 -1,0 -20,-4 -25,-13 5,4 13,7 24,9 14,-2 15,-2 15,-2z"/>
    <path fill="#B2A71C" stroke="#1F1A17" d="M2601 447c-13,0 -23,-10 -23,-23 0,-12 10,-23 23,-23 13,0 23,11 23,23 0,13 -10,23 -23,23z"/>
    <path fill="#009341" stroke="#1F1A17" d="M2542 466c-3,6 -2,6 -2,8 0,0 12,2 20,1 2,-1 26,-5 34,-18 -7,6 -17,10 -32,12 -19,-2 -20,-2 -20,-3z"/>
    <path fill="none" stroke="#1F1A17" d="M2497 484l39 32"/>
    <path fill="#B2A71C" stroke="#1F1A17" d="M2476 498c14,0 24,-11 24,-23 0,-12 -10,-24 -24,-24 -13,0 -23,12 -23,24 0,12 10,23 23,23z"/>
    <path fill="#009341" stroke="#1F1A17" d="M2535 517c3,5 2,5 2,7 0,0 -12,2 -20,1 -2,0 -26,-5 -33,-18 6,6 17,10 32,12 18,-2 19,-2 19,-2z"/>
    <path fill="none" stroke="#1F1A17" d="M2589 556l-48 31"/>
    <path fill="#DB281E" stroke="#1F1A17" d="M2608 564c-14,0 -24,-10 -24,-23 0,-12 10,-23 24,-23 13,0 23,11 23,23 0,13 -10,23 -23,23z"/>
    <path fill="#009341" stroke="#1F1A17" d="M2541 588c-2,5 -1,5 -2,8 0,0 13,2 20,1 3,-1 26,-6 34,-18 -7,6 -17,10 -32,12 -19,-2 -19,-3 -20,-3z"/>
    <path fill="#DB281E" stroke="#1F1A17" d="M2461 628c-13,0 -23,-10 -23,-23 0,-12 10,-23 23,-23 13,0 23,11 23,23 0,13 -10,23 -23,23z"/>
    <path fill="#009341" stroke="#1F1A17" d="M2536 663c3,6 2,6 2,8 0,0 -12,2 -20,1 -2,-1 -26,-5 -33,-18 6,6 17,10 32,12 18,-2 19,-3 19,-3z"/>
    <path fill="#009341" stroke="#1F1A17" d="M2543 747c-3,6 -2,6 -2,8 0,0 12,2 20,1 2,-1 26,-6 34,-18 -7,6 -18,10 -32,12 -19,-2 -20,-3 -20,-3z"/>
    <path fill="#DB281E" stroke="#1F1A17" d="M2644 712c-14,0 -24,-10 -24,-23 0,-12 10,-23 24,-23 13,0 22,11 22,23 0,13 -9,23 -22,23z"/>
    <path fill="#221D1A" stroke="#1F1A17" stroke-linejoin="bevel" d="M2521 272c3,5 31,4 35,0 -5,-20 -6,-28 -17,-55l-18 55z"/>
    <path fill="#00799E" stroke="#1F1A17" stroke-linejoin="bevel" d="M2539 276l-1 564 1 -564z"/>
   </g>
   <g id="Flr_cat"  onclick="parent.replacechar('Flr_cat')" onmousemove="parent.showtooltip('Flr_cat','Catkin')"  onmouseout="parent.hidetooltip('Flr_cat')" cursor="pointer" >
    <path fill="#009341" stroke="#1F1A17" d="M2067 247c4,-5 1,-11 1,-12 -2,-3 -3,-12 -9,-16 -1,0 -16,-18 -29,-6 8,-4 21,6 26,12 6,6 4,12 5,18 0,1 5,2 6,4z"/>
    <path fill="none" stroke="#1F1A17" stroke-linejoin="bevel" d="M2066 247c-16,-6 -21,-6 -30,-4 -46,2 -45,41 -49,56"/>
    <path fill="none" stroke="#1F1A17" stroke-linejoin="bevel" d="M1987 299l0 479"/>
    <path fill="#DB281E" stroke="#1F1A17" d="M2016 347c0,8 -6,14 -15,14 -8,0 -14,-6 -14,-14 0,-8 6,-14 14,-14 9,0 15,6 15,14z"/>
    <path fill="#DB281E" stroke="#1F1A17" d="M1986 378c0,8 -7,14 -15,14 -8,0 -14,-6 -14,-14 0,-8 6,-14 14,-14 8,0 15,6 15,14z"/>
    <path fill="#DB281E" stroke="#1F1A17" d="M2016 401c0,8 -6,14 -14,14 -8,0 -15,-6 -15,-14 0,-8 7,-14 15,-14 8,0 14,6 14,14z"/>
    <path fill="#DB281E" stroke="#1F1A17" d="M1986 426c0,8 -7,14 -15,14 -8,0 -14,-6 -14,-14 0,-8 6,-14 14,-14 8,0 15,6 15,14z"/>
    <path fill="#DB281E" stroke="#1F1A17" d="M2016 446c0,7 -6,13 -15,13 -8,0 -14,-6 -14,-13 0,-8 6,-15 14,-15 9,0 15,7 15,15z"/>
    <path fill="#DB281E" stroke="#1F1A17" d="M1987 475c0,7 -6,13 -15,13 -8,0 -14,-6 -14,-13 0,-8 6,-15 14,-15 9,0 15,7 15,15z"/>
    <path fill="#B2A71C" stroke="#1F1A17" d="M2016 499c0,8 -6,14 -14,14 -8,0 -15,-6 -15,-14 0,-7 7,-14 15,-14 8,0 14,7 14,14z"/>
    <path fill="#B2A71C" stroke="#1F1A17" d="M1987 528c0,8 -6,13 -15,13 -8,0 -14,-5 -14,-13 0,-8 6,-15 14,-15 9,0 15,7 15,15z"/>
    <path fill="#B2A71C" stroke="#1F1A17" d="M2016 551c0,7 -6,13 -15,13 -8,0 -14,-6 -14,-13 0,-8 6,-15 14,-15 9,0 15,7 15,15z"/>
    <path fill="#DB281E" stroke="#1F1A17" stroke-linejoin="bevel" d="M2070 205l0 102 0 -102z"/>
    <path fill="#B2A71C" stroke="#1F1A17" d="M1987 576c0,8 -6,14 -15,14 -8,0 -14,-6 -14,-14 0,-8 6,-14 14,-14 9,0 15,6 15,14z"/>
    <path fill="#B2A71C" stroke="#1F1A17" d="M1987 628c0,8 -6,14 -15,14 -8,0 -14,-6 -14,-14 0,-8 6,-14 14,-14 9,0 15,6 15,14z"/>
    <path fill="#FFF500" stroke="#1F1A17" d="M1987 680c0,7 -6,13 -15,13 -8,0 -14,-6 -14,-13 0,-8 6,-15 14,-15 9,0 15,7 15,15z"/>
    <path fill="#B2A71C" stroke="#1F1A17" d="M2016 600c0,8 -6,14 -14,14 -8,0 -15,-6 -15,-14 0,-8 7,-14 15,-14 8,0 14,6 14,14z"/>
    <path fill="#FFF500" stroke="#1F1A17" d="M2016 652c0,8 -6,13 -15,13 -8,0 -14,-5 -14,-13 0,-8 6,-15 14,-15 9,0 15,7 15,15z"/>
    <path fill="#FFF500" stroke="#1F1A17" d="M2016 703c0,8 -6,14 -15,14 -8,0 -14,-6 -14,-14 0,-8 6,-14 14,-14 9,0 15,6 15,14z"/>
    <path fill="#FFF500" stroke="#1F1A17" d="M1987 724c0,8 -6,14 -15,14 -8,0 -14,-6 -14,-14 0,-7 6,-14 14,-14 9,0 15,7 15,14z"/>
    <path fill="#FFF500" stroke="#1F1A17" d="M2016 751c0,8 -6,14 -14,14 -8,0 -15,-6 -15,-14 0,-8 7,-14 15,-14 8,0 14,6 14,14z"/>
    <path fill="#221D1A" stroke="#1F1A17" stroke-linejoin="bevel" d="M1969 783c2,-5 31,-4 34,0 -5,20 -6,28 -17,55l-17 -55z"/>
    <path fill="#009341" stroke="#1F1A17" d="M1981 363c3,-4 2,-4 3,-6 0,0 -7,-2 -12,-2 -1,0 -14,1 -20,11 4,-4 10,-6 19,-7 10,3 10,4 10,4z"/>
    <path fill="#009341" stroke="#1F1A17" d="M1983 412c2,-4 1,-4 2,-6 0,0 -7,-3 -12,-3 -1,1 -14,2 -20,12 4,-4 11,-7 19,-7 10,3 11,3 11,4z"/>
    <path fill="#009341" stroke="#1F1A17" d="M1983 460c2,-4 1,-4 2,-6 0,0 -7,-3 -12,-3 -1,1 -14,2 -20,12 4,-4 11,-7 19,-7 10,3 11,4 11,4z"/>
    <path fill="#009341" stroke="#1F1A17" d="M1982 513c3,-3 2,-4 2,-6 0,0 -6,-2 -11,-2 -1,0 -15,2 -21,11 5,-4 11,-6 20,-6 10,3 10,3 10,3z"/>
    <path fill="#009341" stroke="#1F1A17" d="M1990 333c-2,-3 -1,-4 -2,-5 0,0 7,-3 11,-3 1,0 15,2 21,11 -5,-4 -11,-6 -19,-6 -10,3 -11,3 -11,3z"/>
    <path fill="#009341" stroke="#1F1A17" d="M1990 388c-3,-4 -2,-4 -3,-6 0,0 7,-3 12,-3 1,1 15,2 21,12 -5,-4 -11,-7 -20,-7 -10,3 -10,3 -10,4z"/>
    <path fill="#009341" stroke="#1F1A17" d="M1990 432c-3,-4 -2,-4 -3,-6 0,0 7,-2 12,-2 1,0 15,1 21,11 -5,-4 -11,-6 -20,-7 -10,3 -10,4 -10,4z"/>
    <path fill="#009341" stroke="#1F1A17" d="M1990 486c-2,-4 -1,-4 -2,-6 0,0 7,-2 11,-2 1,0 15,1 21,11 -4,-4 -11,-7 -19,-7 -10,3 -11,4 -11,4z"/>
    <path fill="#009341" stroke="#1F1A17" d="M1990 537c-2,-4 -1,-4 -2,-6 0,0 7,-3 11,-3 1,1 15,2 21,12 -4,-4 -11,-7 -19,-7 -10,3 -11,3 -11,4z"/>
    <path fill="#009341" stroke="#1F1A17" d="M1990 586c-2,-3 -1,-4 -2,-5 0,0 7,-3 11,-3 1,0 15,2 21,12 -5,-5 -11,-7 -19,-7 -10,3 -11,3 -11,3z"/>
    <path fill="#009341" stroke="#1F1A17" d="M1990 639c-2,-4 -1,-4 -2,-6 0,0 7,-3 11,-3 1,1 15,2 21,12 -5,-4 -11,-7 -19,-7 -10,3 -11,3 -11,4z"/>
    <path fill="#009341" stroke="#1F1A17" d="M1990 690c-2,-4 -1,-4 -2,-6 0,0 7,-2 11,-2 1,0 15,2 21,11 -4,-4 -11,-6 -19,-7 -10,4 -11,4 -11,4z"/>
    <path fill="#009341" stroke="#1F1A17" d="M1990 738c-2,-4 -1,-4 -2,-6 0,0 7,-3 11,-3 1,1 15,2 21,12 -4,-4 -11,-7 -19,-7 -10,3 -11,3 -11,4z"/>
    <path fill="#009341" stroke="#1F1A17" d="M1983 562c2,-4 1,-4 2,-6 0,0 -7,-2 -11,-2 -1,0 -15,1 -21,11 5,-4 11,-6 19,-7 10,3 11,4 11,4z"/>
    <path fill="#009341" stroke="#1F1A17" d="M1982 614c3,-3 2,-4 2,-5 0,0 -6,-3 -11,-3 -1,0 -15,2 -21,11 5,-4 11,-6 20,-6 10,3 10,3 10,3z"/>
    <path fill="#009341" stroke="#1F1A17" d="M1983 666c2,-4 1,-4 2,-6 0,0 -7,-2 -11,-2 -1,0 -15,2 -21,11 5,-4 11,-6 19,-7 10,4 11,4 11,4z"/>
    <path fill="#009341" stroke="#1F1A17" d="M1982 710c3,-3 2,-4 2,-5 0,0 -6,-3 -11,-3 -1,0 -15,2 -21,11 5,-4 11,-6 20,-6 10,3 10,3 10,3z"/>
   </g>
   <g id="Flr_spa"  onclick="parent.replacechar('Flr_spa')" onmousemove="parent.showtooltip('Flr_spa','Spadix')"  onmouseout="parent.hidetooltip('Flr_spa')" cursor="pointer" >
    <path fill="#D0C9C9" stroke="#1F1A17" stroke-linejoin="bevel" d="M1387 827c-34,-310 -32,-194 -56,-393 -7,-115 5,-219 94,-212 89,6 95,61 87,210 2,68 -28,151 -44,395 -9,0 -77,0 -81,0z"/>
    <path fill="#FFF500" stroke="#1F1A17" d="M1339 302c-8,0 -14,-7 -14,-16 0,-9 6,-17 14,-17 8,0 14,8 14,17 0,9 -6,16 -14,16z"/>
    <path fill="#FFF500" stroke="#1F1A17" d="M1523 367c-10,0 -18,-8 -18,-17 0,-9 8,-18 18,-18 10,0 17,9 17,18 0,9 -7,17 -17,17z"/>
    <path fill="#B2A71C" stroke="#1F1A17" d="M1320 412c-12,0 -21,-9 -21,-19 0,-10 9,-19 21,-19 11,0 20,9 20,19 0,10 -9,19 -20,19z"/>
    <path fill="#B2A71C" stroke="#1F1A17" d="M1522 469c-12,0 -21,-8 -21,-18 0,-10 9,-19 21,-19 11,0 20,9 20,19 0,10 -9,18 -20,18z"/>
    <path fill="#B2A71C" stroke="#1F1A17" d="M1326 529c-14,0 -25,-10 -25,-22 0,-11 11,-21 25,-21 14,0 24,10 24,21 0,12 -10,22 -24,22z"/>
    <path fill="#DB281E" stroke="#1F1A17" d="M1507 591c-15,0 -25,-10 -25,-23 0,-12 10,-24 25,-24 13,0 24,12 24,24 0,13 -11,23 -24,23z"/>
    <path fill="#DB281E" stroke="#1F1A17" d="M1349 661c-16,0 -27,-9 -27,-21 0,-12 11,-23 27,-23 14,0 25,11 25,23 0,12 -11,21 -25,21z"/>
    <path fill="#009341" stroke="#1F1A17" d="M1342 304c1,4 0,4 0,6 0,0 -7,0 -11,-2 -1,-1 -13,-8 -14,-19 2,5 7,10 14,14 11,1 11,1 11,1z"/>
    <path fill="#009341" stroke="#1F1A17" d="M1506 369c-2,5 -1,5 -1,7 0,0 9,1 14,1 2,-1 19,-5 25,-17 -5,6 -13,9 -24,11 -13,-2 -13,-2 -14,-2z"/>
    <path fill="#009341" stroke="#1F1A17" d="M1338 412c2,7 1,7 1,10 0,0 -10,2 -18,1 -1,-1 -22,-6 -29,-22 6,7 15,12 28,15 16,-3 17,-3 18,-4z"/>
    <path fill="#009341" stroke="#1F1A17" d="M1502 468c-3,6 -2,6 -2,9 0,0 12,2 19,1 3,0 25,-6 33,-21 -7,7 -17,12 -31,14 -18,-2 -19,-2 -19,-3z"/>
    <path fill="#009341" stroke="#1F1A17" d="M1351 529c3,6 2,6 2,9 0,0 -12,2 -21,2 -2,-1 -27,-6 -35,-22 7,7 18,12 33,14 20,-2 20,-3 21,-3z"/>
    <path fill="#009341" stroke="#1F1A17" d="M1482 589c-3,8 -2,8 -2,12 0,0 15,3 25,2 3,-1 32,-8 42,-29 -9,9 -21,16 -40,19 -23,-3 -24,-3 -25,-4z"/>
    <path fill="#009341" stroke="#1F1A17" d="M1380 659c4,7 2,7 3,10 0,0 -14,5 -25,6 -3,-1 -33,-3 -46,-21 10,7 24,12 43,12 23,-6 24,-7 25,-7z"/>
    <path fill="#009341" stroke="#1F1A17" d="M1466 729c-3,7 -2,7 -2,11 0,0 16,3 27,2 3,-1 34,-7 45,-26 -10,8 -23,14 -43,17 -24,-3 -25,-3 -27,-4z"/>
    <path fill="#DB281E" stroke="#1F1A17" d="M1494 728c-18,0 -31,-12 -31,-26 0,-14 13,-27 31,-27 16,0 29,13 29,27 0,14 -13,26 -29,26z"/>
    <path fill="#FFF500" stroke="#1F1A17" d="M1500 275c9,0 15,-7 15,-16 0,-9 -6,-17 -15,-17 -8,0 -14,8 -14,17 0,9 6,16 14,16z"/>
    <path fill="#009341" stroke="#1F1A17" d="M1496 279c-1,5 1,4 1,7 0,0 7,-1 11,-3 1,-1 13,-8 14,-19 -3,6 -7,10 -15,14 -10,2 -11,2 -11,1z"/>
   </g>
   <g id="Flr_spi"  onclick="parent.replacechar('Flr_spi')" onmousemove="parent.showtooltip('Flr_spi','Spike')"  onmouseout="parent.hidetooltip('Flr_spi')" cursor="pointer" >
    <path fill="#FFF500" stroke="#1F1A17" d="M834 328c-8,0 -14,-8 -14,-17 0,-8 6,-17 14,-17 8,0 14,9 14,17 0,9 -6,17 -14,17z"/>
    <path fill="#FFF500" stroke="#1F1A17" d="M869 368c-10,0 -18,-8 -18,-18 0,-9 8,-18 18,-18 10,0 17,9 17,18 0,10 -7,18 -17,18z"/>
    <path fill="#FFF500" stroke="#1F1A17" d="M829 415c-12,0 -21,-8 -21,-18 0,-10 9,-19 21,-19 11,0 20,9 20,19 0,10 -9,18 -20,18z"/>
    <path fill="#B2A71C" stroke="#1F1A17" d="M873 468c-12,0 -21,-8 -21,-18 0,-10 9,-19 21,-19 11,0 20,9 20,19 0,10 -9,18 -20,18z"/>
    <path fill="#B2A71C" stroke="#1F1A17" d="M824 529c-14,0 -25,-10 -25,-21 0,-11 11,-22 25,-22 14,0 25,11 25,22 0,11 -11,21 -25,21z"/>
    <path fill="#B2A71C" stroke="#1F1A17" d="M878 592c-14,0 -25,-11 -25,-23 0,-13 11,-24 25,-24 14,0 24,11 24,24 0,12 -10,23 -24,23z"/>
    <path fill="#DB281E" stroke="#1F1A17" d="M822 669c-15,0 -26,-10 -26,-22 0,-11 11,-22 26,-22 15,0 26,11 26,22 0,12 -11,22 -26,22z"/>
    <path fill="#009341" stroke="#1F1A17" d="M847 325c3,4 2,4 3,6 0,0 -7,2 -12,2 -1,0 -14,-1 -20,-11 4,4 10,7 19,7 10,-3 10,-4 10,-4z"/>
    <path fill="#009341" stroke="#1F1A17" d="M853 368c-2,5 -1,5 -2,7 0,0 9,1 15,1 2,-1 19,-5 24,-17 -5,5 -12,9 -23,11 -13,-2 -14,-2 -14,-2z"/>
    <path fill="#009341" stroke="#1F1A17" d="M848 414c2,7 1,7 2,10 0,0 -11,2 -18,1 -2,-1 -23,-6 -30,-22 6,7 16,12 29,15 16,-3 17,-3 17,-4z"/>
    <path fill="#009341" stroke="#1F1A17" d="M853 467c-3,6 -2,6 -2,9 0,0 12,2 19,1 2,0 25,-6 33,-21 -7,7 -17,12 -31,14 -18,-2 -19,-2 -19,-3z"/>
    <path fill="#009341" stroke="#1F1A17" d="M848 529c2,6 1,6 1,9 0,0 -12,2 -21,2 -2,-1 -27,-6 -35,-22 7,7 18,12 34,14 19,-2 20,-3 21,-3z"/>
    <path fill="#009341" stroke="#1F1A17" d="M853 590c-3,7 -1,7 -2,11 0,0 15,3 26,2 2,-1 32,-7 42,-28 -9,9 -22,15 -41,18 -22,-3 -23,-3 -25,-3z"/>
    <path fill="#009341" stroke="#1F1A17" d="M848 668c3,8 1,8 2,11 0,0 -16,3 -26,2 -3,-1 -33,-7 -43,-27 9,9 22,15 41,18 23,-3 24,-3 26,-4z"/>
    <path fill="#009341" stroke="#1F1A17" d="M853 745c-3,7 -1,7 -2,11 0,0 16,2 27,2 3,-2 34,-8 45,-27 -9,9 -23,15 -43,17 -24,-2 -25,-3 -27,-3z"/>
    <path fill="#DB281E" stroke="#1F1A17" d="M882 746c-18,0 -30,-12 -30,-26 0,-14 12,-27 30,-27 17,0 29,13 29,27 0,14 -12,26 -29,26z"/>
    <path fill="#221D1A" stroke="#1F1A17" stroke-linejoin="bevel" d="M834 271c2,5 30,4 34,0 -5,-20 -6,-28 -17,-55l-17 55z"/>
    <path fill="#00799E" stroke="#1F1A17" stroke-linejoin="bevel" d="M850 275l0 559 0 -559z"/>
   </g>
   <g id="Flr_sol"  onclick="parent.replacechar('Flr_sol')" onmousemove="parent.showtooltip('Flr_sol','Solitary flower')"  onmouseout="parent.hidetooltip('Flr_sol')" cursor="pointer" >
    <path fill="#DB281E" stroke="#1F1A17" d="M299 285c-19,0 -34,-15 -34,-33 0,-18 15,-34 34,-34 17,0 32,16 32,34 0,18 -15,33 -32,33z"/>
    <path fill="#009341" stroke="#1F1A17" d="M293 298c4,11 2,21 2,21 -4,3 -16,4 -28,5 -1,-1 -36,-1 -52,-30 32,33 74,6 78,4z"/>
    <path fill="#009341" stroke="#1F1A17" d="M301 299c-4,11 -2,21 -2,21 4,3 16,4 28,5 1,-1 36,-1 52,-30 -32,33 -74,5 -78,4z"/>
    <path fill="#00799E" stroke="#1F1A17" stroke-linejoin="bevel" d="M297 283l0 559 0 -559z"/>
   </g>
  </g>
 </g>
</svg>
