<?xml version="1.0" encoding="iso-8859-1"?>
<!DOCTYPE svg PUBLIC "-//W3C//DTD SVG 1.0//EN" "http://www.w3.org/TR/2001/REC-SVG-20010904/DTD/svg10.dtd">
<!-- Creator: CorelDRAW -->
<svg xmlns="http://www.w3.org/2000/svg" xml:space="preserve" shape-rendering="geometricPrecision" text-rendering="geometricPrecision" image-rendering="optimizeQuality" fill-rule="evenodd" clip-rule="evenodd"
 viewBox="0 0 2836 2126"
 xmlns:xlink="http://www.w3.org/1999/xlink">
 <g id="Stipule">
  <g id="Stipule-list">
   <path fill="#FFFFFF" d="M0 2126l0 -2126 2836 0 0 2126 -2836 0z"/>
   <g id="Stp_pet"  onclick="parent.replacechar('Stp_pet')" onmousemove="parent.showtooltip('Stp_pet','Petiolate leaf')"  onmouseout="parent.hidetooltip('Stp_pet')" cursor="pointer" >
    <defs>
     <linearGradient id="id0" gradientUnits="userSpaceOnUse" x1="488" y1="358" x2="620" y2="358">
      <stop offset="0" stop-color="#1F1A17"/>
      <stop offset="1" stop-color="#FFFFFF"/>
     </linearGradient>
    </defs>
    <path fill="url(#id0)" stroke="#2A2128" stroke-linejoin="bevel" d="M488 178l0 329c16,29 101,31 132,0l-1 -329 -131 0z"/>
    <path fill="#009341" stroke="#221D1A" stroke-linejoin="bevel" d="M437 342c-237,-104 -168,68 -220,206 110,40 408,-163 220,-206z"/>
    <path fill="#FFFFFF" stroke="#2A2128" stroke-linejoin="bevel" d="M618 176c0,-3 -7,-11 -18,-14 -11,-3 -32,-6 -47,-6 -15,0 -35,3 -45,6 -11,3 -20,11 -20,14 0,6 9,13 20,16 10,2 30,6 45,6 15,0 36,-4 47,-6 11,-3 18,-10 18,-16z"/>
    <path fill="#009341" stroke="#221D1A" stroke-linejoin="bevel" d="M485 262c-212,101 -99,161 -252,277 153,-106 89,-200 319,-251 -11,-1 -24,-1 -32,-3 -9,-3 -29,-18 -35,-23z"/>
   </g>
   <g id="Stp_ses"  onclick="parent.replacechar('Stp_ses')" onmousemove="parent.showtooltip('Stp_ses','Sessile leaf')"  onmouseout="parent.hidetooltip('Stp_ses')" cursor="pointer" >
    <defs>
     <linearGradient id="id1" gradientUnits="userSpaceOnUse" x1="1413" y1="352" x2="1545" y2="352">
      <stop offset="0" stop-color="#1F1A17"/>
      <stop offset="1" stop-color="#FFFFFF"/>
     </linearGradient>
    </defs>
    <path fill="url(#id1)" stroke="#2A2128" stroke-linejoin="bevel" d="M1413 172l0 330c17,28 101,30 132,-1l-1 -329 -131 0z"/>
    <path fill="#FFFFFF" stroke="#2A2128" stroke-linejoin="bevel" d="M1543 171c0,-4 -7,-11 -18,-15 -11,-3 -32,-6 -47,-6 -15,0 -35,3 -45,6 -11,4 -20,11 -20,15 0,5 9,13 20,15 10,2 30,6 45,6 15,0 36,-4 47,-6 11,-2 18,-10 18,-15z"/>
    <path fill="#009341" stroke="#221D1A" stroke-linejoin="bevel" d="M1463 323c-38,5 -40,-16 -50,-20 -252,24 -163,100 -212,231 58,21 135,-31 202,-156 23,-25 44,-46 60,-55z"/>
    <path fill="#009341" stroke="#221D1A" stroke-linejoin="bevel" d="M1416 305c-172,81 -115,129 -199,220 99,-68 24,-154 236,-201 -26,0 -33,-15 -37,-19z"/>
   </g>
   <g id="Stp_cir"  onclick="parent.replacechar('Stp_cir')" onmousemove="parent.showtooltip('Stp_cir','Circular sheath')"  onmouseout="parent.hidetooltip('Stp_cir')" cursor="pointer" >
    <defs>
     <linearGradient id="id2" gradientUnits="userSpaceOnUse" x1="2405" y1="423" x2="2495" y2="423">
      <stop offset="0" stop-color="#1F1A17"/>
      <stop offset="1" stop-color="#FFFFFF"/>
     </linearGradient>
     <linearGradient id="id3" gradientUnits="userSpaceOnUse" x1="2398" y1="243" x2="2487" y2="243">
      <stop offset="0" stop-color="#1F1A17"/>
      <stop offset="1" stop-color="#FFFFFF"/>
     </linearGradient>
    </defs>
    <path fill="url(#id2)" stroke="#2A2128" stroke-linejoin="bevel" d="M2408 296c0,75 -3,188 0,226 29,29 62,28 87,0 0,-40 -1,-151 -1,-227l-86 1z"/>
    <path fill="#009341" stroke="#2A2128" stroke-linejoin="bevel" d="M2364 257c45,50 14,183 44,224 27,26 54,30 85,4 15,-13 21,-155 22,-230 3,0 -14,-19 -151,2z"/>
    <path fill="none" d="M2500 287l0 -26"/>
    <path fill="#009341" stroke="#2A2128" stroke-linejoin="bevel" d="M2466 481c15,-3 9,-124 11,-173 25,-6 36,-49 38,-56 -18,-38 -58,-12 -116,-46 -54,-34 -78,-52 -150,-137l-139 130c152,52 229,49 289,77 14,11 74,31 101,-15"/>
    <path fill="url(#id3)" stroke="#2B2229" stroke-linejoin="bevel" d="M2487 278l0 -92 -89 0 0 91c40,22 74,10 89,1z"/>
    <path fill="#FFFFFF" stroke="#2A2128" stroke-linejoin="bevel" d="M2487 186c0,-4 -5,-9 -12,-12 -8,-2 -23,-4 -33,-4 -10,0 -24,2 -31,4 -8,3 -13,8 -13,12 0,3 5,10 13,12 7,2 21,4 31,4 10,0 25,-2 33,-4 7,-2 12,-9 12,-12z"/>
    <path fill="none" stroke="#221D1A" stroke-linejoin="bevel" d="M2183 131c64,49 203,102 207,131"/>
    <path fill="none" stroke="#221D1A" stroke-linejoin="bevel" d="M2163 150c65,50 202,86 219,114"/>
    <path fill="none" stroke="#221D1A" stroke-linejoin="bevel" d="M2130 181c72,32 155,51 233,76"/>
    <path fill="none" stroke="#221D1A" stroke-linejoin="bevel" d="M2205 110c58,53 164,100 187,136"/>
    <path fill="none" stroke="#221D1A" stroke-linejoin="bevel" d="M2230 87c48,59 161,120 162,140"/>
    <path fill="#009341" stroke="#221D1A" stroke-linejoin="bevel" d="M2487 231c7,-1 22,6 29,23 0,9 -15,32 -16,35 0,-7 -1,-18 -1,-27 -3,6 -7,15 -12,15 -1,-10 0,-33 0,-46z"/>
   </g>
   <g id="Stp_lan"  onclick="parent.replacechar('Stp_lan')" onmousemove="parent.showtooltip('Stp_lan','Lanceolate stipule')"  onmouseout="parent.hidetooltip('Stp_lan')" cursor="pointer" >
    <defs>
     <linearGradient id="id4" gradientUnits="userSpaceOnUse" x1="485" y1="1063" x2="618" y2="1063">
      <stop offset="0" stop-color="#1F1A17"/>
      <stop offset="1" stop-color="#FFFFFF"/>
     </linearGradient>
     <linearGradient id="id5" gradientUnits="userSpaceOnUse" x1="143" y1="1179" x2="583" y2="853">
      <stop offset="0" stop-color="#1F1A17"/>
      <stop offset="1" stop-color="#969594"/>
     </linearGradient>
     <linearGradient id="id6" gradientUnits="userSpaceOnUse" x1="152" y1="918" x2="523" y2="1046">
      <stop offset="0" stop-color="#1F1A17"/>
      <stop offset="1" stop-color="#969594"/>
     </linearGradient>
    </defs>
    <path fill="url(#id4)" stroke="#2A2128" stroke-linejoin="bevel" d="M485 883l0 330c17,28 102,30 133,-1l-2 -329 -131 0z"/>
    <path fill="#FFFFFF" stroke="#2A2128" stroke-linejoin="bevel" d="M616 882c0,-4 -7,-11 -19,-15 -10,-3 -31,-6 -46,-6 -16,0 -36,3 -46,6 -10,4 -20,11 -20,15 0,5 10,13 20,15 10,2 30,6 46,6 15,0 36,-4 46,-6 12,-2 19,-10 19,-15z"/>
    <path fill="#009341" stroke="#2A2128" stroke-linejoin="bevel" d="M509 1064c-6,-7 1,-18 7,-28 5,-8 36,-49 62,-59 14,-5 21,-4 29,-6 0,0 0,0 0,0 -4,3 -6,5 -15,9 -11,5 -30,28 -36,38 -5,11 -19,33 -14,46 -1,3 -8,1 -9,3 0,0 0,0 0,0 -7,-1 -17,3 -24,-3z"/>
    <path fill="none" stroke="#221D1A" stroke-linejoin="bevel" d="M576 986c-26,15 -52,56 -51,82"/>
    <path fill="url(#id5)" stroke="#221D1A" stroke-linejoin="bevel" d="M435 977c-161,204 -181,19 -290,-79 96,-23 436,-47 290,79z"/>
    <path fill="url(#id6)" stroke="#221D1A" stroke-linejoin="bevel" d="M504 1045c-158,-173 -176,-24 -333,-136 149,117 187,-13 316,184 -3,-11 15,-28 17,-48z"/>
   </g>
   <g id="Stp_spi"  onclick="parent.replacechar('Stp_spi')" onmousemove="parent.showtooltip('Stp_spi','Spiny stipule')"  onmouseout="parent.hidetooltip('Stp_spi')" cursor="pointer" >
    <defs>
     <linearGradient id="id7" gradientUnits="userSpaceOnUse" x1="1408" y1="1056" x2="1541" y2="1056">
      <stop offset="0" stop-color="#1F1A17"/>
      <stop offset="1" stop-color="#FFFFFF"/>
     </linearGradient>
    </defs>
    <path fill="#1F1A17" stroke="#2A2128" stroke-width="4" d="M1407 984l2 -10c-3,-2 -58,-25 -64,-26 0,0 61,45 61,46 0,0 1,-7 1,-10z"/>
    <path fill="url(#id7)" stroke="#2A2128" stroke-linejoin="bevel" d="M1408 876l0 330c17,28 102,30 133,-1l-2 -329 -131 0z"/>
    <path fill="#009341" stroke="#221D1A" stroke-linejoin="bevel" d="M1362 1061c-237,-104 -169,68 -220,206 109,40 408,-163 220,-206z"/>
    <path fill="#FFFFFF" stroke="#2A2128" stroke-linejoin="bevel" d="M1539 875c0,-4 -7,-11 -19,-15 -10,-3 -31,-6 -46,-6 -16,0 -36,3 -46,6 -10,4 -20,11 -20,15 0,5 10,13 20,15 10,2 30,6 46,6 15,0 36,-4 46,-6 12,-2 19,-10 19,-15z"/>
    <path fill="#009341" stroke="#221D1A" stroke-linejoin="bevel" d="M1410 981c-212,101 -99,161 -252,277 153,-106 89,-200 319,-251 -11,-1 -24,-1 -32,-3 -9,-3 -29,-18 -35,-23z"/>
    <path fill="#221D1A" stroke="#2A2128" d="M1495 1005c11,-2 64,-1 70,1 0,0 -88,11 -89,11 0,0 18,-9 19,-12z"/>
   </g>
   <g id="Stp_hok"  onclick="parent.replacechar('Stp_hok')" onmousemove="parent.showtooltip('Stp_hok','Hooked stipule')"  onmouseout="parent.hidetooltip('Stp_hok')" cursor="pointer" >
    <defs>
     <linearGradient id="id8" gradientUnits="userSpaceOnUse" x1="2371" y1="1079" x2="2503" y2="1079">
      <stop offset="0" stop-color="#1F1A17"/>
      <stop offset="1" stop-color="#FFFFFF"/>
     </linearGradient>
    </defs>
    <path fill="#221D1A" stroke="#221D1A" stroke-linejoin="bevel" d="M2349 1124c-2,-4 -3,-13 1,-19 4,-7 12,-10 15,-8 1,3 7,2 10,5 -17,0 -30,6 -26,22z"/>
    <path fill="url(#id8)" stroke="#2A2128" stroke-linejoin="bevel" d="M2371 899l0 330c17,28 101,30 132,-1l-1 -329 -131 0z"/>
    <path fill="#009341" stroke="#221D1A" stroke-linejoin="bevel" d="M2298 1031c-205,158 -180,-26 -263,-147 96,-65 435,60 263,147z"/>
    <path fill="#FFFFFF" stroke="#2A2128" stroke-linejoin="bevel" d="M2502 898c0,-4 -8,-11 -19,-15 -11,-3 -31,-6 -47,-6 -15,0 -35,3 -45,6 -11,4 -20,11 -20,15 0,5 9,13 20,15 10,2 30,6 45,6 16,0 36,-4 47,-6 11,-2 19,-10 19,-15z"/>
    <path fill="#009341" stroke="#221D1A" stroke-linejoin="bevel" d="M2366 1099c-229,-46 -137,-134 -313,-211 174,67 137,188 361,194 -11,4 -31,21 -48,17z"/>
    <path fill="#221D1A" stroke="#221D1A" stroke-linejoin="bevel" d="M2318 1232c-2,-14 6,-38 23,-49 19,-14 41,-15 49,-4 -1,8 15,13 20,23 -45,-18 -88,-15 -92,30z"/>
    <path fill="#221D1A" stroke="#221D1A" stroke-linejoin="bevel" d="M2287 1103c-2,-4 -3,-13 1,-18 4,-8 11,-11 15,-8 1,2 7,2 10,4 -17,1 -30,7 -26,22z"/>
    <path fill="#221D1A" stroke="#221D1A" stroke-linejoin="bevel" d="M2485 952c1,12 10,5 1,28 21,-26 40,0 54,23 -5,-11 -11,-45 -20,-51 -9,-5 -24,1 -35,0z"/>
    <path fill="#221D1A" stroke="#221D1A" stroke-linejoin="bevel" d="M2473 1124c2,11 9,5 2,25 18,-23 35,0 47,20 -4,-9 -9,-40 -18,-45 -7,-4 -20,1 -31,0z"/>
    <path fill="#221D1A" stroke="#221D1A" stroke-linejoin="bevel" d="M2191 1031c-2,-4 -2,-11 0,-16 2,-7 7,-10 10,-7 0,2 4,2 6,4 -11,0 -20,5 -16,19z"/>
    <path fill="#221D1A" stroke="#221D1A" stroke-linejoin="bevel" d="M2117 954c-1,-4 -1,-11 1,-16 2,-6 6,-9 8,-6 1,2 4,1 5,3 -9,1 -16,6 -14,19z"/>
    <path fill="#221D1A" stroke="#221D1A" stroke-linejoin="bevel" d="M2436 1104c2,-4 3,-13 -1,-19 -4,-7 -11,-10 -15,-7 -1,2 -7,1 -10,4 17,0 31,7 26,22z"/>
   </g>
   <g id="Stp_anu"  onclick="parent.replacechar('Stp_anu')" onmousemove="parent.showtooltip('Stp_anu','Annular stipule')"  onmouseout="parent.hidetooltip('Stp_anu')" cursor="pointer" >
    <defs>
     <linearGradient id="id9" gradientUnits="userSpaceOnUse" x1="415" y1="1819" x2="553" y2="1819">
      <stop offset="0" stop-color="#1F1A17"/>
      <stop offset="1" stop-color="#FFFFFF"/>
     </linearGradient>
     <linearGradient id="id10" gradientUnits="userSpaceOnUse" x1="278" y1="1795" x2="464" y2="1681">
      <stop offset="0" stop-color="#1F1A17"/>
      <stop offset="1" stop-color="#969594"/>
     </linearGradient>
     <linearGradient id="id11" gradientUnits="userSpaceOnUse" x1="514" y1="1823" x2="680" y2="1650">
      <stop offset="0" stop-color="#605D5C"/>
      <stop offset="1" stop-color="#C2C1C1"/>
     </linearGradient>
    </defs>
    <path fill="#009341" stroke="#221D1A" stroke-linejoin="bevel" d="M412 1727c4,-54 -5,-79 4,-99 7,-16 25,-33 29,-55 18,11 42,47 54,54 10,51 -36,74 -87,100z"/>
    <path fill="url(#id9)" stroke="#2A2128" stroke-linejoin="bevel" d="M415 1637l0 332c17,28 106,31 138,-1l-2 -331 -136 0z"/>
    <path fill="#FFFFFF" stroke="#2A2128" stroke-linejoin="bevel" d="M551 1636c0,-4 -8,-11 -20,-15 -10,-2 -32,-6 -48,-6 -16,0 -37,4 -48,6 -11,4 -20,11 -20,15 0,6 9,13 20,16 11,2 32,5 48,5 16,0 38,-3 48,-5 12,-3 20,-10 20,-16z"/>
    <path fill="#009341" stroke="#221D1A" stroke-linejoin="bevel" d="M475 1918c25,0 37,3 75,6 6,6 4,14 3,16 -18,-3 -55,-8 -75,-10 -20,-2 -56,17 -62,16 1,-1 -2,-7 1,-9 11,-11 39,-19 58,-19z"/>
    <path fill="#009341" stroke="#221D1A" stroke-linejoin="bevel" d="M416 1850c-3,-9 -1,-26 -6,-33 -2,-22 6,-33 1,-81 16,-105 48,-77 78,-175 55,50 21,79 58,148 11,38 7,45 8,96 0,11 -10,18 -1,41 -97,32 -79,0 -138,4z"/>
    <path fill="url(#id10)" stroke="#221D1A" stroke-linejoin="bevel" d="M414 1851c-100,-20 -96,-117 -79,-217 30,-3 23,-8 37,-5 -15,128 -3,158 41,176 14,22 -1,32 1,46z"/>
    <path fill="url(#id11)" stroke="#221D1A" stroke-linejoin="bevel" d="M551 1847c100,-20 94,-113 77,-213 -30,-3 -22,-8 -37,-4 16,127 11,152 -34,170 -14,22 -4,33 -6,47z"/>
   </g>
   <g id="Stp_tri"  onclick="parent.replacechar('Stp_tri')" onmousemove="parent.showtooltip('Stp_tri','Triangular sheath')"  onmouseout="parent.hidetooltip('Stp_tri')" cursor="pointer" >
    <defs>
     <linearGradient id="id12" gradientUnits="userSpaceOnUse" x1="1420" y1="1688" x2="1537" y2="1688">
      <stop offset="0" stop-color="#1F1A17"/>
      <stop offset="1" stop-color="#FFFFFF"/>
     </linearGradient>
    </defs>
    <path fill="#009341" stroke="#221D1A" stroke-linejoin="bevel" d="M1269 1564l276 176 -67 29 -228 -166 19 -39z"/>
    <path fill="url(#id12)" stroke="#221D1A" stroke-linejoin="bevel" d="M1420 1764l0 -167 63 24 53 -34 1 202 -117 -25z"/>
    <path fill="#009341" stroke="#221D1A" stroke-linejoin="bevel" d="M1235 1617l176 130 0 206 73 33 60 -32 0 -213 -60 28 -266 -197 17 45z"/>
    <path fill="#FFFFFF" stroke="#221D1A" stroke-linejoin="bevel" d="M1420 1597l64 24 50 -34 -114 10z"/>
    <path fill="#009341" stroke="#221D1A" stroke-linejoin="bevel" d="M1484 1769l0 213 0 -213z"/>
    <path fill="#009341" stroke="#221D1A" stroke-linejoin="bevel" d="M1484 1622l0 138 0 -138z"/>
    <path fill="#009341" stroke="#221D1A" stroke-linejoin="bevel" d="M1419 1750l56 17 -56 -17z"/>
   </g>
   <g id="Stp_hai"  onclick="parent.replacechar('Stp_hai')" onmousemove="parent.showtooltip('Stp_hai','Hairy node')"  onmouseout="parent.hidetooltip('Stp_hai')" cursor="pointer" >
    <defs>
     <linearGradient id="id13" gradientUnits="userSpaceOnUse" x1="2367" y1="1779" x2="2499" y2="1779">
      <stop offset="0" stop-color="#1F1A17"/>
      <stop offset="1" stop-color="#FFFFFF"/>
     </linearGradient>
    </defs>
    <path fill="url(#id13)" stroke="#2A2128" stroke-linejoin="bevel" d="M2367 1599l0 330c17,28 101,31 132,-1l-1 -329 -131 0z"/>
    <path fill="#009341" stroke="#221D1A" stroke-linejoin="bevel" d="M2320 1784c-237,-104 -168,69 -219,206 109,40 408,-163 219,-206z"/>
    <path fill="#FFFFFF" stroke="#2A2128" stroke-linejoin="bevel" d="M2497 1598c0,-4 -7,-11 -18,-15 -11,-3 -32,-6 -47,-6 -15,0 -35,3 -45,6 -11,4 -20,11 -20,15 0,5 9,13 20,15 10,3 30,6 45,6 15,0 36,-3 47,-6 11,-2 18,-10 18,-15z"/>
    <path fill="#009341" stroke="#221D1A" stroke-linejoin="bevel" d="M2369 1704c-212,101 -99,161 -252,278 153,-107 88,-200 319,-252 -11,-1 -24,0 -33,-3 -8,-3 -28,-18 -34,-23z"/>
    <path fill="#009341" stroke="#221D1A" stroke-linejoin="bevel" d="M2349 1651l44 71 -44 -71z"/>
    <path fill="#009341" stroke="#221D1A" stroke-linejoin="bevel" d="M2378 1664l19 60 -19 -60z"/>
    <path fill="#009341" stroke="#221D1A" stroke-linejoin="bevel" d="M2342 1672l50 51 -50 -51z"/>
    <path fill="#009341" stroke="#221D1A" stroke-linejoin="bevel" d="M2320 1672l72 51 -72 -51z"/>
    <path fill="#009341" stroke="#221D1A" stroke-linejoin="bevel" d="M2455 1671l-49 58 49 -58z"/>
    <path fill="#009341" stroke="#221D1A" stroke-linejoin="bevel" d="M2479 1679l-69 51 69 -51z"/>
    <path fill="#009341" stroke="#221D1A" stroke-linejoin="bevel" d="M2476 1697l-66 34 66 -34z"/>
    <path fill="#009341" stroke="#221D1A" stroke-linejoin="bevel" d="M2412 1651l-13 78 13 -78z"/>
    <path fill="#009341" stroke="#221D1A" stroke-linejoin="bevel" d="M2430 1664l-30 67 30 -67z"/>
    <path fill="#009341" stroke="#221D1A" stroke-linejoin="bevel" d="M2448 1653l-46 78 46 -78z"/>
   </g>
  </g>
 </g>
</svg>
