<?xml version="1.0" encoding="iso-8859-1"?>
<!DOCTYPE svg PUBLIC "-//W3C//DTD SVG 1.0//EN" "http://www.w3.org/TR/2001/REC-SVG-20010904/DTD/svg10.dtd">
<!-- Creator: CorelDRAW -->
<svg xmlns="http://www.w3.org/2000/svg" xml:space="preserve" shape-rendering="geometricPrecision" text-rendering="geometricPrecision" image-rendering="optimizeQuality" fill-rule="evenodd" clip-rule="evenodd"
 viewBox="0 0 2836 2126"
 xmlns:xlink="http://www.w3.org/1999/xlink">
 <g id="Port">
  <g>
   <path fill="#FFFFFF" d="M0 0l2836 0 0 2126 -2836 0 0 -2126z"/>
   <g id="Liane"  onclick="parent.replacechar('Liane')" onmousemove="parent.showtooltip('Liane','Liana')"  onmouseout="parent.hidetooltip('Liane')" cursor="pointer" >

    <path fill="#221D1A" stroke="#221D1A" stroke-linejoin="bevel" d="M2339 1721c-2,9 -14,5 -8,22 2,8 -34,41 -52,27 -7,-5 -11,-18 -15,-12 -9,1 6,9 5,14 -2,12 -20,6 -26,16 -11,16 -19,52 -7,81 5,-17 -4,-70 19,-74 20,-1 17,40 19,60 -26,85 -4,39 -18,119 -6,7 -22,0 -21,8 3,7 21,8 34,3 2,-39 4,-89 17,-101 22,9 19,84 20,101 9,8 22,5 31,3 3,-9 -15,-5 -20,-13 5,-74 -7,-89 -17,-111 -4,-31 5,-50 -8,-79 42,-11 57,-51 50,-61l-3 -3z"/>
    <path fill="#221D1A" stroke="#221D1A" stroke-linejoin="bevel" d="M2254 1727c17,7 18,20 11,29 -5,7 -20,3 -25,-2l14 -27z"/>
    <path fill="#DB281E" stroke="#221D1A" stroke-linejoin="bevel" d="M2260 1715c-7,15 -14,23 -21,40 -12,-13 -11,-22 -4,-28 6,-4 7,-1 14,-4 1,0 2,-1 9,-9l2 1z"/>
    <path fill="none" stroke="#A8A8A7" stroke-linejoin="bevel" d="M2330 1992c18,-387 26,-482 27,-571 14,-93 -338,28 -422,-28 -24,-23 -25,-55 -8,-83 77,-122 557,-251 800,-65 28,20 65,41 68,105 -46,167 -310,-28 -403,64 0,306 -14,337 -5,578"/>
    <path fill="#B0802A" stroke="#221D1A" stroke-linejoin="bevel" d="M2301 1990l-25 0c-4,-158 116,-128 129,-234 -4,-58 -84,-33 -87,-119 31,-113 134,-55 90,-200 -32,-77 -65,-110 -138,-140 -12,1 -16,47 -54,65 -38,19 -83,29 -99,81 14,-88 118,-59 140,-151 -29,-19 -85,-21 -118,-22 68,-17 133,17 150,22 -34,-54 -11,-157 39,-140 -33,-6 -68,62 -26,144 23,18 56,13 112,120 26,-71 27,-88 63,-133 1,-70 -51,-134 -107,-126 56,-22 117,60 121,117 79,-89 156,-93 177,-74 -15,-10 -97,3 -114,34 64,53 223,27 187,171 20,-136 -112,-106 -195,-167 -55,31 -103,110 -118,196 13,75 9,85 0,104 -48,42 -83,46 -90,108 0,52 81,49 86,103 -4,54 -38,89 -80,119 -53,45 -40,79 -43,122z"/>
    <path fill="#009341" stroke="#221D1A" stroke-linejoin="bevel" d="M2235 1354c6,9 12,17 -6,21 2,13 -6,9 -11,12 5,17 -6,9 -12,14 -2,13 -8,3 -14,6 -3,13 -7,5 -12,7 -6,14 -9,5 -15,7 -4,14 -9,6 -16,7 6,19 -1,12 -8,18 3,9 -2,6 -8,7 -5,12 -11,6 -15,5 -7,6 -10,2 -11,-6 -17,3 -8,-5 -11,-9 -11,1 -6,-5 -4,-9 -12,-5 -1,-9 0,-11 -13,-12 1,-8 4,-14 -9,-14 5,-6 8,-11 -7,-16 4,-6 6,-10 -5,-18 5,-5 8,-9 0,-14 6,-8 11,-8 2,-14 8,-8 13,-10 3,-13 7,-3 12,-6 3,-14 6,-4 11,-6 3,-14 7,-5 12,-8 1,-12 7,-2 12,-5 -1,-12 5,-8 13,-11 7,-9 9,-3 13,0 11,2 6,6 9,10 15,-1 12,12 11,19z"/>
    <path fill="#009341" stroke="#221D1A" stroke-linejoin="bevel" d="M2218 1276c4,6 9,14 -6,20 -10,13 -14,5 -24,3 -8,6 -7,1 -11,-3 -6,7 -7,1 -12,0 -6,8 -9,1 -15,-2 -10,3 -10,0 -14,-4 -9,3 -9,1 -12,-4 -26,-9 -19,-16 -13,-21 0,-5 -2,-11 8,-10 2,-4 -1,-8 9,-6 2,-1 2,-10 11,-1 3,-3 6,-10 14,-4 9,-9 9,-1 15,-1 8,-14 15,-5 18,0 13,-9 9,3 15,5 8,-9 12,-2 15,2 22,2 11,16 2,26z"/>
    <path fill="#009341" stroke="#221D1A" stroke-linejoin="bevel" d="M2279 1232c-5,5 -10,10 -18,2 -17,-4 -9,-15 -7,-18 0,-6 -9,-9 2,-14 -11,-13 2,-9 3,-16 -6,-13 2,-8 4,-14 -4,-12 2,-8 5,-12 -2,-11 4,-7 8,-11 4,-18 10,-12 16,-12 6,-22 13,-6 16,-3 5,-14 12,-8 13,-4 11,-8 9,3 9,5 17,-6 11,6 9,7 16,3 3,14 0,17 11,12 -2,13 -7,16 -2,3 2,8 -10,6 11,12 -3,8 -4,13 18,4 4,9 0,13 9,7 0,10 -4,12 -4,29 -25,10 -35,13z"/>
    <path fill="#009341" stroke="#221D1A" stroke-linejoin="bevel" d="M2468 1237c-22,11 -14,-7 -22,-15 -17,8 -16,-12 -20,-14 -17,6 -14,-8 -19,-10 -17,3 -13,-8 -17,-13 -18,5 -15,-8 -20,-13 -24,2 -17,-9 -11,-15 -11,-22 6,-12 12,-17 2,-12 14,-4 18,-5 6,-12 13,0 18,2 13,-14 16,2 15,8 16,-8 13,1 16,6 19,-10 15,16 20,19 15,-16 10,2 12,6 17,-4 12,13 11,18 14,-3 8,8 6,13 14,7 8,12 4,15 -3,10 -9,8 -15,7l-8 8z"/>
    <path fill="#009341" stroke="#221D1A" stroke-linejoin="bevel" d="M2555 1223c-8,-4 -19,3 -17,-9 -17,-12 1,-14 6,-14 6,-5 2,-13 17,-8 8,-14 10,-3 17,-6 6,-15 11,-7 17,-6 6,-4 9,-12 18,-3 0,-4 12,-11 16,-1 10,-9 13,-5 18,1 12,-9 11,2 16,6 19,-7 19,6 13,9 17,1 6,12 3,12 11,8 2,9 -3,11 6,13 -9,12 -12,7 -5,20 -10,0 -18,1 -1,21 -11,8 -16,6 -4,19 -12,11 -18,7 -11,0 -17,17 -24,-3 -34,18 -17,-15 -33,-10z"/>
    <path fill="#009341" stroke="#221D1A" stroke-linejoin="bevel" d="M2654 1278c10,-36 26,-9 27,-5 15,-17 13,1 17,4 16,-9 11,3 18,7 12,-4 12,5 17,12 16,-6 15,11 14,14 12,2 10,14 8,19 15,4 9,12 9,17 14,5 8,15 6,19 15,10 4,19 -1,18 6,12 -2,16 -7,17 6,13 -5,23 -17,14 -6,16 -11,8 -17,4 -15,1 -10,-5 -4,-11 -17,-6 -6,-8 -5,-15 -21,-14 0,-14 -3,-22 -14,-1 -15,-8 -12,-16 -19,0 -11,-4 -14,-14 -21,-1 -15,-12 -17,-18 -22,4 -19,-12 -19,-17 -19,5 -16,-27 0,-27z"/>
    <path fill="#FFFFFF" stroke="#FFFFFF" stroke-linejoin="bevel" d="M2345 1698l2 -28 39 29 0 25 -41 -26z"/>
    <path fill="#FFFFFF" stroke="#2B2229" stroke-linejoin="bevel" d="M1913 1990l884 0 -884 0z"/>
    <path fill="none" stroke="#A8A8A7" stroke-linejoin="bevel" d="M2301 1991l-25 0c-65,7 -60,5 -119,12 57,5 93,0 120,3 5,14 4,15 10,26 8,-13 6,-16 13,-26 49,-4 74,-1 123,-2 -91,-8 -88,-10 -122,-13z"/>
   </g>
  <g id="Decombant"  onclick="parent.replacechar('Decombant')" onmousemove="parent.showtooltip('Decombant','Decumbent or prostrate')"  onmouseout="parent.hidetooltip('Decombant')" cursor="pointer" >

    <path fill="#009341" stroke="#221D1A" stroke-linejoin="bevel" d="M1440 1874c-3,26 37,50 41,30 22,2 13,-23 -15,-35 -2,-19 -18,-42 -31,-42 -7,0 -19,29 5,47z"/>
    <path fill="#009341" stroke="#221D1A" stroke-linejoin="bevel" d="M1559 1946c-10,-28 5,-23 12,-18 16,-6 17,11 12,18 10,48 -43,20 -24,0z"/>
    <path fill="#009341" stroke="#221D1A" stroke-linejoin="bevel" d="M1611 1970c-7,-7 -17,-19 -6,-25 -13,-26 6,-19 12,-15 19,-17 18,11 13,17 9,15 -4,27 -19,23z"/>
    <path fill="#009341" stroke="#221D1A" stroke-linejoin="bevel" d="M1651 1968c-13,-12 0,-47 16,-45 15,7 11,52 -16,45z"/>
    <path fill="#009341" stroke="#221D1A" stroke-linejoin="bevel" d="M1353 1819c-6,-22 25,-72 41,-68 1,-16 10,-37 25,-36 23,12 5,41 -9,51 0,13 0,26 -21,30 -6,25 -25,36 -36,23z"/>
    <path fill="#009341" stroke="#221D1A" stroke-linejoin="bevel" d="M1414 1795c4,-22 9,-15 16,-20 9,-29 21,-30 28,-22 8,-3 22,1 7,23 -3,18 -12,28 -26,38 -6,10 -6,13 -22,23 -56,61 -45,-39 -3,-42z"/>
    <path fill="#AF7F2A" stroke="#221D1A" stroke-linejoin="bevel" d="M1317 1906c7,-13 18,-15 21,-16 2,-84 51,-93 82,-166 0,17 -11,32 -38,68 -20,23 -38,53 -39,96 7,-1 11,-4 23,-1 18,-68 56,-60 90,-124 1,43 -61,50 -86,124 92,9 126,88 183,97 29,-23 7,-46 18,-45 5,13 3,34 -12,47 16,2 27,2 35,2 33,-17 19,-54 24,-49 9,18 -1,41 -17,50 24,-3 69,-16 58,-52 28,59 -108,77 -163,27 -52,-46 -81,-61 -114,-69 -82,-16 -76,56 -75,99 -2,-1 -2,0 -5,-1 -3,-60 5,-65 12,-84l3 -3z"/>
    <path fill="#AF7F2A" stroke="#221D1A" stroke-linejoin="bevel" d="M1314 1909c-15,-71 6,-119 63,-129 67,-3 48,63 97,116 -58,-27 -26,-140 -120,-105 -41,25 -43,66 -36,114l-4 4z"/>
    <path fill="none" stroke="#9F9796" stroke-linejoin="bevel" d="M1517 2000c-1,4 2,8 -2,11"/>
    <path fill="none" stroke="#9F9796" stroke-linejoin="bevel" d="M1533 1986c-8,5 -10,12 -21,16"/>
    <path fill="none" stroke="#9F9796" stroke-linejoin="bevel" d="M1525 1993c4,2 7,16 4,12"/>
    <path fill="none" stroke="#9F9796" stroke-linejoin="bevel" d="M1538 1987c0,4 -2,6 -1,10"/>
    <path fill="none" stroke="#9F9796" stroke-linejoin="bevel" d="M1546 1989c-6,7 -2,13 -3,20"/>
    <path fill="none" stroke="#9F9796" stroke-linejoin="bevel" d="M1543 1999c-3,3 -8,3 -8,10"/>
    <path fill="none" stroke="#9F9796" stroke-linejoin="bevel" d="M1552 1990c1,4 0,7 0,11"/>
    <path fill="none" stroke="#9F9796" stroke-linejoin="bevel" d="M1560 1991c0,3 -5,8 -2,16"/>
    <path fill="none" stroke="#9F9796" stroke-linejoin="bevel" d="M1559 1996c2,3 7,5 7,11"/>
    <path fill="none" stroke="#9F9796" stroke-linejoin="bevel" d="M1568 1993c3,4 1,6 1,10"/>
    <path fill="none" stroke="#9F9796" stroke-linejoin="bevel" d="M1578 1993c-1,6 -7,10 -4,18"/>
    <path fill="none" stroke="#9F9796" stroke-linejoin="bevel" d="M1576 1999c4,3 6,7 8,10"/>
    <path fill="none" stroke="#9F9796" stroke-linejoin="bevel" d="M1584 1994c13,7 6,7 10,12"/>
    <path fill="none" stroke="#9F9796" stroke-linejoin="bevel" d="M1590 1994c-1,7 1,9 1,14"/>
    <path fill="none" stroke="#9F9796" stroke-linejoin="bevel" d="M1597 1993c0,3 1,6 2,10"/>
    <path fill="none" stroke="#9F9796" stroke-linejoin="bevel" d="M1601 1993c5,5 5,10 9,16"/>
    <path fill="none" stroke="#9F9796" stroke-linejoin="bevel" d="M1601 2008c0,-4 3,-5 4,-8"/>
    <path fill="none" stroke="#9F9796" stroke-linejoin="bevel" d="M1607 1992c5,4 3,7 4,12"/>
    <path fill="none" stroke="#9F9796" stroke-linejoin="bevel" d="M1616 1990c6,6 3,9 4,15"/>
    <path fill="none" stroke="#9F9796" stroke-linejoin="bevel" d="M1627 1988c-1,8 1,9 2,15"/>
    <path fill="none" stroke="#9F9796" stroke-linejoin="bevel" d="M1633 1986c5,2 5,11 9,18"/>
    <path fill="none" stroke="#9F9796" stroke-linejoin="bevel" d="M1639 1994c5,-1 7,6 12,10"/>
    <path fill="none" stroke="#9F9796" stroke-linejoin="bevel" d="M1640 1982c9,9 15,10 22,12"/>
    <path fill="none" stroke="#9F9796" stroke-linejoin="bevel" d="M1651 1990c1,3 -1,7 2,9"/>
    <path fill="#FFFFFF" stroke="#2B2229" stroke-linejoin="bevel" d="M998 1993l815 0 -815 0z"/>
    <path fill="none" stroke="#A8A8A7" stroke-linejoin="bevel" d="M1307 1994l-5 0c-41,4 -41,3 -79,7 37,3 60,0 77,2 3,9 2,6 6,14 6,-9 2,-8 7,-14 31,-2 49,-1 80,-1 -58,-5 -64,-7 -86,-8z"/>
    <path fill="#DB281E" stroke="#221D1A" stroke-linejoin="bevel" d="M1698 1725c-11,-9 -27,-10 -28,8 12,17 -1,23 3,28l25 -36z"/>
    <path fill="#221D1A" stroke="#221D1A" stroke-linejoin="bevel" d="M1703 1758c3,5 6,3 4,9 -12,3 -19,7 -26,17 -7,4 -19,66 -19,94 18,-25 17,-90 36,-88 10,7 15,31 14,61 -8,38 -12,87 -17,125 -5,8 -24,4 -22,13 10,5 23,2 33,-2 2,-13 5,-94 22,-103 28,28 22,97 18,106 9,5 23,4 32,4 5,-10 -16,-5 -21,-14 8,-67 -8,-104 -20,-129 0,-37 5,-49 -4,-74 52,-10 4,55 9,69 -1,0 12,-16 23,-39 2,-12 7,-30 -11,-41 -20,-1 -37,-5 -46,-13l-5 5z"/>
    <path fill="#221D1A" stroke="#221D1A" stroke-linejoin="bevel" d="M1679 1752c9,13 24,8 29,2 4,-15 0,-23 -10,-29l-19 27z"/>
   </g>
   <g id="Herbe"  onclick="parent.replacechar('Herbe')" onmousemove="parent.showtooltip('Herbe','Grass')"  onmouseout="parent.hidetooltip('Herbe')" cursor="pointer" >
    <path fill="#009341" stroke="#221D1A" stroke-linejoin="bevel" d="M391 1951l-13 -15 -11 -11 -9 -2 -8 2 -3 3 -2 5 0 -6 2 -8 6 -3 9 -1 4 1 10 6 11 25 4 4z"/>
    <path fill="#009341" stroke="#221D1A" stroke-linejoin="bevel" d="M486 1961l14 -14 10 -7 9 -3 7 0 3 2 3 5 0 -6 -3 -8 -6 -3 -8 -1 -5 1 -9 5 -11 25 -4 4z"/>
    <path fill="#009341" stroke="#221D1A" stroke-linejoin="bevel" d="M525 1873c-5,16 -8,35 -15,49 -6,15 -14,27 -22,37 -8,10 -20,20 -28,26 -7,6 -11,2 -17,5 5,-5 9,-6 13,-12 4,-6 5,-12 11,-23 6,-12 15,-32 25,-46 9,-13 22,-24 33,-36z"/>
    <path fill="none" stroke="#221D1A" stroke-linejoin="bevel" d="M519 1883c-6,11 -9,17 -15,28 -4,8 -7,12 -11,19 -5,9 -7,14 -13,22 -3,5 -5,7 -9,12 -4,5 -6,8 -10,14"/>
    <path fill="#009341" stroke="#221D1A" stroke-linejoin="bevel" d="M428 1843c-4,16 -9,35 -11,50 -1,15 0,30 3,44 2,12 8,26 13,35 3,8 7,12 11,17 -2,-7 -4,-13 -5,-21 0,-8 1,-13 2,-26 0,-13 1,-36 -1,-52 -2,-16 -8,-31 -12,-47z"/>
    <path fill="none" stroke="#221D1A" stroke-linejoin="bevel" d="M429 1858c0,13 -1,20 0,32 -1,9 0,13 0,22 1,10 0,15 2,25 1,6 1,10 2,15 1,7 2,10 2,17"/>
    <path fill="#009341" stroke="#221D1A" stroke-linejoin="bevel" d="M506 1865c-3,16 -4,35 -9,50 -4,15 -10,28 -17,39 -8,11 -18,22 -24,29 -8,6 -10,5 -15,8 4,-6 6,-8 9,-15 4,-7 4,-12 8,-24 5,-12 12,-33 20,-48 7,-14 19,-26 28,-39z"/>
    <path fill="none" stroke="#221D1A" stroke-linejoin="bevel" d="M501 1875c-4,12 -6,18 -11,30 -3,8 -5,12 -9,20 -4,9 -6,14 -10,22 -3,6 -5,9 -8,14 -3,5 -5,8 -8,15"/>
    <path fill="#009341" stroke="#221D1A" stroke-linejoin="bevel" d="M359 1873c4,16 8,35 14,49 6,15 14,27 22,37 9,10 20,20 28,26 8,6 11,3 17,6 -4,-5 -8,-7 -13,-13 -4,-6 -5,-12 -10,-23 -6,-12 -16,-32 -26,-46 -9,-13 -22,-24 -32,-36z"/>
    <path fill="none" stroke="#221D1A" stroke-linejoin="bevel" d="M365 1883c5,11 8,17 14,28 4,8 7,12 11,19 5,9 7,14 13,22 4,5 6,7 10,12 4,5 5,8 10,14"/>
    <path fill="#009341" stroke="#221D1A" stroke-linejoin="bevel" d="M482 1853c-10,14 -22,29 -28,43 -7,14 -11,29 -13,41 -3,13 -2,28 -2,38 1,9 2,8 5,15 1,-7 1,-9 3,-16 3,-8 6,-12 11,-24 4,-12 14,-33 18,-49 3,-16 3,-32 6,-48z"/>
    <path fill="none" stroke="#221D1A" stroke-linejoin="bevel" d="M478 1864c-5,11 -7,18 -12,29 -3,8 -5,13 -7,21 -3,10 -5,14 -8,24 -1,7 -2,9 -3,15 -2,6 -2,10 -4,17"/>
    <path fill="#009341" stroke="#221D1A" stroke-linejoin="bevel" d="M386 1859c1,17 2,35 4,51 4,15 10,29 16,41 6,11 15,23 22,30 6,7 11,5 16,9 -4,-6 -8,-8 -11,-15 -2,-7 -2,-13 -6,-25 -4,-13 -9,-35 -16,-50 -7,-15 -17,-27 -25,-41z"/>
    <path fill="none" stroke="#221D1A" stroke-linejoin="bevel" d="M390 1871c3,12 5,19 8,31 3,8 5,12 8,21 3,9 5,14 9,23 2,6 4,9 6,14 3,6 5,9 8,16"/>
    <path fill="none" stroke="#221D1A" stroke-linejoin="bevel" d="M347 1925c1,-2 3,-4 5,-4 2,-1 4,-1 6,-1 2,0 3,0 5,1 2,0 4,0 6,2 3,2 5,3 7,6"/>
    <path fill="none" stroke="#221D1A" stroke-linejoin="bevel" d="M503 1939c3,-3 4,-5 7,-7 3,-1 5,-2 8,-2 3,0 4,0 7,1 3,1 4,3 6,6"/>
    <path fill="#009341" stroke="#221D1A" stroke-linejoin="bevel" d="M432 1921l9 -4 9 2 -5 18 -13 -16z"/>
    <path fill="#009341" stroke="#221D1A" stroke-linejoin="bevel" d="M442 1990c-1,-6 0,-2 -1,-8 -1,-8 0,-11 -1,-18 -1,-7 -1,-11 -2,-18 0,-8 -3,-17 -5,-24 -1,-2 1,0 3,1 2,0 2,2 4,4 1,2 2,6 3,7 0,0 1,-3 1,-5 2,-4 -1,0 2,-5 1,-2 5,-5 5,-2 -1,5 -1,11 -1,15 0,5 0,8 0,13 0,3 0,9 0,13 0,3 0,7 0,11 -1,6 0,3 0,9 -1,4 0,4 0,7 0,3 -1,0 -3,0 -5,0 -5,2 -5,0z"/>
    <path fill="#009341" stroke="#221D1A" stroke-linejoin="bevel" d="M442 1918l1 4 1 5 -2 -9z"/>
    <path fill="#009341" stroke="#221D1A" stroke-linejoin="bevel" d="M444 1937l0 15 1 15 1 11 0 8 -2 -49z"/>
    <path fill="#009341" stroke="#221D1A" stroke-linejoin="bevel" d="M434 1990c-3,-6 -1,-3 -3,-8 -3,-7 -3,-10 -6,-17 -3,-6 -5,-10 -8,-16 -2,-8 -8,-15 -12,-21 -1,-3 0,-1 3,-1 2,0 4,3 5,5 1,5 0,10 0,11 1,0 5,-10 5,-12 1,-4 -1,0 1,-6 1,-2 3,-6 3,-3 1,5 3,11 4,15 2,5 3,7 4,12 1,4 3,9 4,13 1,2 1,7 2,10 2,6 2,3 3,9 1,3 2,6 3,9 0,0 -1,2 -2,2 -2,-1 -5,1 -6,-2z"/>
    <path fill="#009341" stroke="#221D1A" stroke-linejoin="bevel" d="M413 1923l2 4 0 6 -2 -10z"/>
    <path fill="#009341" stroke="#221D1A" stroke-linejoin="bevel" d="M420 1941l5 15 5 14 4 10 3 7 -17 -46z"/>
    <path fill="#009341" stroke="#221D1A" stroke-linejoin="bevel" d="M405 1927l8 -4 8 -2 -16 6z"/>
    <path fill="#009341" stroke="#221D1A" stroke-linejoin="bevel" d="M487 1928l-7 -7 -9 -1 -2 19 18 -11z"/>
    <path fill="#009341" stroke="#221D1A" stroke-linejoin="bevel" d="M455 1989c2,-6 1,-2 3,-8 3,-7 4,-10 7,-17 4,-6 5,-9 8,-15 3,-8 9,-15 14,-21 1,-2 -1,-1 -4,0 -1,-1 -3,0 -5,2 -2,2 -5,5 -5,6 -1,0 0,-3 0,-5 0,-4 1,0 0,-6 0,-2 -3,-6 -3,-3 -2,5 -4,11 -5,15 -2,4 -3,6 -5,11 -1,4 -3,9 -4,13 0,3 -2,7 -3,10 -2,6 -2,3 -3,9 -1,4 -2,6 -4,9 -1,3 0,1 3,1 3,0 3,4 6,-1z"/>
    <path fill="#009341" stroke="#221D1A" stroke-linejoin="bevel" d="M479 1923l-2 4 -2 5 4 -9z"/>
    <path fill="#009341" stroke="#221D1A" stroke-linejoin="bevel" d="M471 1941l-6 14 -6 14 -4 10 -3 7 19 -45z"/>
    <path fill="#009341" stroke="#221D1A" stroke-linejoin="bevel" d="M436 1990c0,-1 3,-1 8,-1 4,0 7,2 8,3 1,0 -16,0 -16,-2z"/>
    <path fill="#009341" stroke="#221D1A" stroke-linejoin="bevel" d="M433 1989c-6,-6 -1,-2 -7,-7 -6,-7 -6,-8 -13,-14 -6,-6 -4,-7 -10,-9 -6,-2 -8,-4 -13,-7 -1,-1 7,-11 10,-9 2,2 3,4 6,7 2,3 5,7 7,9 3,3 4,6 7,9 5,6 2,4 7,9 3,4 5,5 8,9 3,3 0,1 0,3 0,0 2,3 -2,0z"/>
    <path fill="#009341" stroke="#221D1A" stroke-linejoin="bevel" d="M401 1944c3,-1 -11,-2 -11,0 -1,3 -1,4 -1,7 0,2 0,4 1,7 0,1 -1,0 3,8 0,-12 3,-9 3,-11 0,-4 1,-4 1,-8 0,-3 5,-3 4,-3z"/>
    <path fill="none" stroke="#221D1A" stroke-linejoin="bevel" d="M397 1951c2,1 0,-2 3,0 3,1 4,3 8,6 7,5 9,11 17,20"/>
    <path fill="#009341" stroke="#221D1A" stroke-linejoin="bevel" d="M455 1990c4,-5 0,-3 4,-7 6,-6 5,-8 11,-14 5,-5 3,-7 9,-10 5,-1 8,-4 12,-6 2,-1 -5,-11 -8,-9 -3,2 -4,4 -6,7 -4,4 -5,7 -7,10 -3,2 -4,6 -6,8 -5,6 -1,5 -6,10 -2,3 -2,5 -4,9 -3,3 0,1 0,2 0,0 -2,3 1,0z"/>
    <path fill="#009341" stroke="#221D1A" stroke-linejoin="bevel" d="M482 1945c-4,-1 10,-2 10,0 1,2 1,4 0,7 -1,2 -1,4 -1,7 -1,1 1,0 -4,8 1,-12 -2,-9 -1,-11 0,-4 -1,-4 -1,-7 -1,-4 -4,-4 -3,-4z"/>
    <path fill="none" stroke="#221D1A" stroke-linejoin="bevel" d="M484 1952c-2,0 0,-1 -2,0 -4,1 -4,3 -8,6 -7,4 -8,12 -14,20"/>
    <path fill="#FFFFFF" stroke="#2B2229" stroke-linejoin="bevel" d="M134 1990l650 0 -650 0z"/>
    <path fill="#DB281E" stroke="#221D1A" stroke-linejoin="bevel" d="M591 1724c-10,-9 -27,-10 -28,8 12,17 -1,22 3,27l25 -35z"/>
    <path fill="#221D1A" stroke="#221D1A" stroke-linejoin="bevel" d="M596 1757c4,5 6,3 5,9 -13,3 -20,6 -26,16 -8,5 -16,13 -16,9 -1,-6 13,-34 10,-48 -11,21 -23,46 -22,68 14,3 25,-25 44,-22 10,7 15,31 14,61 -8,38 -12,87 -17,125 -5,8 -24,3 -22,13 10,5 23,1 34,-2 1,-13 4,-94 21,-103 28,27 22,96 18,105 9,6 24,4 32,4 5,-9 -16,-4 -21,-14 8,-67 -8,-103 -19,-129 0,-36 4,-48 -5,-74 52,-9 4,56 9,70 -1,0 12,-16 23,-40 2,-12 7,-29 -11,-40 -20,-1 -37,-5 -46,-14l-5 6z"/>
    <path fill="#221D1A" stroke="#221D1A" stroke-linejoin="bevel" d="M572 1751c9,12 24,8 29,2 4,-16 0,-24 -10,-29l-19 27z"/>
    <path fill="none" stroke="#A8A8A7" stroke-linejoin="bevel" d="M447 1992l-6 -1c-41,4 -42,3 -79,7 37,3 60,0 77,2 3,8 2,6 6,14 6,-9 2,-8 7,-14 31,-2 49,-1 80,-1 -58,-5 -64,-6 -85,-7z"/>
   </g>
   <g id="Arbre"  onclick="parent.replacechar('Arbre')" onmousemove="parent.showtooltip('Arbre','Tree')"  onmouseout="parent.hidetooltip('Arbre')" cursor="pointer" >
    <path fill="#009341" stroke="#221D1A" stroke-linejoin="bevel" d="M2106 565c-55,28 -138,-4 -159,-57 15,-25 34,-27 45,-30 -11,-14 -39,-48 -43,-86 12,-14 34,-6 42,-11 -7,-34 -8,-61 6,-90 20,-3 37,-6 70,22 -9,-30 -12,-126 4,-137 9,-10 31,-10 47,-10 -2,-15 -11,-48 8,-64 15,-14 44,-2 52,2 3,-9 8,-30 20,-36 20,2 41,34 49,36 19,-52 48,-56 86,-84 41,10 82,47 108,74 23,-10 30,-18 61,-23 37,8 34,53 41,65 22,3 40,-6 57,-3 15,33 4,89 -33,111 23,-9 52,-26 62,-22 12,6 22,16 24,26 14,-2 42,-29 66,-24 34,35 16,103 3,109 31,4 43,-3 57,3 18,39 -17,79 -30,76 15,9 37,-1 44,11 -12,80 -113,190 -201,99 -69,-47 -120,-11 -174,15 -71,43 -41,79 -141,-4 -113,-39 -146,8 -171,32z"/>
    <path fill="#B0802A" stroke="#221D1A" stroke-linejoin="bevel" d="M2314 922c6,-128 11,-211 15,-321 -13,-44 -74,-67 -112,-73 -66,-8 -101,16 -145,21 -30,0 -61,-3 -72,-25 12,2 24,15 42,15 61,2 89,-20 153,-28 -29,-23 -60,-29 -102,-56 -10,-3 -84,-2 -106,-45 14,4 17,27 88,32 -8,-16 -29,-32 -39,-64 -4,-14 -4,-43 7,-51 -3,22 2,74 41,101 7,-1 6,-3 8,-7 9,-18 0,-41 4,-52 16,24 8,61 6,71 41,32 66,39 109,61 45,22 104,31 130,50l-2 -1 -8 -5c0,-31 1,-62 1,-92 1,-28 1,-57 2,-86 0,-1 0,-5 -1,-7 -11,-25 -81,-68 -96,-83 -34,-13 -86,-13 -119,-67 33,24 46,46 108,52 -11,-16 -60,-82 -51,-120 14,40 28,82 59,108 9,-26 -4,-60 -3,-83 19,50 11,64 13,95 13,16 49,54 90,57 1,-54 3,-74 4,-121 -15,-26 -33,-54 -30,-96 3,19 5,34 32,78 15,-21 0,-83 9,-98 10,15 9,62 12,71 16,-17 18,-33 27,-52 2,18 -11,41 -25,66 1,92 -2,92 -2,148 103,-62 115,-114 142,-184 1,39 -28,90 -47,120 55,-14 65,-37 86,-56 -14,23 -17,43 -94,67 -42,42 -62,47 -85,82 -2,87 -3,157 -1,210 57,-48 147,-49 224,-123 -1,-24 -17,-96 7,-114 -6,12 -12,78 4,107 36,-21 71,-72 98,-131 3,44 -35,73 -50,105 49,0 74,-37 84,-33 -43,45 -59,31 -94,48 -48,32 -70,56 -110,80 102,30 164,-2 191,-23 -52,59 -115,48 -206,36 -63,22 -106,32 -147,94 -12,95 1,69 -1,322l-48 0z"/>
    <path fill="none" stroke="#A8A8A7" stroke-linejoin="bevel" d="M2363 922l-50 0c-88,7 -126,7 -271,19 148,12 143,0 277,7 12,14 10,18 23,34 10,-15 10,-19 21,-40 131,-1 112,1 290,-2 -149,-9 -183,-12 -290,-18z"/>
    <path fill="#FFFFFF" stroke="#2B2229" stroke-linejoin="bevel" d="M1926 921l856 0 -856 0z"/>
    <path fill="#2B2229" stroke="#221D1A" stroke-linejoin="bevel" d="M2363 653c2,8 14,4 8,22 -2,7 34,40 52,27 7,-6 11,-19 15,-13 9,2 -6,9 -5,15 2,11 20,5 26,15 11,17 19,53 7,81 -5,-16 4,-70 -19,-74 -20,-1 -17,41 -19,60 26,86 4,39 18,119 6,7 22,0 21,9 -3,7 -21,8 -34,2 -2,-38 -4,-89 -17,-101 -21,9 -19,84 -20,102 -9,8 -22,4 -31,2 -3,-9 15,-5 20,-13 -5,-74 7,-88 17,-111 4,-30 -5,-50 8,-79 -42,-11 -57,-50 -50,-61l3 -2z"/>
    <path fill="#2B2229" stroke="#221D1A" stroke-linejoin="bevel" d="M2448 658c-17,8 -18,21 -11,30 5,6 20,3 26,-3l-15 -27z"/>
    <path fill="#DB281E" stroke="#221D1A" stroke-linejoin="bevel" d="M2442 647c8,14 14,23 21,39 13,-13 11,-22 4,-28 -6,-3 -7,0 -14,-3 -1,-1 -2,-1 -9,-9l-2 1z"/>
   </g>
   <g id="Buisson"  onclick="parent.replacechar('Buisson')" onmousemove="parent.showtooltip('Buisson','Shrub')"  onmouseout="parent.hidetooltip('Buisson')" cursor="pointer" >
    <path fill="#DB281E" stroke="#221D1A" stroke-linejoin="bevel" d="M1236 651c10,-9 27,-10 27,8 -12,17 1,22 -2,28l-25 -36z"/>
    <path fill="#221D1A" stroke="#221D1A" stroke-linejoin="bevel" d="M1230 684c-3,5 -5,3 -4,9 12,3 20,6 26,17 7,4 16,13 16,8 1,-6 -14,-34 -10,-48 10,21 23,46 22,68 -15,3 -25,-25 -44,-22 -11,7 -16,31 -15,61 9,38 12,87 17,125 5,8 25,3 22,13 -10,5 -22,2 -33,-2 -2,-13 -4,-94 -21,-103 -29,28 -23,96 -18,106 -9,5 -24,3 -33,3 -4,-9 16,-4 21,-13 -8,-68 9,-104 20,-129 0,-37 -4,-49 5,-74 -53,-10 -5,55 -9,69 1,0 -13,-16 -23,-40 -2,-11 -7,-29 10,-40 20,-1 37,-5 46,-13l5 5z"/>
    <path fill="#221D1A" stroke="#221D1A" stroke-linejoin="bevel" d="M1254 678c-9,13 -23,8 -28,2 -5,-15 0,-24 10,-29l18 27z"/>
    <path fill="#009341" stroke="#221D1A" stroke-linejoin="bevel" d="M1284 847c-6,-2 -14,3 -20,-13 -5,-4 -9,0 -12,-13 -4,-6 -11,-5 -10,-17 -1,-4 -18,-17 8,-22 -1,-4 -14,-8 -7,-16 -3,-5 -11,-11 0,-23 -11,-31 15,-33 24,-22 0,-7 -12,-10 -6,-20 -4,-4 -10,-27 9,-26 3,-14 6,-21 17,-25 7,2 8,7 9,11 3,0 5,-9 11,-2 7,-10 12,4 16,5 2,-3 -9,-11 5,-17 -3,-6 10,-32 20,-8 2,-2 1,-11 10,-8 -2,-12 -1,-31 21,-15 3,-21 16,-34 26,-22 7,-10 31,-8 25,22 4,2 8,-4 8,8 4,-6 6,-6 12,-7 8,5 7,10 8,21 6,-6 2,-18 15,-15 2,-13 9,-11 14,-11 10,-17 28,-8 27,2 24,-11 22,21 18,26 6,5 11,10 5,22 5,0 17,15 -5,28 30,3 7,27 5,33 3,0 28,4 7,27 10,7 4,16 1,18 2,7 11,13 -8,28 -1,3 6,9 -10,15 -1,5 1,15 -15,15 -1,15 -11,14 -18,16 -3,5 -1,12 -17,12 -3,1 1,9 -14,9 -3,9 -15,9 -21,8 -3,8 -29,3 -28,-16 -10,10 -28,19 -47,-3 -29,20 -33,-15 -46,-9 4,6 -25,26 -37,4z"/>
    <path fill="#B0802A" stroke="#221D1A" stroke-linejoin="bevel" d="M1404 919l-18 0c0,-4 0,-5 0,-9 -24,-20 -32,-29 -55,-62 -22,-4 -57,-15 -80,-48 3,-2 27,36 78,41 -9,-23 -21,-49 -26,-67 -21,-9 -41,-38 -40,-42 2,1 23,34 40,35 -3,-13 -7,-24 -14,-56 -3,-6 -6,-4 -12,-21 3,2 6,15 11,14 -2,-16 -1,-37 1,-41 2,7 -2,13 1,31 2,3 8,-11 9,-15 1,3 -2,13 -9,19 2,18 5,27 14,57 14,-13 10,-37 16,-42 -1,3 -2,37 -14,46 6,29 9,32 21,63 13,-37 15,-81 17,-84 5,16 -10,81 -15,89 16,35 50,71 59,72 -1,-27 2,-81 4,-144 -12,-10 -22,-25 -37,-46 -12,-8 -30,-18 -38,-35 2,0 11,18 38,30 -16,-31 -17,-42 -14,-58 2,6 -1,16 5,29 7,-4 8,-20 9,-25 2,0 0,17 -6,28 -2,9 22,53 43,68 1,-39 3,-51 2,-86 -18,-14 -24,-34 -23,-37 1,0 13,28 23,32 1,-27 -1,-53 3,-54 4,2 1,23 3,43 16,-12 16,-34 19,-36 -1,19 -7,31 -18,43 0,65 0,102 2,155 27,-35 29,-75 34,-112 -8,-8 -14,-26 -13,-34 2,0 1,18 14,29 6,-22 4,-48 7,-53 3,4 1,60 -14,122 22,-21 30,-38 34,-45 2,7 -15,32 -35,51 -8,20 -14,33 -27,56 0,30 -2,31 1,77 20,-18 35,-35 56,-72 -7,-19 -17,-43 -7,-71 7,0 -12,23 9,64 14,-36 20,-63 27,-85 -7,-4 -22,-45 -18,-47 2,4 8,32 19,42 0,0 13,-58 14,-80 -5,-3 -10,-14 -10,-20 2,0 3,15 11,16 4,-9 0,-22 3,-23 5,14 -2,25 0,38 12,-8 10,-20 13,-22 0,6 -1,16 -14,26 -7,33 -13,77 -14,84 22,-7 30,-27 36,-31 0,6 -15,27 -38,37 -11,29 -9,31 -24,74 47,-13 62,-48 66,-49 -11,32 -53,49 -70,58 -24,35 -32,43 -59,77 0,3 0,4 0,6z"/>
    <path fill="none" stroke="#A8A8A7" stroke-linejoin="bevel" d="M1404 920l-18 0c-65,7 -62,4 -121,12 58,4 94,0 121,3 5,13 4,10 10,21 8,-13 3,-11 10,-21 49,-4 77,-1 126,-2 -92,-9 -94,-10 -128,-13z"/>
    <path fill="#FFFFFF" stroke="#2B2229" stroke-linejoin="bevel" d="M1126 919l532 0 -532 0z"/>
   </g>
   <g id="Palmier"  onclick="parent.replacechar('Palmier')" onmousemove="parent.showtooltip('Palmier','Palm')"  onmouseout="parent.hidetooltip('Palmier')" cursor="pointer" >
    <path fill="#AF7F2A" stroke="#221D1A" stroke-linejoin="bevel" d="M569 749c-32,68 -76,49 -90,41 -8,2 -7,2 -14,7 -12,3 -12,4 -28,2 -60,4 -98,-64 -96,-233 0,-2 12,-10 12,-12l13 12c-3,151 21,218 71,220 -7,-165 1,-292 3,-430 0,-2 14,-17 14,-19l15 17c10,43 -15,297 -4,427 67,-58 73,-184 74,-294 0,-1 13,-13 13,-15l16 12c-2,167 -32,265 -77,299 19,10 48,-15 55,-38 0,-3 10,-10 10,-13l13 17z"/>
    <path fill="#009341" stroke="#221D1A" stroke-linejoin="bevel" d="M445 349c-63,-73 -98,-102 -128,-23 -24,-106 81,-79 132,18l-4 5z"/>
    <path fill="#009341" stroke="#221D1A" stroke-linejoin="bevel" d="M450 343c-6,-56 -48,-117 -102,-95 5,-81 104,-6 105,91l-3 4z"/>
    <path fill="#009341" stroke="#221D1A" stroke-linejoin="bevel" d="M454 337c8,-162 101,-161 97,-97 -32,-43 -93,47 -94,100l-3 -3z"/>
    <path fill="#009341" stroke="#221D1A" stroke-linejoin="bevel" d="M458 342c53,-130 192,-83 113,-5 10,-110 -86,-39 -111,7l-2 -2z"/>
    <path fill="#009341" stroke="#221D1A" stroke-linejoin="bevel" d="M502 402c15,-55 -11,-71 -37,-53l-3 -3c64,-38 53,41 40,56z"/>
    <path fill="#009341" stroke="#221D1A" stroke-linejoin="bevel" d="M498 337c70,-35 123,61 37,69 44,-31 -3,-84 -30,-64l-7 -5z"/>
    <path fill="#009341" stroke="#221D1A" stroke-linejoin="bevel" d="M345 561c-111,-89 -107,4 -111,19 -62,-89 48,-99 114,-21l-3 2z"/>
    <path fill="#009341" stroke="#221D1A" stroke-linejoin="bevel" d="M348 559c0,-53 -40,-87 -104,-63 10,-90 121,-7 107,60l-3 3z"/>
    <path fill="#009341" stroke="#221D1A" stroke-linejoin="bevel" d="M353 555c31,-120 54,-117 83,-117 -1,40 -62,48 -80,119l-3 -2z"/>
    <path fill="#009341" stroke="#221D1A" stroke-linejoin="bevel" d="M356 557c13,-31 57,-65 78,-52 2,30 -46,-8 -71,58l-7 -6z"/>
    <path fill="#009341" stroke="#221D1A" stroke-linejoin="bevel" d="M364 564c13,-15 83,-72 68,16 -1,-48 -48,-32 -66,-13l-2 -3z"/>
    <path fill="#009341" stroke="#221D1A" stroke-linejoin="bevel" d="M542 484l-2 3c-65,-25 -16,65 -6,68 -15,6 -73,-106 8,-71z"/>
    <path fill="#009341" stroke="#221D1A" stroke-linejoin="bevel" d="M501 486c-45,-16 -38,74 -1,80 -94,-3 -53,-114 6,-86l-5 6z"/>
    <path fill="#009341" stroke="#221D1A" stroke-linejoin="bevel" d="M544 482c-9,-22 -112,-80 -100,37 -69,-94 60,-112 104,-42l-4 5z"/>
    <path fill="#009341" stroke="#221D1A" stroke-linejoin="bevel" d="M549 476c-66,-121 -118,-2 -104,-41 14,-42 77,-55 107,37l-3 4z"/>
    <path fill="#009341" stroke="#221D1A" stroke-linejoin="bevel" d="M552 472c29,-118 119,-95 114,-42 -37,-52 -93,-12 -110,45l-4 -3z"/>
    <path fill="#009341" stroke="#221D1A" stroke-linejoin="bevel" d="M557 475c65,-104 131,-32 115,11 -53,-105 -102,-22 -112,-8l-3 -3z"/>
    <path fill="#009341" stroke="#221D1A" stroke-linejoin="bevel" d="M599 468c101,-20 71,100 8,88 65,-41 27,-78 -5,-78l-3 -10z"/>
    <path fill="#009341" stroke="#221D1A" stroke-linejoin="bevel" d="M598 548c7,-99 -19,-89 -32,-65l-4 -3c51,-71 44,48 36,68z"/>
    <path fill="#009341" stroke="#221D1A" stroke-linejoin="bevel" d="M549 741c-30,-66 -116,-22 -59,7 -14,-17 23,-51 56,-4l3 -3z"/>
    <path fill="#009341" stroke="#221D1A" stroke-linejoin="bevel" d="M550 739c-11,-20 -34,-80 -66,-45 -36,-31 39,-62 69,43l-3 2z"/>
    <path fill="#009341" stroke="#221D1A" stroke-linejoin="bevel" d="M554 735c-21,-66 -27,-94 -57,-80 -16,-32 50,-52 60,78l-3 2z"/>
    <path fill="#009341" stroke="#221D1A" stroke-linejoin="bevel" d="M560 737l-3 -4c1,-93 79,-124 79,-80 -11,-15 -69,9 -75,83l-1 1z"/>
    <path fill="#009341" stroke="#221D1A" stroke-linejoin="bevel" d="M560 738c26,-90 119,-95 95,-44 -6,-38 -72,-4 -91,48l-4 -4z"/>
    <path fill="#009341" stroke="#221D1A" stroke-linejoin="bevel" d="M565 743c20,-68 129,-49 74,1 16,-62 -62,-35 -71,4l-3 -5z"/>
    <path fill="#009341" stroke="#221D1A" stroke-linejoin="bevel" d="M341 566c-41,-21 -118,13 -45,73 -74,7 -64,-129 49,-77l-4 4z"/>
    <path fill="#009341" stroke="#221D1A" stroke-linejoin="bevel" d="M395 337c-120,-20 -65,67 -25,86 -117,1 -77,-144 32,-90l-7 4z"/>
    <path fill="#009341" stroke="#221D1A" stroke-linejoin="bevel" d="M405 330c18,-2 32,18 38,22l-3 4c-28,-27 -71,-25 -51,73 -20,-45 -10,-88 5,-96l11 -3z"/>
    <path fill="#FFFFFF" stroke="#2B2229" stroke-linejoin="bevel" d="M132 799l639 0 -639 0z"/>
    <path fill="#2B2229" stroke="#221D1A" stroke-linejoin="bevel" d="M244 531c-2,8 -14,4 -8,22 2,7 -34,41 -52,27 -7,-5 -11,-19 -15,-13 -9,2 6,10 5,15 -2,11 -20,6 -26,15 -11,17 -19,53 -7,82 4,-17 -4,-71 19,-74 20,-1 16,40 18,59 -26,86 -4,40 -18,120 -5,6 -21,0 -20,8 3,7 21,8 34,2 2,-38 3,-89 17,-100 21,9 19,83 19,101 10,8 23,4 32,3 3,-9 -15,-6 -20,-13 5,-75 -7,-89 -18,-111 -3,-31 6,-51 -7,-79 42,-11 56,-51 50,-61l-3 -3z"/>
    <path fill="#2B2229" stroke="#221D1A" stroke-linejoin="bevel" d="M159 536c17,8 17,21 11,30 -5,6 -21,3 -26,-2l15 -28z"/>
    <path fill="#DB281E" stroke="#221D1A" stroke-linejoin="bevel" d="M165 525c-8,15 -14,23 -21,40 -13,-14 -11,-22 -4,-29 6,-3 7,0 13,-3 1,-1 3,-1 10,-9l2 1z"/>
    <path fill="none" stroke="#A8A8A7" stroke-linejoin="bevel" d="M458 799l-18 0c-65,7 -62,5 -121,12 58,4 94,0 121,3 5,13 4,10 10,21 8,-13 3,-11 10,-21 49,-4 77,-1 125,-2 -91,-8 -93,-10 -127,-13z"/>
   </g>
  </g>
 </g>
</svg>
